<svg width="114" height="256" viewBox="0 0 114 256" fill="none" xmlns="http://www.w3.org/2000/svg">
<path d="M230.318 41.4688C217.457 37.0508 207.154 26.6895 202.756 13.752C199.959 5.52539 192.258 0 183.59 0H71.9102C63.2441 0 55.541 5.52539 52.7441 13.752C48.3457 26.6895 38.043 37.0508 25.1816 41.4688C16.998 44.2812 11.5 52.0059 11.5 60.6914V88.9434C11.5 125.811 22.5469 161.309 43.4473 191.602C62.5703 219.318 88.9219 241.008 119.656 254.328C122.229 255.443 124.988 256 127.75 256C130.51 256 133.27 255.443 135.842 254.328C166.576 241.01 192.928 219.318 212.051 191.602C232.951 161.309 244 125.809 244 88.9434V60.6914C244 52.0059 238.502 44.2812 230.318 41.4688ZM229 88.9434C229 122.752 218.869 155.305 199.703 183.084C182.178 208.486 158.031 228.363 129.877 240.564C128.527 241.15 126.975 241.152 125.621 240.564C97.4648 228.363 73.3203 208.486 55.7949 183.084C36.6309 155.307 26.5 122.754 26.5 88.9434V60.6914C26.5 58.4102 27.9297 56.3867 30.0566 55.6562C47.2734 49.7402 61.0645 35.8809 66.9453 18.5801C67.6738 16.4395 69.668 15 71.9102 15H183.59C185.83 15 187.826 16.4395 188.555 18.5801C194.436 35.8809 208.227 49.7402 225.443 55.6562C227.57 56.3867 229 58.4102 229 60.6914V88.9434Z" fill="#FAFAFA"/>
<path d="M159.619 97.2422H159.109V75.8828C159.109 58.5918 145.041 44.5234 127.75 44.5234C110.459 44.5234 96.3906 58.5918 96.3906 75.8828V97.2422H95.8809C85.9219 97.2422 77.8203 105.346 77.8203 115.305V158.469C77.8203 177.016 92.9102 192.107 111.455 192.107H144.045C162.592 192.107 177.68 177.016 177.68 158.469V115.305C177.68 105.346 169.578 97.2422 159.619 97.2422ZM111.391 75.8828C111.391 66.8633 118.73 59.5234 127.75 59.5234C136.77 59.5234 144.109 66.8633 144.109 75.8828V97.2441H111.391V75.8828ZM162.68 158.469C162.68 168.746 154.32 177.105 144.045 177.105H111.455C101.18 177.105 92.8203 168.746 92.8203 158.469V115.305C92.8203 113.617 94.1934 112.244 95.8809 112.244H159.619C161.307 112.244 162.68 113.617 162.68 115.305V158.469Z" fill="#FAFAFA"/>
</svg>
