<svg width="210" height="421" viewBox="0 0 210 421" fill="none" xmlns="http://www.w3.org/2000/svg">
<g clip-path="url(#clip0)">
<path d="M167.866 69.0324C146.765 61.7842 129.863 44.7851 122.646 23.5595C118.058 10.0628 105.423 0.997742 91.2021 0.997742H-92.0224C-106.24 0.997742 -118.878 10.0628 -123.467 23.5595C-130.683 44.7851 -147.586 61.7842 -168.686 69.0324C-182.113 73.6467 -191.133 86.3199 -191.133 100.57V146.92C-191.133 207.406 -173.009 265.645 -138.719 315.344C-107.346 360.817 -64.1125 396.401 -13.689 418.255C-9.46884 420.085 -4.9411 420.998 -0.410156 420.998C4.11758 420.998 8.64532 420.085 12.8654 418.255C63.289 396.404 106.522 360.817 137.896 315.344C172.186 265.645 190.312 207.402 190.312 146.92V100.57C190.312 86.3199 181.292 73.6467 167.866 69.0324ZM165.703 146.92C165.703 202.388 149.082 255.794 117.638 301.37C88.8853 343.046 49.27 375.656 3.07938 395.674C0.865173 396.635 -1.68228 396.638 -3.90289 395.674C-50.0967 375.656 -89.7089 343.046 -118.461 301.37C-149.902 255.798 -166.523 202.391 -166.523 146.92V100.57C-166.523 96.8269 -164.178 93.5072 -160.688 92.3088C-132.442 82.6028 -109.816 59.8648 -100.168 31.4807C-98.9726 27.9687 -95.701 25.6071 -92.0224 25.6071H91.2021C94.8775 25.6071 98.1523 27.9687 99.3475 31.4807C108.996 59.8648 131.622 82.6028 159.868 92.3088C163.358 93.5072 165.703 96.8269 165.703 100.57V146.92Z" fill="#EFEFEF"/>
<path d="M51.875 160.536H51.0387V125.493C51.0387 97.1249 27.9578 74.0439 -0.410278 74.0439C-28.7784 74.0439 -51.8593 97.1249 -51.8593 125.493V160.536H-52.6956C-69.0345 160.536 -82.3262 173.83 -82.3262 190.169V260.986C-82.3262 291.414 -57.5694 316.174 -27.1441 316.174H26.3236C56.752 316.174 81.5056 291.414 81.5056 260.986V190.169C81.5056 173.83 68.214 160.536 51.875 160.536ZM-27.2499 125.493C-27.2499 110.695 -15.2079 98.6533 -0.410278 98.6533C14.3874 98.6533 26.4293 110.695 26.4293 125.493V160.539H-27.2499V125.493ZM56.8962 260.986C56.8962 277.847 43.1816 291.561 26.3236 291.561H-27.1441C-44.0022 291.561 -57.7168 277.847 -57.7168 260.986V190.169C-57.7168 187.401 -55.4641 185.148 -52.6956 185.148H51.875C54.6436 185.148 56.8962 187.401 56.8962 190.169V260.986Z" fill="#EFEFEF"/>
<path d="M-0.410156 214.426C-7.20657 214.426 -12.7148 219.935 -12.7148 226.731V249.979C-12.7148 256.775 -7.20657 262.283 -0.410156 262.283C6.38626 262.283 11.8945 256.775 11.8945 249.979V226.731C11.8945 219.935 6.38626 214.426 -0.410156 214.426Z" fill="#EFEFEF"/>
</g>
<defs>
<clipPath id="clip0">
<rect width="420" height="420" fill="white" transform="translate(-210 0.997742)"/>
</clipPath>
</defs>
</svg>
