<svg width="24" height="24" viewBox="0 0 24 24" fill="none" xmlns="http://www.w3.org/2000/svg">
<path d="M13.3259 12.0008L23.7254 1.60121C24.0916 1.23507 24.0916 0.641446 23.7254 0.275353C23.3593 -0.0907405 22.7657 -0.0907874 22.3996 0.275353L12 10.6749L1.60046 0.275353C1.23432 -0.0907874 0.640698 -0.0907874 0.274605 0.275353C-0.0914881 0.641493 -0.091535 1.23512 0.274605 1.60121L10.6741 12.0007L0.274605 22.4003C-0.091535 22.7665 -0.091535 23.3601 0.274605 23.7262C0.457651 23.9092 0.697604 24.0007 0.937557 24.0007C1.17751 24.0007 1.41742 23.9092 1.60051 23.7262L12 13.3267L22.3995 23.7262C22.5826 23.9092 22.8225 24.0007 23.0625 24.0007C23.3024 24.0007 23.5423 23.9092 23.7254 23.7262C24.0916 23.3601 24.0916 22.7664 23.7254 22.4003L13.3259 12.0008Z" fill="#2B303F"/>
</svg>
