<svg width="40" height="40" viewBox="0 0 40 40" fill="none" xmlns="http://www.w3.org/2000/svg">
<path d="M39.3102 33.1034H0.689686C0.308828 33.1034 0 32.7946 0 32.4138V7.58623C0 7.20537 0.308828 6.89655 0.689686 6.89655H39.3103C39.6912 6.89655 40 7.20537 40 7.58623V32.4138C39.9999 32.7947 39.6911 33.1034 39.3102 33.1034Z" fill="#F5F5F5"/>
<path d="M39.9999 8.91256H0V7.58623C0 7.20537 0.308828 6.89655 0.689686 6.89655H39.3103C39.6912 6.89655 40 7.20537 40 7.58623L39.9999 8.91256Z" fill="#FF4B55"/>
<path d="M39.9999 14.9602H0V16.9761H39.9999V14.9602Z" fill="#FF4B55"/>
<path d="M39.9999 10.9282H0V12.9441H39.9999V10.9282Z" fill="#FF4B55"/>
<path d="M39.9999 21.008H0.689686C0.308828 21.008 0 20.6992 0 20.3183V18.992H39.9999V21.008Z" fill="#FF4B55"/>
<path d="M39.9999 27.0563H0V29.0722H39.9999V27.0563Z" fill="#FF4B55"/>
<path d="M39.3102 33.1034H0.689686C0.308828 33.1034 0 32.7946 0 32.4138V31.0875H39.9999V32.4138C39.9999 32.7947 39.6911 33.1034 39.3102 33.1034Z" fill="#FF4B55"/>
<path d="M39.9999 23.0242H0V25.0402H39.9999V23.0242Z" fill="#FF4B55"/>
<path d="M17.931 6.89662H0.689686C0.308828 6.89662 0 7.20537 0 7.58623V20.3182C0 20.6991 0.308828 21.0079 0.689686 21.0079H17.9311C18.3119 21.0079 18.6207 20.6991 18.6207 20.3182V7.58623C18.6207 7.20537 18.3118 6.89662 17.931 6.89662Z" fill="#41479B"/>
<path d="M1.93643 8.47964L2.08909 8.93745L2.57166 8.94113C2.63416 8.94167 2.66002 9.02136 2.60979 9.05847L2.22159 9.34519L2.36721 9.80526C2.38612 9.8648 2.31823 9.91417 2.26737 9.87776L1.87479 9.59722L1.48221 9.87784C1.43136 9.91417 1.36362 9.86487 1.38237 9.80534L1.528 9.34527L1.13979 9.05855C1.08956 9.02136 1.11542 8.94175 1.17792 8.9412L1.6605 8.93753L1.81315 8.47972C1.83284 8.42035 1.91659 8.42035 1.93643 8.47964Z" fill="#F5F5F5"/>
<path d="M1.93643 10.8744L2.08909 11.3322L2.57166 11.3358C2.63416 11.3364 2.66002 11.4161 2.60979 11.4532L2.22159 11.7399L2.36721 12.2C2.38612 12.2595 2.31823 12.3089 2.26737 12.2725L1.87479 11.9919L1.48221 12.2726C1.43136 12.3089 1.36362 12.2596 1.38237 12.2001L1.528 11.74L1.13979 11.4533C1.08956 11.4161 1.11542 11.3365 1.17792 11.3359L1.6605 11.3322L1.81315 10.8744C1.83284 10.8151 1.91659 10.8151 1.93643 10.8744Z" fill="#F5F5F5"/>
<path d="M1.93643 13.2692L2.08909 13.727L2.57166 13.7307C2.63416 13.7312 2.66002 13.8109 2.60979 13.848L2.22159 14.1347L2.36721 14.5948C2.38612 14.6544 2.31823 14.7037 2.26737 14.6673L1.87479 14.3868L1.48221 14.6674C1.43136 14.7037 1.36362 14.6544 1.38237 14.5949L1.528 14.1348L1.13979 13.8481C1.08956 13.8109 1.11542 13.7313 1.17792 13.7308L1.6605 13.7271L1.81315 13.2693C1.83284 13.21 1.91659 13.21 1.93643 13.2692Z" fill="#F5F5F5"/>
<path d="M1.93643 15.6641L2.08909 16.1219L2.57166 16.1256C2.63416 16.1261 2.66002 16.2058 2.60979 16.2429L2.22159 16.5297L2.36721 16.9897C2.38612 17.0493 2.31823 17.0986 2.26737 17.0622L1.87479 16.7817L1.48221 17.0623C1.43136 17.0986 1.36362 17.0493 1.38237 16.9898L1.528 16.5297L1.13979 16.243C1.08956 16.2058 1.11542 16.1262 1.17792 16.1257L1.6605 16.122L1.81315 15.6642C1.83284 15.6048 1.91659 15.6048 1.93643 15.6641Z" fill="#F5F5F5"/>
<path d="M1.93643 18.059L2.08909 18.5168L2.57166 18.5204C2.63416 18.521 2.66002 18.6007 2.60979 18.6378L2.22159 18.9245L2.36721 19.3846C2.38612 19.4441 2.31823 19.4935 2.26737 19.4571L1.87479 19.1765L1.48221 19.4572C1.43136 19.4935 1.36362 19.4442 1.38237 19.3847L1.528 18.9246L1.13979 18.6379C1.08956 18.6007 1.11542 18.5211 1.17792 18.5205L1.6605 18.5168L1.81315 18.059C1.83284 17.9996 1.91659 17.9996 1.93643 18.059Z" fill="#F5F5F5"/>
<path d="M3.79532 9.65365L3.94797 10.1115L4.43055 10.1151C4.49305 10.1157 4.51891 10.1954 4.46868 10.2325L4.08047 10.5192L4.2261 10.9793C4.24501 11.0388 4.17711 11.0882 4.12626 11.0518L3.73368 10.7711L3.3411 11.0518C3.29024 11.0881 3.22251 11.0388 3.24126 10.9793L3.38688 10.5192L2.99868 10.2325C2.94845 10.1953 2.97431 10.1157 3.03681 10.1151L3.51938 10.1115L3.67204 9.65365C3.69165 9.59443 3.77555 9.59443 3.79532 9.65365Z" fill="#F5F5F5"/>
<path d="M3.79532 12.0486L3.94797 12.5064L4.43055 12.5101C4.49305 12.5106 4.51891 12.5903 4.46868 12.6274L4.08047 12.9141L4.2261 13.3742C4.24501 13.4337 4.17711 13.4831 4.12626 13.4467L3.73368 13.1661L3.3411 13.4467C3.29024 13.483 3.22251 13.4338 3.24126 13.3742L3.38688 12.9141L2.99868 12.6274C2.94845 12.5902 2.97431 12.5106 3.03681 12.5101L3.51938 12.5064L3.67204 12.0486C3.69165 11.9893 3.77555 11.9893 3.79532 12.0486Z" fill="#F5F5F5"/>
<path d="M3.79532 14.4434L3.94797 14.9012L4.43055 14.9049C4.49305 14.9054 4.51891 14.9851 4.46868 15.0222L4.08047 15.309L4.2261 15.769C4.24501 15.8286 4.17711 15.8779 4.12626 15.8415L3.73368 15.5609L3.3411 15.8415C3.29024 15.8779 3.22251 15.8286 3.24126 15.769L3.38688 15.309L2.99868 15.0222C2.94845 14.9851 2.97431 14.9054 3.03681 14.9049L3.51938 14.9012L3.67204 14.4434C3.69165 14.3841 3.77555 14.3841 3.79532 14.4434Z" fill="#F5F5F5"/>
<path d="M3.79532 16.8383L3.94797 17.2961L4.43055 17.2997C4.49305 17.3003 4.51891 17.38 4.46868 17.4171L4.08047 17.7038L4.2261 18.1639C4.24501 18.2234 4.17711 18.2728 4.12626 18.2364L3.73368 17.9558L3.3411 18.2364C3.29024 18.2727 3.22251 18.2234 3.24126 18.1639L3.38688 17.7038L2.99868 17.4171C2.94845 17.3799 2.97431 17.3003 3.03681 17.2997L3.51938 17.2961L3.67204 16.8383C3.69165 16.779 3.77555 16.779 3.79532 16.8383Z" fill="#F5F5F5"/>
<path d="M5.65421 8.47952L5.80686 8.93733L6.28944 8.941C6.35194 8.94154 6.3778 9.02123 6.32757 9.05834L5.93936 9.34506L6.08499 9.80513C6.1039 9.86467 6.036 9.91404 5.98515 9.87763L5.59257 9.59701L5.19999 9.87763C5.14913 9.91396 5.08139 9.86467 5.10014 9.80513L5.24577 9.34506L4.85757 9.05834C4.80733 9.02115 4.83319 8.94154 4.89569 8.941L5.37827 8.93733L5.53093 8.47952C5.55061 8.42022 5.63444 8.42022 5.65421 8.47952Z" fill="#F5F5F5"/>
<path d="M5.65421 10.8744L5.80686 11.3322L6.28944 11.3358C6.35194 11.3364 6.3778 11.4161 6.32757 11.4532L5.93936 11.7399L6.08499 12.2C6.1039 12.2595 6.036 12.3089 5.98515 12.2725L5.59257 11.9919L5.19999 12.2725C5.14913 12.3088 5.08139 12.2595 5.10014 12.2L5.24577 11.7399L4.85757 11.4532C4.80733 11.416 4.83319 11.3364 4.89569 11.3358L5.37827 11.3322L5.53093 10.8744C5.55061 10.8151 5.63444 10.8151 5.65421 10.8744Z" fill="#F5F5F5"/>
<path d="M5.65421 13.2692L5.80686 13.727L6.28944 13.7307C6.35194 13.7312 6.3778 13.8109 6.32757 13.848L5.93936 14.1347L6.08499 14.5948C6.1039 14.6544 6.036 14.7037 5.98515 14.6673L5.59257 14.3867L5.19999 14.6673C5.14913 14.7036 5.08139 14.6544 5.10014 14.5948L5.24577 14.1347L4.85757 13.848C4.80733 13.8108 4.83319 13.7312 4.89569 13.7307L5.37827 13.727L5.53093 13.2692C5.55061 13.21 5.63444 13.21 5.65421 13.2692Z" fill="#F5F5F5"/>
<path d="M5.65421 15.6641L5.80686 16.1219L6.28944 16.1256C6.35194 16.1261 6.3778 16.2058 6.32757 16.2429L5.93936 16.5297L6.08499 16.9897C6.1039 17.0493 6.036 17.0986 5.98515 17.0622L5.59257 16.7816L5.19999 17.0622C5.14913 17.0986 5.08139 17.0493 5.10014 16.9897L5.24577 16.5297L4.85757 16.2429C4.80733 16.2058 4.83319 16.1261 4.89569 16.1256L5.37827 16.1219L5.53093 15.6641C5.55061 15.6048 5.63444 15.6048 5.65421 15.6641Z" fill="#F5F5F5"/>
<path d="M5.65421 18.059L5.80686 18.5168L6.28944 18.5204C6.35194 18.521 6.3778 18.6007 6.32757 18.6378L5.93936 18.9245L6.08499 19.3846C6.1039 19.4441 6.036 19.4935 5.98515 19.4571L5.59257 19.1765L5.19999 19.4571C5.14913 19.4934 5.08139 19.4441 5.10014 19.3846L5.24577 18.9245L4.85757 18.6378C4.80733 18.6006 4.83319 18.521 4.89569 18.5204L5.37827 18.5168L5.53093 18.059C5.55061 17.9996 5.63444 17.9996 5.65421 18.059Z" fill="#F5F5F5"/>
<path d="M7.51309 9.65365L7.66575 10.1115L8.14833 10.1151C8.21083 10.1157 8.23669 10.1954 8.18645 10.2325L7.79825 10.5192L7.94387 10.9793C7.96278 11.0388 7.89489 11.0882 7.84403 11.0518L7.45145 10.7711L7.05888 11.0518C7.00802 11.0881 6.94028 11.0388 6.95903 10.9793L7.10466 10.5192L6.71645 10.2325C6.66622 10.1953 6.69208 10.1157 6.75458 10.1151L7.23716 10.1115L7.38981 9.65365C7.40942 9.59443 7.49333 9.59443 7.51309 9.65365Z" fill="#F5F5F5"/>
<path d="M7.51309 12.0486L7.66575 12.5064L8.14833 12.5101C8.21083 12.5106 8.23669 12.5903 8.18645 12.6274L7.79825 12.9141L7.94387 13.3742C7.96278 13.4337 7.89489 13.4831 7.84403 13.4467L7.45145 13.1661L7.05888 13.4467C7.00802 13.483 6.94028 13.4338 6.95903 13.3742L7.10466 12.9141L6.71645 12.6274C6.66622 12.5902 6.69208 12.5106 6.75458 12.5101L7.23716 12.5064L7.38981 12.0486C7.40942 11.9893 7.49333 11.9893 7.51309 12.0486Z" fill="#F5F5F5"/>
<path d="M7.51309 14.4434L7.66575 14.9012L8.14833 14.9049C8.21083 14.9054 8.23669 14.9851 8.18645 15.0222L7.79825 15.309L7.94387 15.769C7.96278 15.8286 7.89489 15.8779 7.84403 15.8415L7.45145 15.5609L7.05888 15.8415C7.00802 15.8779 6.94028 15.8286 6.95903 15.769L7.10466 15.309L6.71645 15.0222C6.66622 14.9851 6.69208 14.9054 6.75458 14.9049L7.23716 14.9012L7.38981 14.4434C7.40942 14.3841 7.49333 14.3841 7.51309 14.4434Z" fill="#F5F5F5"/>
<path d="M7.51309 16.8383L7.66575 17.2961L8.14833 17.2997C8.21083 17.3003 8.23669 17.38 8.18645 17.4171L7.79825 17.7038L7.94387 18.1639C7.96278 18.2234 7.89489 18.2728 7.84403 18.2364L7.45145 17.9558L7.05888 18.2364C7.00802 18.2727 6.94028 18.2234 6.95903 18.1639L7.10466 17.7038L6.71645 17.4171C6.66622 17.3799 6.69208 17.3003 6.75458 17.2997L7.23716 17.2961L7.38981 16.8383C7.40942 16.779 7.49333 16.779 7.51309 16.8383Z" fill="#F5F5F5"/>
<path d="M9.37157 8.47952L9.52423 8.93733L10.0068 8.941C10.0693 8.94154 10.0952 9.02123 10.0449 9.05834L9.65673 9.34506L9.80235 9.80513C9.82126 9.86467 9.75337 9.91404 9.70251 9.87763L9.30985 9.59701L8.91727 9.87763C8.86641 9.91396 8.79868 9.86467 8.81743 9.80513L8.96306 9.34506L8.57485 9.05834C8.52462 9.02115 8.55048 8.94154 8.61298 8.941L9.09556 8.93733L9.24821 8.47952C9.26798 8.42022 9.3518 8.42022 9.37157 8.47952Z" fill="#F5F5F5"/>
<path d="M9.37157 10.8744L9.52423 11.3322L10.0068 11.3358C10.0693 11.3364 10.0952 11.4161 10.0449 11.4532L9.65673 11.7399L9.80235 12.2C9.82126 12.2595 9.75337 12.3089 9.70251 12.2725L9.30985 11.9919L8.91727 12.2725C8.86641 12.3088 8.79868 12.2595 8.81743 12.2L8.96306 11.7399L8.57485 11.4532C8.52462 11.416 8.55048 11.3364 8.61298 11.3358L9.09556 11.3322L9.24821 10.8744C9.26798 10.8151 9.3518 10.8151 9.37157 10.8744Z" fill="#F5F5F5"/>
<path d="M9.37157 13.2692L9.52423 13.727L10.0068 13.7307C10.0693 13.7312 10.0952 13.8109 10.0449 13.848L9.65673 14.1347L9.80235 14.5948C9.82126 14.6544 9.75337 14.7037 9.70251 14.6673L9.30985 14.3867L8.91727 14.6673C8.86641 14.7036 8.79868 14.6544 8.81743 14.5948L8.96306 14.1347L8.57485 13.848C8.52462 13.8108 8.55048 13.7312 8.61298 13.7307L9.09556 13.727L9.24821 13.2692C9.26798 13.21 9.3518 13.21 9.37157 13.2692Z" fill="#F5F5F5"/>
<path d="M9.37157 15.6641L9.52423 16.1219L10.0068 16.1256C10.0693 16.1261 10.0952 16.2058 10.0449 16.2429L9.65673 16.5297L9.80235 16.9897C9.82126 17.0493 9.75337 17.0986 9.70251 17.0622L9.30985 16.7816L8.91727 17.0622C8.86641 17.0986 8.79868 17.0493 8.81743 16.9897L8.96306 16.5297L8.57485 16.2429C8.52462 16.2058 8.55048 16.1261 8.61298 16.1256L9.09556 16.1219L9.24821 15.6641C9.26798 15.6048 9.3518 15.6048 9.37157 15.6641Z" fill="#F5F5F5"/>
<path d="M9.37157 18.059L9.52423 18.5168L10.0068 18.5204C10.0693 18.521 10.0952 18.6007 10.0449 18.6378L9.65673 18.9245L9.80235 19.3846C9.82126 19.4441 9.75337 19.4935 9.70251 19.4571L9.30985 19.1765L8.91727 19.4571C8.86641 19.4934 8.79868 19.4441 8.81743 19.3846L8.96306 18.9245L8.57485 18.6378C8.52462 18.6006 8.55048 18.521 8.61298 18.5204L9.09556 18.5168L9.24821 18.059C9.26798 17.9996 9.3518 17.9996 9.37157 18.059Z" fill="#F5F5F5"/>
<path d="M11.2309 9.65365L11.3835 10.1115L11.8661 10.1151C11.9286 10.1157 11.9545 10.1954 11.9042 10.2325L11.516 10.5192L11.6617 10.9793C11.6806 11.0388 11.6127 11.0882 11.5618 11.0518L11.1692 10.7711L10.7766 11.0518C10.7258 11.0881 10.6581 11.0388 10.6768 10.9793L10.8224 10.5192L10.4342 10.2325C10.384 10.1953 10.4099 10.1157 10.4724 10.1151L10.9549 10.1115L11.1076 9.65365C11.1274 9.59443 11.2111 9.59443 11.2309 9.65365Z" fill="#F5F5F5"/>
<path d="M11.2309 12.0486L11.3835 12.5064L11.8661 12.5101C11.9286 12.5106 11.9545 12.5903 11.9042 12.6274L11.516 12.9141L11.6617 13.3742C11.6806 13.4337 11.6127 13.4831 11.5618 13.4467L11.1692 13.1661L10.7766 13.4467C10.7258 13.483 10.6581 13.4338 10.6768 13.3742L10.8224 12.9141L10.4342 12.6274C10.384 12.5902 10.4099 12.5106 10.4724 12.5101L10.9549 12.5064L11.1076 12.0486C11.1274 11.9893 11.2111 11.9893 11.2309 12.0486Z" fill="#F5F5F5"/>
<path d="M11.2309 14.4434L11.3835 14.9012L11.8661 14.9049C11.9286 14.9054 11.9545 14.9851 11.9042 15.0222L11.516 15.309L11.6617 15.769C11.6806 15.8286 11.6127 15.8779 11.5618 15.8415L11.1692 15.5609L10.7766 15.8415C10.7258 15.8779 10.6581 15.8286 10.6768 15.769L10.8224 15.309L10.4342 15.0222C10.384 14.9851 10.4099 14.9054 10.4724 14.9049L10.9549 14.9012L11.1076 14.4434C11.1274 14.3841 11.2111 14.3841 11.2309 14.4434Z" fill="#F5F5F5"/>
<path d="M11.2309 16.8383L11.3835 17.2961L11.8661 17.2997C11.9286 17.3003 11.9545 17.38 11.9042 17.4171L11.516 17.7038L11.6617 18.1639C11.6806 18.2234 11.6127 18.2728 11.5618 18.2364L11.1692 17.9558L10.7766 18.2364C10.7258 18.2727 10.6581 18.2234 10.6768 18.1639L10.8224 17.7038L10.4342 17.4171C10.384 17.3799 10.4099 17.3003 10.4724 17.2997L10.9549 17.2961L11.1076 16.8383C11.1274 16.779 11.2111 16.779 11.2309 16.8383Z" fill="#F5F5F5"/>
<path d="M13.0898 8.47952L13.2424 8.93733L13.725 8.941C13.7875 8.94154 13.8134 9.02123 13.7631 9.05834L13.3749 9.34506L13.5205 9.80513C13.5394 9.86467 13.4716 9.91404 13.4207 9.87763L13.0281 9.59701L12.6355 9.87763C12.5847 9.91396 12.5169 9.86467 12.5357 9.80513L12.6813 9.34506L12.2931 9.05834C12.2429 9.02115 12.2687 8.94154 12.3312 8.941L12.8138 8.93733L12.9665 8.47952C12.9861 8.42022 13.07 8.42022 13.0898 8.47952Z" fill="#F5F5F5"/>
<path d="M13.0898 10.8744L13.2424 11.3322L13.725 11.3358C13.7875 11.3364 13.8134 11.4161 13.7631 11.4532L13.3749 11.7399L13.5205 12.2C13.5394 12.2595 13.4716 12.3089 13.4207 12.2725L13.0281 11.9919L12.6355 12.2725C12.5847 12.3088 12.5169 12.2595 12.5357 12.2L12.6813 11.7399L12.2931 11.4532C12.2429 11.416 12.2687 11.3364 12.3312 11.3358L12.8138 11.3322L12.9665 10.8744C12.9861 10.8151 13.07 10.8151 13.0898 10.8744Z" fill="#F5F5F5"/>
<path d="M13.0898 13.2692L13.2424 13.727L13.725 13.7307C13.7875 13.7312 13.8134 13.8109 13.7631 13.848L13.3749 14.1347L13.5205 14.5948C13.5394 14.6544 13.4716 14.7037 13.4207 14.6673L13.0281 14.3867L12.6355 14.6673C12.5847 14.7036 12.5169 14.6544 12.5357 14.5948L12.6813 14.1347L12.2931 13.848C12.2429 13.8108 12.2687 13.7312 12.3312 13.7307L12.8138 13.727L12.9665 13.2692C12.9861 13.21 13.07 13.21 13.0898 13.2692Z" fill="#F5F5F5"/>
<path d="M13.0898 15.6641L13.2424 16.1219L13.725 16.1256C13.7875 16.1261 13.8134 16.2058 13.7631 16.2429L13.3749 16.5297L13.5205 16.9897C13.5394 17.0493 13.4716 17.0986 13.4207 17.0622L13.0281 16.7816L12.6355 17.0622C12.5847 17.0986 12.5169 17.0493 12.5357 16.9897L12.6813 16.5297L12.2931 16.2429C12.2429 16.2058 12.2687 16.1261 12.3312 16.1256L12.8138 16.1219L12.9665 15.6641C12.9861 15.6048 13.07 15.6048 13.0898 15.6641Z" fill="#F5F5F5"/>
<path d="M13.0898 18.059L13.2424 18.5168L13.725 18.5204C13.7875 18.521 13.8134 18.6007 13.7631 18.6378L13.3749 18.9245L13.5205 19.3846C13.5394 19.4441 13.4716 19.4935 13.4207 19.4571L13.0281 19.1765L12.6355 19.4571C12.5847 19.4934 12.5169 19.4441 12.5357 19.3846L12.6813 18.9245L12.2931 18.6378C12.2429 18.6006 12.2687 18.521 12.3312 18.5204L12.8138 18.5168L12.9665 18.059C12.9861 17.9996 13.07 17.9996 13.0898 18.059Z" fill="#F5F5F5"/>
<path d="M14.9482 9.65365L15.1008 10.1115L15.5834 10.1151C15.6459 10.1157 15.6717 10.1954 15.6215 10.2325L15.2333 10.5192L15.3789 10.9793C15.3978 11.0388 15.3299 11.0882 15.2791 11.0518L14.8865 10.7711L14.4939 11.0518C14.4431 11.0881 14.3753 11.0388 14.3941 10.9793L14.5397 10.5192L14.1515 10.2325C14.1013 10.1953 14.1271 10.1157 14.1896 10.1151L14.6722 10.1115L14.8249 9.65365C14.8446 9.59443 14.9285 9.59443 14.9482 9.65365Z" fill="#F5F5F5"/>
<path d="M14.9482 12.0486L15.1008 12.5064L15.5834 12.5101C15.6459 12.5106 15.6717 12.5903 15.6215 12.6274L15.2333 12.9141L15.3789 13.3742C15.3978 13.4337 15.3299 13.4831 15.2791 13.4467L14.8865 13.1661L14.4939 13.4467C14.4431 13.483 14.3753 13.4338 14.3941 13.3742L14.5397 12.9141L14.1515 12.6274C14.1013 12.5902 14.1271 12.5106 14.1896 12.5101L14.6722 12.5064L14.8249 12.0486C14.8446 11.9893 14.9285 11.9893 14.9482 12.0486Z" fill="#F5F5F5"/>
<path d="M14.9482 14.4434L15.1008 14.9012L15.5834 14.9049C15.6459 14.9054 15.6717 14.9851 15.6215 15.0222L15.2333 15.309L15.3789 15.769C15.3978 15.8286 15.3299 15.8779 15.2791 15.8415L14.8865 15.5609L14.4939 15.8415C14.4431 15.8779 14.3753 15.8286 14.3941 15.769L14.5397 15.309L14.1515 15.0222C14.1013 14.9851 14.1271 14.9054 14.1896 14.9049L14.6722 14.9012L14.8249 14.4434C14.8446 14.3841 14.9285 14.3841 14.9482 14.4434Z" fill="#F5F5F5"/>
<path d="M14.9482 16.8383L15.1008 17.2961L15.5834 17.2997C15.6459 17.3003 15.6717 17.38 15.6215 17.4171L15.2333 17.7038L15.3789 18.1639C15.3978 18.2234 15.3299 18.2728 15.2791 18.2364L14.8865 17.9558L14.4939 18.2364C14.4431 18.2727 14.3753 18.2234 14.3941 18.1639L14.5397 17.7038L14.1515 17.4171C14.1013 17.3799 14.1271 17.3003 14.1896 17.2997L14.6722 17.2961L14.8249 16.8383C14.8446 16.779 14.9285 16.779 14.9482 16.8383Z" fill="#F5F5F5"/>
<path d="M16.807 8.47952L16.9597 8.93733L17.4423 8.941C17.5048 8.94154 17.5306 9.02123 17.4804 9.05834L17.0922 9.34506L17.2378 9.80513C17.2567 9.86467 17.1888 9.91404 17.138 9.87763L16.7454 9.59701L16.3528 9.87763C16.302 9.91396 16.2342 9.86467 16.253 9.80513L16.3986 9.34506L16.0104 9.05834C15.9602 9.02115 15.986 8.94154 16.0485 8.941L16.5311 8.93733L16.6838 8.47952C16.7034 8.42022 16.7872 8.42022 16.807 8.47952Z" fill="#F5F5F5"/>
<path d="M16.807 10.8744L16.9597 11.3322L17.4423 11.3358C17.5048 11.3364 17.5306 11.4161 17.4804 11.4532L17.0922 11.7399L17.2378 12.2C17.2567 12.2595 17.1888 12.3089 17.138 12.2725L16.7454 11.9919L16.3528 12.2725C16.302 12.3088 16.2342 12.2595 16.253 12.2L16.3986 11.7399L16.0104 11.4532C15.9602 11.416 15.986 11.3364 16.0485 11.3358L16.5311 11.3322L16.6838 10.8744C16.7034 10.8151 16.7872 10.8151 16.807 10.8744Z" fill="#F5F5F5"/>
<path d="M16.807 13.2692L16.9597 13.727L17.4423 13.7307C17.5048 13.7312 17.5306 13.8109 17.4804 13.848L17.0922 14.1347L17.2378 14.5948C17.2567 14.6544 17.1888 14.7037 17.138 14.6673L16.7454 14.3867L16.3528 14.6673C16.302 14.7036 16.2342 14.6544 16.253 14.5948L16.3986 14.1347L16.0104 13.848C15.9602 13.8108 15.986 13.7312 16.0485 13.7307L16.5311 13.727L16.6838 13.2692C16.7034 13.21 16.7872 13.21 16.807 13.2692Z" fill="#F5F5F5"/>
<path d="M16.807 15.6641L16.9597 16.1219L17.4423 16.1256C17.5048 16.1261 17.5306 16.2058 17.4804 16.2429L17.0922 16.5297L17.2378 16.9897C17.2567 17.0493 17.1888 17.0986 17.138 17.0622L16.7454 16.7816L16.3528 17.0622C16.302 17.0986 16.2342 17.0493 16.253 16.9897L16.3986 16.5297L16.0104 16.2429C15.9602 16.2058 15.986 16.1261 16.0485 16.1256L16.5311 16.1219L16.6838 15.6641C16.7034 15.6048 16.7872 15.6048 16.807 15.6641Z" fill="#F5F5F5"/>
<path d="M16.807 18.059L16.9597 18.5168L17.4423 18.5204C17.5048 18.521 17.5306 18.6007 17.4804 18.6378L17.0922 18.9245L17.2378 19.3846C17.2567 19.4441 17.1888 19.4935 17.138 19.4571L16.7454 19.1765L16.3528 19.4571C16.302 19.4934 16.2342 19.4441 16.253 19.3846L16.3986 18.9245L16.0104 18.6378C15.9602 18.6006 15.986 18.521 16.0485 18.5204L16.5311 18.5168L16.6838 18.059C16.7034 17.9996 16.7872 17.9996 16.807 18.059Z" fill="#F5F5F5"/>
</svg>
