<svg width="20" height="16" viewBox="0 0 20 16" fill="none" xmlns="http://www.w3.org/2000/svg">
<path fill-rule="evenodd" clip-rule="evenodd" d="M17.001 0C18.6578 0 20.001 1.34315 20.001 3V13C20.001 14.6569 18.6578 16 17.001 16H3.00098C1.34412 16 0.000976562 14.6569 0.000976562 13V3C0.000976562 1.34315 1.34412 0 3.00098 0H17.001ZM18.001 3.328L10.6595 9.75258C10.3139 10.055 9.81203 10.0802 9.44039 9.82818L9.34247 9.75258L2.00098 3.329V13C2.00098 13.5523 2.44869 14 3.00098 14H17.001C17.5533 14 18.001 13.5523 18.001 13V3.328ZM16.481 2H3.51898L10.001 7.67123L16.481 2Z" fill="#2B303F"/>
</svg>
