<svg width="20" height="20" viewBox="0 0 20 20" fill="none" xmlns="http://www.w3.org/2000/svg">
<path fill-rule="evenodd" clip-rule="evenodd" d="M17.001 0C18.5959 0 19.9044 1.25157 19.9959 2.82401L20.001 3V13C20.001 14.5949 18.7494 15.9035 17.177 15.9949L17.001 16H13.501L10.801 19.6C10.612 19.852 10.316 20 10.001 20C9.72535 20 9.46427 19.8867 9.2767 19.6895L9.20098 19.6L6.50098 16H3.00098C1.40605 16 0.0975123 14.7484 0.00607979 13.176L0.000976562 13V3C0.000976562 1.40507 1.25255 0.0965357 2.82499 0.00510323L3.00098 0H17.001ZM17.001 2H3.00098C2.48933 2 2.06564 2.38715 2.00772 2.88362L2.00098 3V13C2.00098 13.5116 2.38812 13.9353 2.88459 13.9933L3.00098 14H7.00098C7.2766 14 7.53768 14.1133 7.72526 14.3105L7.80098 14.4L10.001 17.333L12.201 14.4C12.3664 14.1795 12.6136 14.0386 12.8839 14.0069L13.001 14H17.001C17.5126 14 17.9363 13.6129 17.9942 13.1164L18.001 13V3C18.001 2.48836 17.6138 2.06466 17.1174 2.00675L17.001 2ZM15.001 9C15.553 9 16.001 9.448 16.001 10C16.001 10.5126 15.6147 10.9355 15.1175 10.9933L15.001 11H5.00098C4.44898 11 4.00098 10.552 4.00098 10C4.00098 9.48743 4.38726 9.06453 4.88441 9.00673L5.00098 9H15.001ZM15.001 5C15.553 5 16.001 5.448 16.001 6C16.001 6.51257 15.6147 6.93547 15.1175 6.99327L15.001 7H5.00098C4.44898 7 4.00098 6.552 4.00098 6C4.00098 5.48743 4.38726 5.06453 4.88441 5.00673L5.00098 5H15.001Z" fill="#2B303F"/>
</svg>
