<svg width="24" height="25" viewBox="0 0 24 25" fill="none" xmlns="http://www.w3.org/2000/svg">
<g clip-path="url(#clip0)">
<path d="M17.625 4.27393H6.375C5.21191 4.27393 4.26562 5.22201 4.26562 6.38729V17.6586C4.26562 18.8239 5.21191 19.7719 6.375 19.7719H17.625C18.7881 19.7719 19.7344 18.8239 19.7344 17.6586V6.38729C19.7344 5.22201 18.7881 4.27393 17.625 4.27393ZM12 16.9541C9.28638 16.9541 7.07812 14.7417 7.07812 12.0229C7.07812 9.30418 9.28638 7.09175 12 7.09175C14.7136 7.09175 16.9219 9.30418 16.9219 12.0229C16.9219 14.7417 14.7136 16.9541 12 16.9541ZM16.9219 8.50066C16.1466 8.50066 15.5156 7.86848 15.5156 7.09175C15.5156 6.31501 16.1466 5.68284 16.9219 5.68284C17.6971 5.68284 18.3281 6.31501 18.3281 7.09175C18.3281 7.86848 17.6971 8.50066 16.9219 8.50066Z" fill="#20232D"/>
<path d="M12 8.50049C10.0616 8.50049 8.48438 10.0807 8.48438 12.0228C8.48438 13.9648 10.0616 15.545 12 15.545C13.9384 15.545 15.5156 13.9648 15.5156 12.0228C15.5156 10.0807 13.9384 8.50049 12 8.50049Z" fill="#20232D"/>
<path d="M20.4375 0H3.5625C1.62415 0 0 1.62722 0 3.56924V20.4762C0 22.4182 1.62415 24.0454 3.5625 24.0454H20.4375C22.3759 24.0454 24 22.4182 24 20.4762V3.56924C24 1.62722 22.3759 0 20.4375 0ZM21.1406 17.6583C21.1406 19.6004 19.5634 21.1806 17.625 21.1806H6.375C4.43665 21.1806 2.85938 19.6004 2.85938 17.6583V6.38706C2.85938 4.44504 4.43665 2.86479 6.375 2.86479H17.625C19.5634 2.86479 21.1406 4.44504 21.1406 6.38706V17.6583Z" fill="#20232D"/>
</g>
<defs>
<clipPath id="clip0">
<rect width="24" height="24.0454" fill="white"/>
</clipPath>
</defs>
</svg>
