<svg width="167" height="58" viewBox="0 0 167 58" fill="none" xmlns="http://www.w3.org/2000/svg">
<g clip-path="url(#clip0)">
<path d="M8.79848 43.5947C13.1739 48.1291 17.4856 52.7432 21.861 57.2776C27.3501 52.2659 32.8551 47.1904 38.3442 42.1786C43.0696 47.079 47.795 51.9636 52.5204 56.864C57.1822 52.5522 61.8599 48.2564 66.5216 43.9447C63.4509 41.0013 60.3802 38.0419 57.3572 35.0985C59.7279 33.3801 62.6236 31.5663 66.1557 29.9117C69.3537 28.3843 72.3608 27.3183 74.9542 26.5546C66.7921 27.0319 60.412 28.3206 56.2117 29.3866C51.5976 30.564 48.9406 31.63 36.6418 35.5758C32.2028 36.9918 28.5434 38.1055 26.2363 38.8852C29.7207 36.3554 32.7915 34.5257 35.0348 33.2847C41.7172 29.6253 47.62 27.5569 51.9954 26.0295C53.7137 25.4408 55.1297 24.9635 56.0685 24.6771C59.6801 20.7313 63.2759 16.7696 66.8876 12.8238C62.3372 8.92577 57.6754 5.09135 53.0614 1.20919C48.2723 6.10962 43.4356 11.0578 38.6465 15.9582C33.3961 10.6123 28.0661 5.31409 22.752 0C17.7879 4.24809 12.8238 8.49618 7.79613 12.7443C10.6282 15.6877 13.5239 18.6471 16.3719 21.5905C12.6488 24.4862 8.68711 27.9547 4.72541 32.0914C3.00708 33.8575 1.47967 35.5758 0 37.2782C7.79613 32.9187 16.8492 28.3683 27.0637 24.1839C36.2758 20.4131 44.963 17.5174 52.8864 15.3377C45.5039 18.4561 36.8168 22.8315 27.716 28.8457C20.2063 33.7938 13.9535 38.8693 8.79848 43.5947Z" fill="#20232D"/>
<path d="M75.0021 26.5387C68.5902 26.825 63.3397 27.7001 59.4894 28.5275C54.2071 29.673 49.5453 31.1686 47.302 31.8846C45.1541 32.5846 45.4404 32.5528 39.5217 34.5416C34.9714 36.069 32.6962 36.8168 30.5323 37.5169C27.5412 38.4874 26.3002 38.8215 26.3161 38.8693C26.332 38.9488 30.946 37.6123 36.5465 36.5782C40.1582 35.9099 43.1652 35.5758 45.1859 35.3849C51.0727 33.4597 56.9596 31.5186 62.8465 29.5935C58.7734 31.4073 54.6844 33.2051 50.6113 35.0189C52.8865 35.0507 55.1458 35.0667 57.421 35.0985C60.0781 33.3165 63.2602 31.4391 66.9832 29.7207C69.8153 28.3843 72.52 27.3501 75.0021 26.5387Z" fill="#E8A30A"/>
<path d="M52.5361 56.864C47.8107 51.9636 43.0853 47.0791 38.3599 42.1786C42.783 45.9812 47.1902 49.7838 51.6133 53.5864C53.7135 52.6795 56.0682 51.5022 58.5343 49.9907C61.796 47.97 64.4689 45.854 66.5532 43.9447C61.8755 48.2564 57.2138 52.5522 52.5361 56.864Z" fill="#E8A30A"/>
<path opacity="0.83" d="M16.3719 21.5905C13.6512 23.627 10.6918 26.0772 7.65293 28.9889C4.66176 31.8527 2.132 34.6689 0 37.2782C5.82323 34.0802 12.1556 30.8822 18.9812 27.8115C31.0731 22.386 42.5127 18.3607 52.8864 15.3218C46.5063 16.4196 41.2081 17.6606 37.31 18.663C31.1845 20.2381 27.2228 21.2882 22.211 23.452C17.1037 25.6477 13.1739 28.0501 10.5486 29.8003C12.5215 27.6365 15.2581 25.1544 18.9494 23.0861C20.0154 22.4974 21.0495 21.9883 22.0519 21.5587C20.1745 21.5746 18.2652 21.5905 16.3719 21.5905Z" fill="#E8A30A"/>
<path d="M22.7517 0C28.0658 5.31409 33.3958 10.6123 38.7099 15.9264C33.714 11.726 28.7022 7.52565 23.7064 3.32529C21.4789 4.37538 19.1241 5.58457 16.6739 6.98469C13.3487 8.89395 10.4052 10.8509 7.7959 12.7443C12.7918 8.49618 17.7718 4.24809 22.7517 0Z" fill="#E8A30A"/>
</g>
<path d="M91.3866 11.2518V14.3035H87.2436V26.8886H83.4346V14.3035H79.2915V11.2518H91.3866Z" fill="#20232D"/>
<path d="M106.708 11.2518L101.295 21.7209V26.8886H97.4859V21.7209L92.0731 11.2518H96.3944L99.4238 17.8006L102.431 11.2518H106.708Z" fill="#20232D"/>
<path d="M120.159 16.2859C120.159 17.1918 119.951 18.0233 119.536 18.7807C119.12 19.5232 118.481 20.1246 117.62 20.5849C116.759 21.0453 115.689 21.2754 114.412 21.2754H112.051V26.8886H108.242V11.2518H114.412C115.66 11.2518 116.714 11.4672 117.575 11.8978C118.437 12.3285 119.083 12.9224 119.513 13.6798C119.944 14.4371 120.159 15.3058 120.159 16.2859ZM114.123 18.2461C114.85 18.2461 115.392 18.0753 115.749 17.7338C116.105 17.3922 116.283 16.9096 116.283 16.2859C116.283 15.6622 116.105 15.1796 115.749 14.8381C115.392 14.4965 114.85 14.3257 114.123 14.3257H112.051V18.2461H114.123Z" fill="#20232D"/>
<path d="M125.951 14.3035V17.4665H131.052V20.4067H125.951V23.837H131.72V26.8886H122.142V11.2518H131.72V14.3035H125.951Z" fill="#20232D"/>
<path d="M143.771 17.4887V20.6517H133.97V17.4887H143.771Z" fill="#20232D"/>
<path d="M156.699 26.8886L153.514 22.0996L150.708 26.8886H146.386L151.398 18.9366L146.275 11.2518H150.708L153.848 15.9741L156.61 11.2518H160.932L155.964 19.1371L161.132 26.8886H156.699Z" fill="#E8A30A"/>
<path d="M88.9584 30.4113V31.7032H82.0978V37.5169H87.8892V38.8088H82.0978V45.9812H80.5386V30.4113H88.9584Z" fill="#20232D"/>
<path d="M93.0829 30.4113V45.9812H91.5236V30.4113H93.0829Z" fill="#20232D"/>
<path d="M108.352 45.9812H106.793L98.173 32.8837V45.9812H96.6137V30.4113H98.173L106.793 43.4865V30.4113H108.352V45.9812Z" fill="#20232D"/>
<path d="M120.905 42.2836H113.822L112.463 45.9812H110.815L116.495 30.6117H118.255L123.912 45.9812H122.264L120.905 42.2836ZM120.438 40.9917L117.364 32.5719L114.29 40.9917H120.438Z" fill="#20232D"/>
<path d="M138.154 45.9812H136.594L127.974 32.8837V45.9812H126.415V30.4113H127.974L136.594 43.4865V30.4113H138.154V45.9812Z" fill="#20232D"/>
<path d="M140.972 38.1851C140.972 36.6556 141.306 35.2894 141.975 34.0866C142.643 32.8689 143.556 31.9259 144.714 31.2577C145.873 30.5746 147.165 30.2331 148.59 30.2331C150.328 30.2331 151.813 30.6489 153.045 31.4804C154.293 32.2972 155.198 33.4555 155.763 34.9553H153.936C153.491 33.901 152.808 33.0768 151.887 32.4828C150.981 31.8888 149.882 31.5918 148.59 31.5918C147.447 31.5918 146.415 31.8591 145.494 32.3937C144.588 32.9283 143.875 33.7005 143.356 34.7103C142.836 35.7052 142.576 36.8635 142.576 38.1851C142.576 39.5067 142.836 40.665 143.356 41.66C143.875 42.6549 144.588 43.4197 145.494 43.9542C146.415 44.4888 147.447 44.7561 148.59 44.7561C149.882 44.7561 150.981 44.4666 151.887 43.8874C152.808 43.2934 153.491 42.4767 153.936 41.4372H155.763C155.198 42.9222 154.293 44.073 153.045 44.8898C151.798 45.7065 150.313 46.1149 148.59 46.1149C147.165 46.1149 145.873 45.7808 144.714 45.1125C143.556 44.4294 142.643 43.4865 141.975 42.2836C141.306 41.0808 140.972 39.7146 140.972 38.1851Z" fill="#20232D"/>
<path d="M160.429 31.6809V37.4946H166.332V38.7865H160.429V44.6893H167V45.9812H158.87V30.389H167V31.6809H160.429Z" fill="#20232D"/>
<defs>
<clipPath id="clip0">
<rect width="75.0019" height="57.2777" fill="white"/>
</clipPath>
</defs>
</svg>
