<svg width="379" height="620" viewBox="0 0 379 620" fill="none" xmlns="http://www.w3.org/2000/svg">
<g clip-path="url(#clip0)">
<path opacity="0.4" d="M31.0226 393.788L202.18 492.56L300.894 549.543L298.701 550.798L199.987 493.815L28.8599 395.042H28.8447L31.0226 393.788Z" fill="#D6D8E5"/>
<path opacity="0.4" d="M39.4313 318.994L41.6243 320.249L140.353 263.281L178.42 241.298L277.149 184.315L274.971 183.045L176.227 240.028L138.145 262.011L39.4313 318.994Z" fill="#D6D8E5"/>
<path opacity="0.4" d="M231.112 269.177L315.594 220.419C319.526 218.151 319.042 214.175 314.49 211.559L232.216 164.07C227.679 161.455 220.812 161.167 216.865 163.435L132.383 212.194C128.451 214.462 128.95 218.438 133.487 221.054L215.761 268.603C220.313 271.158 227.18 271.445 231.112 269.177Z" fill="#D6D8E5"/>
<path d="M123.687 206.615L127.83 207.885L210.8 160.003C214.732 157.735 221.614 158.008 226.151 160.638L308.425 208.127L308.622 208.263L312.13 207.159V212.602C312.153 212.803 312.153 213.006 312.13 213.207V213.66C311.988 214.38 311.68 215.056 311.231 215.636C310.782 216.215 310.205 216.683 309.544 217.002L225.062 265.76C221.13 268.028 214.248 267.741 209.711 265.125L127.437 217.637C126.478 217.207 125.638 216.55 124.99 215.723C124.342 214.896 123.905 213.923 123.717 212.889L123.687 206.615Z" fill="#D5D6E0"/>
<path d="M127.407 211.861L176.227 240.043L178.42 241.298L209.696 259.35C214.233 261.965 221.1 262.253 225.047 259.985L309.529 211.226C313.461 208.943 312.962 204.997 308.425 202.367L277.149 184.315L274.971 183.045L226.151 154.893C221.614 152.247 214.733 151.975 210.8 154.243L126.318 203.002C122.386 205.269 122.87 209.246 127.407 211.861Z" fill="#E9EAF4"/>
<path opacity="0.05" d="M223.217 239.635C192.822 239.635 168.181 225.413 168.181 207.87C168.181 190.327 192.822 176.105 223.217 176.105C253.613 176.105 278.253 190.327 278.253 207.87C278.253 225.413 253.613 239.635 223.217 239.635Z" fill="black"/>
<path d="M164.37 204.362V190.166L166.639 195.246C169.164 190.347 173.777 185.736 180.477 181.865C201.983 169.453 236.829 169.453 258.32 181.865C263.849 184.8 268.484 189.172 271.735 194.52L274.442 190.952V204.423C274.442 212.527 269.043 220.63 258.32 226.814C236.829 239.211 201.983 239.211 180.477 226.814C169.769 220.645 164.4 212.542 164.37 204.438V204.362Z" fill="#DD990E"/>
<path d="M219.406 222.49C189.01 222.49 164.37 208.268 164.37 190.725C164.37 173.182 189.01 158.96 219.406 158.96C249.801 158.96 274.442 173.182 274.442 190.725C274.442 208.268 249.801 222.49 219.406 222.49Z" fill="#F9CB07"/>
<path d="M180.068 192.086C180.598 197.453 184.424 202.669 191.517 206.812C206.913 215.686 231.868 215.686 247.249 206.812C254.342 202.729 258.183 197.453 258.713 192.086C259.363 185.826 255.537 179.431 247.249 174.638C231.868 165.764 206.913 165.764 191.517 174.638C183.26 179.401 179.433 185.826 180.068 192.086Z" fill="#CC8B09"/>
<path d="M180.069 192.086C180.598 197.453 184.424 202.669 191.517 206.812C206.914 215.686 231.868 215.686 247.249 206.812C254.342 202.729 258.184 197.453 258.713 192.086C258.184 186.734 254.342 181.502 247.249 177.375C231.868 168.485 206.914 168.485 191.517 177.375C184.455 181.457 180.628 186.734 180.069 192.086Z" fill="#E8A30A"/>
<path d="M204.01 196.803C203.033 196.194 202.094 195.528 201.197 194.807C200.5 194.24 199.876 193.59 199.336 192.872C198.889 192.314 198.601 191.645 198.505 190.937C198.462 190.26 198.649 189.589 199.034 189.032C199.564 188.262 200.237 187.6 201.015 187.081C202.654 185.894 204.581 185.169 206.596 184.98C208.627 184.865 210.66 185.169 212.57 185.872C211.561 184.017 212.469 182.41 215.292 181.049C216.318 180.556 217.415 180.23 218.544 180.081C219.687 179.908 220.849 179.908 221.992 180.081C223.149 180.263 224.288 180.547 225.395 180.928C226.586 181.368 227.752 181.872 228.888 182.44L233.668 179.688L233.259 179.522H233.94L234.303 179.31L234.666 179.522H237.539V181.23L232.276 184.254L234.847 185.766L240.156 182.742L241.003 183.226L243.589 182.954V184.647L238.175 187.777C238.628 188.064 239.324 188.457 240.231 188.986L242.137 190.075L244.769 189.984V191.693L241.245 193.719L238.855 192.343C238.352 192.039 237.785 191.857 237.199 191.813C236.614 191.768 236.025 191.861 235.482 192.086L229.312 195.639L228.949 195.457L229.297 195.654L220.646 200.643C220.056 201.127 220.086 201.565 220.767 201.973L223.187 201.671V203.38L219.92 206.025L215.625 203.546L214.43 202.866L213.25 202.215L207.775 205.375L204.463 203.455V201.762L205.976 202.608L209.923 200.341L207.276 198.829L201.877 201.943L198.565 200.038V198.33H201.59L204.01 196.803ZM222.642 190.755L223.64 191.33L224.397 191.753L230.991 187.943L230.159 187.444L229.009 186.764C228.707 186.582 228.283 186.356 227.709 186.068C227.134 185.781 226.65 185.569 226.196 185.403C225.702 185.217 225.197 185.061 224.684 184.934C224.151 184.789 223.603 184.703 223.051 184.677C222.543 184.673 222.035 184.724 221.538 184.829C221.006 184.93 220.495 185.119 220.026 185.388C219.675 185.576 219.366 185.833 219.118 186.144C219.024 186.253 218.954 186.381 218.912 186.519C218.87 186.657 218.858 186.802 218.876 186.945C218.907 187.221 218.979 187.491 219.088 187.747C219.242 188.068 219.464 188.351 219.738 188.578C220.061 188.88 220.348 189.138 220.601 189.349C220.939 189.627 221.298 189.88 221.674 190.105L222.642 190.755ZM207.186 192.842C207.346 193.141 207.533 193.424 207.745 193.688C208.021 193.997 208.319 194.286 208.638 194.55C209.011 194.863 209.358 195.135 209.681 195.367L210.861 196.138L211.965 196.818L213.008 197.408C213.432 197.634 213.704 197.786 213.81 197.861L221.085 193.658L220.086 193.053L218.71 192.252C218.362 192.04 217.848 191.768 217.198 191.42C216.547 191.073 215.927 190.816 215.413 190.619C214.899 190.423 214.294 190.226 213.613 190.03C212.991 189.856 212.352 189.744 211.708 189.697C211.115 189.671 210.522 189.711 209.938 189.818C209.336 189.914 208.757 190.119 208.229 190.423C207.882 190.61 207.578 190.867 207.337 191.179C207.157 191.406 207.042 191.677 207.004 191.965C206.962 192.289 207.025 192.617 207.186 192.902V192.842Z" fill="#CC8B09"/>
<path d="M206.596 183.286C208.628 183.157 210.664 183.461 212.57 184.178C211.561 182.324 212.469 180.711 215.292 179.34C216.319 178.853 217.416 178.531 218.544 178.388C219.687 178.222 220.849 178.222 221.992 178.388C223.147 178.577 224.285 178.86 225.395 179.235C226.586 179.674 227.752 180.179 228.888 180.746L234.303 177.632L237.539 179.522L232.276 182.546L234.847 184.058L240.156 181.034L243.589 182.954L238.175 186.068C238.628 186.356 239.324 186.764 240.231 187.293L244.769 189.909L241.245 191.95L238.855 190.574C238.355 190.264 237.788 190.078 237.202 190.03C236.615 189.983 236.026 190.076 235.482 190.302L229.312 193.87C229.201 193.791 229.078 193.73 228.949 193.688L229.297 193.885L220.646 198.874C220.041 199.358 220.086 199.811 220.797 200.22L223.187 201.596L219.92 204.256L215.625 201.777L214.43 201.097L213.25 200.431L207.775 203.591L204.463 201.686L209.878 198.557C209.258 198.224 208.365 197.725 207.231 197.045L201.832 200.159L198.52 198.239L204.01 195.079C203.033 194.47 202.094 193.804 201.197 193.084C200.493 192.524 199.868 191.873 199.336 191.148C198.889 190.596 198.602 189.932 198.505 189.228C198.462 188.552 198.649 187.881 199.034 187.323C199.559 186.545 200.232 185.877 201.015 185.358C202.653 184.174 204.582 183.458 206.596 183.286ZM230.991 186.31L230.159 185.811L229.009 185.131C228.707 184.95 228.283 184.723 227.709 184.451C227.218 184.2 226.713 183.978 226.196 183.785C225.702 183.594 225.197 183.432 224.684 183.302C224.15 183.162 223.602 183.08 223.051 183.06C222.543 183.05 222.036 183.096 221.538 183.196C221.006 183.302 220.495 183.496 220.026 183.77C219.676 183.953 219.368 184.205 219.118 184.511C219.025 184.624 218.956 184.754 218.914 184.895C218.873 185.035 218.86 185.182 218.876 185.328C218.908 185.599 218.979 185.864 219.088 186.114C219.242 186.435 219.464 186.719 219.738 186.945L220.601 187.731C220.944 187.999 221.302 188.246 221.674 188.472L222.703 189.122C222.93 189.274 223.262 189.455 223.701 189.697L224.457 190.12L231.051 186.31H230.991ZM207.291 189.531C207.112 189.764 206.997 190.04 206.959 190.332C206.942 190.634 207.015 190.934 207.171 191.194C207.33 191.493 207.518 191.776 207.73 192.04C208.006 192.35 208.304 192.638 208.622 192.902C208.995 193.215 209.343 193.487 209.666 193.719C209.989 193.95 210.382 194.207 210.846 194.49C211.314 194.792 211.677 195.019 211.95 195.17L212.993 195.76L213.795 196.213L221.069 192.025L220.071 191.42L218.695 190.604C218.342 190.392 217.838 190.12 217.183 189.788C216.502 189.44 215.912 189.183 215.398 188.971C214.808 188.749 214.208 188.557 213.598 188.397C212.977 188.215 212.338 188.104 211.693 188.064C211.101 188.025 210.506 188.061 209.923 188.17C209.323 188.273 208.745 188.477 208.214 188.775C207.859 188.963 207.546 189.22 207.291 189.531Z" fill="#F9CA06"/>
<path d="M273.837 184.451V170.33L271.568 175.409C269.043 170.511 264.43 165.885 257.73 162.029C236.224 149.617 201.378 149.617 179.887 162.029C174.362 164.956 169.728 169.317 166.472 174.654L163.765 171.01V184.496C163.765 192.6 169.164 200.688 179.887 206.872C201.378 219.285 236.224 219.285 257.73 206.872C268.438 200.688 273.807 192.6 273.837 184.496V184.451Z" fill="#DD990E"/>
<path d="M218.801 202.578C249.197 202.578 273.837 188.357 273.837 170.813C273.837 153.27 249.197 139.048 218.801 139.048C188.406 139.048 163.765 153.27 163.765 170.813C163.765 188.357 188.406 202.578 218.801 202.578Z" fill="#F9CB07"/>
<path d="M258.108 172.174C257.579 177.526 253.753 182.757 246.659 186.9C231.263 195.775 206.309 195.775 190.928 186.9C183.835 182.803 179.993 177.526 179.464 172.174C178.814 165.915 182.64 159.504 190.928 154.727C206.309 145.837 231.263 145.837 246.659 154.727C254.947 159.504 258.774 165.915 258.108 172.174Z" fill="#CC8B09"/>
<path d="M258.108 172.174C257.579 177.526 253.753 182.757 246.659 186.9C231.263 195.775 206.309 195.775 190.928 186.9C183.835 182.803 179.993 177.526 179.464 172.174C179.993 166.822 183.835 161.591 190.928 157.463C206.309 148.573 231.263 148.573 246.659 157.463C253.753 161.545 257.534 166.822 258.108 172.174Z" fill="#E8A30A"/>
<path d="M234.197 176.876C235.17 176.267 236.109 175.606 237.01 174.895C237.707 174.328 238.331 173.678 238.871 172.96C239.316 172.401 239.603 171.733 239.702 171.025C239.745 170.349 239.558 169.678 239.173 169.12C238.651 168.343 237.977 167.68 237.192 167.17C235.558 165.974 233.628 165.247 231.611 165.068C229.554 164.935 227.493 165.239 225.562 165.96C226.57 164.095 225.662 162.488 222.839 161.137C221.813 160.645 220.716 160.318 219.588 160.17C218.445 159.996 217.282 159.996 216.139 160.17C214.983 160.347 213.844 160.625 212.737 161.001C211.543 161.435 210.376 161.94 209.243 162.513L204.6 159.746L205.008 159.595H204.328L203.965 159.383L203.602 159.595H200.577V161.258L205.84 164.282L203.269 165.794L197.961 162.77L197.114 163.269L194.648 162.982V164.69L200.063 167.865L198.006 169.075L196.1 170.163L193.423 169.997V171.69L197.038 173.731L199.428 172.355C199.928 172.045 200.495 171.859 201.082 171.814C201.67 171.769 202.259 171.867 202.8 172.098L208.971 175.651L209.334 175.47L208.986 175.667L217.637 180.656C218.227 181.124 218.196 181.578 217.516 181.971L215.096 181.684V183.377L218.363 186.038L222.658 183.559L223.853 182.878L225.032 182.213L230.507 185.388L233.819 183.468V181.775L232.307 182.621L228.36 180.338C228.98 180.006 229.872 179.507 231.006 178.826L236.405 181.941L239.718 180.036V178.343H236.693L234.197 176.876ZM215.565 170.828C215.333 170.98 215 171.176 214.567 171.418L213.81 171.826L207.216 168.016C207.322 168.016 207.594 167.805 208.048 167.533L209.198 166.837C209.5 166.656 209.924 166.429 210.498 166.157C211.073 165.885 211.557 165.658 212.011 165.491C212.464 165.325 212.948 165.174 213.523 165.008C214.057 164.869 214.605 164.788 215.156 164.766C215.664 164.756 216.171 164.802 216.669 164.902C217.199 165.015 217.709 165.209 218.181 165.476C218.531 165.659 218.839 165.911 219.089 166.217C219.182 166.33 219.251 166.46 219.293 166.601C219.334 166.741 219.347 166.888 219.331 167.034C219.297 167.309 219.226 167.579 219.119 167.835C218.961 168.154 218.74 168.437 218.469 168.666C218.156 168.969 217.869 169.226 217.606 169.438C217.264 169.711 216.905 169.963 216.533 170.193C216.155 170.541 215.807 170.753 215.565 170.889V170.828ZM231.021 172.915C230.865 173.216 230.677 173.5 230.462 173.762C230.186 174.071 229.888 174.359 229.569 174.623C229.236 174.913 228.888 175.186 228.526 175.44L227.346 176.226L226.242 176.891L225.199 177.481L224.397 177.934L217.122 173.746L218.121 173.142L219.497 172.325L221.009 171.509C221.69 171.176 222.28 170.904 222.794 170.708C223.308 170.511 223.913 170.314 224.594 170.118C225.216 169.944 225.855 169.833 226.499 169.785C227.096 169.754 227.695 169.79 228.284 169.891C228.881 169.995 229.455 170.205 229.978 170.511C230.323 170.693 230.627 170.946 230.87 171.252C231.048 171.486 231.162 171.762 231.203 172.053C231.242 172.372 231.178 172.695 231.021 172.975V172.915Z" fill="#CC8B09"/>
<path d="M231.611 163.36C229.555 163.235 227.495 163.539 225.562 164.252C226.57 162.387 225.662 160.779 222.839 159.429C221.814 158.936 220.716 158.61 219.588 158.461C218.444 158.295 217.283 158.295 216.139 158.461C214.983 158.643 213.844 158.927 212.737 159.308C211.545 159.747 210.379 160.252 209.243 160.82L203.829 157.69L200.516 159.61L205.78 162.634L203.209 164.146L197.9 161.122L194.588 163.027L200.063 166.157C199.609 166.444 198.913 166.852 198.006 167.381L193.469 169.997L197.038 172.023L199.428 170.647C199.93 170.343 200.497 170.162 201.083 170.117C201.669 170.072 202.257 170.166 202.8 170.39L208.971 173.958C209.085 173.881 209.207 173.816 209.334 173.762L208.986 173.958L217.637 178.947C218.242 179.446 218.196 179.885 217.486 180.308L215.096 181.684L218.363 184.345L222.658 181.85L223.853 181.185L225.032 180.52L230.507 183.68L233.819 181.775L228.405 178.645L231.052 177.133L236.451 180.248L239.763 178.343L234.273 175.183C235.25 174.574 236.189 173.907 237.086 173.187C237.786 172.623 238.411 171.973 238.946 171.252C239.394 170.694 239.681 170.025 239.778 169.317C239.82 168.64 239.634 167.969 239.249 167.412C238.718 166.642 238.046 165.98 237.268 165.461C235.608 164.26 233.653 163.533 231.611 163.36ZM207.216 166.383L208.048 165.885L209.198 165.204C209.5 165.023 209.924 164.796 210.498 164.509C211.073 164.221 211.557 164.01 212.011 163.844C212.505 163.658 213.01 163.501 213.523 163.375C214.057 163.232 214.604 163.146 215.156 163.118C215.664 163.121 216.171 163.171 216.669 163.269C217.201 163.375 217.712 163.57 218.181 163.844C218.534 164.022 218.844 164.274 219.089 164.584C219.184 164.696 219.255 164.826 219.297 164.967C219.338 165.107 219.35 165.255 219.331 165.401C219.298 165.671 219.226 165.936 219.119 166.187C218.965 166.508 218.743 166.792 218.469 167.018C218.156 167.321 217.869 167.578 217.606 167.79C217.268 168.068 216.909 168.32 216.533 168.545L215.504 169.196L214.506 169.77L213.75 170.193L207.156 166.383H207.216ZM230.9 169.619C231.083 169.85 231.198 170.128 231.233 170.42C231.25 170.722 231.177 171.022 231.021 171.282C230.862 171.581 230.674 171.864 230.462 172.129C230.186 172.438 229.888 172.726 229.57 172.99C229.196 173.303 228.849 173.575 228.526 173.807C228.208 174.019 227.815 174.291 227.346 174.578L226.242 175.258L225.199 175.848C224.775 176.075 224.503 176.226 224.397 176.302L217.123 172.098C217.244 172.098 217.576 171.841 218.121 171.494L219.497 170.692C219.845 170.481 220.359 170.209 221.009 169.861C221.66 169.513 222.28 169.256 222.794 169.06C223.384 168.837 223.984 168.645 224.594 168.485C225.216 168.307 225.854 168.19 226.499 168.137C227.097 168.112 227.695 168.152 228.284 168.258C228.88 168.357 229.454 168.561 229.978 168.863C230.336 169.047 230.65 169.304 230.9 169.619Z" fill="#F9CA06"/>
<path opacity="0.3" d="M-14.8033 461.248L144.905 366.876C145.417 366.576 145.84 366.147 146.135 365.633C146.43 365.118 146.584 364.536 146.584 363.943C146.584 363.35 146.43 362.768 146.135 362.253C145.84 361.739 145.417 361.31 144.905 361.01L57.8823 310.936C57.3604 310.635 56.7683 310.476 56.1657 310.476C55.5631 310.476 54.971 310.635 54.4492 310.936L-105.244 405.278C-105.759 405.577 -106.186 406.006 -106.483 406.522C-106.78 407.038 -106.936 407.623 -106.936 408.219C-106.936 408.814 -106.78 409.399 -106.483 409.915C-106.186 410.431 -105.759 410.86 -105.244 411.159L-18.2666 461.324C-17.7355 461.622 -17.1338 461.773 -16.5246 461.76C-15.9154 461.746 -15.3209 461.57 -14.8033 461.248Z" fill="#D6D8E5"/>
<path d="M-48.136 141.604V297.555C-48.136 301.698 -46.6236 304.45 -44.2189 305.266L82.5799 378.155L85.1813 379.666L88.8412 361.116L101.424 297.117L123.944 182.984L-5.56219 108.554C-7.22581 107.253 -9.53976 107.178 -12.0957 108.644L-39.0919 124.232C-42.0962 126.193 -44.4617 128.988 -45.8976 132.275C-47.3221 135.182 -48.0864 138.367 -48.136 141.604Z" fill="#E9EAF4"/>
<path d="M-48.136 141.604V297.555C-48.136 301.698 -46.6236 304.45 -44.2189 305.266L82.58 378.155C82.9127 377.278 85.514 370.232 88.8413 361.1C95.647 342.429 105.478 315.033 105.16 314.232C105.024 313.96 103.572 307.141 101.47 297.057C95.0572 266.274 82.5497 204.831 82.5497 204.831L-45.8523 132.154C-47.3099 135.094 -48.0902 138.323 -48.136 141.604Z" fill="url(#paint0_linear)"/>
<path d="M88.917 197.816L115.913 182.243C116.759 181.635 117.755 181.267 118.793 181.179C119.832 181.091 120.875 181.286 121.811 181.744L124.383 183.15L123.808 183.816C124.661 185.456 125.078 187.289 125.018 189.138V345.044C125.018 351.757 120.934 359.543 115.943 362.446L88.9472 378.019C83.911 380.921 79.8729 377.837 79.8729 371.139V215.218C79.7973 208.505 83.8807 200.719 88.917 197.816Z" fill="white"/>
<path d="M91.6541 379.53L118.65 363.943C123.687 361.04 127.725 353.254 127.725 346.556V190.619C127.725 183.921 123.656 180.837 118.65 183.74L91.6541 199.313C86.6329 202.215 82.5797 210.017 82.5797 216.714V372.636C82.5495 379.349 86.6329 382.433 91.6541 379.53Z" fill="#DFE0EA"/>
<path d="M94.6335 224.289V351.122C94.6335 354.811 96.3576 356.958 98.8077 356.792C99.63 356.713 100.425 356.455 101.137 356.036L109.168 351.394C112.767 349.323 115.671 343.835 115.671 338.966V212.149C115.671 207.356 112.767 205.164 109.168 207.235L108.789 207.462L101.137 211.876C97.5524 213.948 94.6335 219.496 94.6335 224.289Z" fill="#6740E2"/>
<path d="M94.6336 224.289V351.122C94.6336 354.811 96.3577 356.958 98.8078 356.792L106.37 352.392C109.954 350.321 112.873 344.832 112.873 339.979V213.146C112.873 209.473 111.134 207.31 108.729 207.462L101.076 211.876C97.5525 213.948 94.6336 219.496 94.6336 224.289Z" fill="#8C50FF"/>
<path d="M-107.482 176.271V332.208C-107.482 336.366 -105.97 339.102 -103.55 339.934L23.2489 412.807L25.8351 414.319L29.5254 395.783L42.1236 331.785L64.6431 217.652L29.4044 197.392L28.013 196.591L22.6591 193.567L-20.0206 169.044L-20.807 168.591L-23.4083 167.079L-64.9386 143.206C-66.5871 141.906 -68.901 141.83 -71.457 143.297L-98.4532 158.885C-101.459 160.854 -103.828 163.654 -105.274 166.943C-106.683 169.854 -107.437 173.038 -107.482 176.271Z" fill="#E9EAF4"/>
<path d="M-107.482 176.271V332.208C-107.482 336.351 -105.97 339.102 -103.55 339.919L23.2489 412.807C23.5816 411.93 26.1829 404.885 29.5102 395.753C36.316 377.081 46.1465 349.686 45.8289 348.884C45.6928 348.627 44.2409 341.809 42.1387 331.709C35.7261 300.927 23.2187 239.484 23.2187 239.484L-105.198 166.822C-106.653 169.763 -107.433 172.991 -107.482 176.271Z" fill="url(#paint1_linear)"/>
<path d="M29.5708 232.468L56.567 216.896C57.4187 216.293 58.4161 215.929 59.4558 215.842C60.4955 215.754 61.5398 215.946 62.4804 216.397L65.0364 217.803L64.4768 218.468C65.3301 220.109 65.7467 221.942 65.6867 223.79V379.697C65.6867 386.41 61.6032 394.196 56.6124 397.099L29.6162 412.686C24.595 415.589 20.5418 412.505 20.5418 405.792V249.87C20.4662 243.158 24.5497 235.341 29.5708 232.468Z" fill="white"/>
<path d="M23.2336 251.367V407.304C23.2336 414.002 27.2868 417.086 32.3079 414.168L47.7041 405.293L50.4869 403.69L59.3343 398.626C64.3404 395.738 68.4087 387.952 68.4087 381.224V225.287C68.4087 218.559 64.3101 215.505 59.3343 218.393L32.3382 233.965C27.317 236.853 23.2336 244.654 23.2336 251.367Z" fill="#DFE0EA"/>
<path d="M35.3025 258.957V385.775C35.3025 389.464 37.0266 391.61 39.4767 391.444C40.3004 391.372 41.0969 391.114 41.8058 390.688L49.8366 386.047C53.436 383.975 56.3398 378.412 56.3398 373.619V246.801C56.3398 242.009 53.436 239.816 49.8366 241.888L49.4433 242.114L41.8814 246.529C38.2063 248.6 35.3025 254.164 35.3025 258.957Z" fill="#6740E2"/>
<path d="M35.3026 258.957V385.775C35.3026 389.464 37.0267 391.61 39.4767 391.444L47.0387 387.045C50.6382 384.973 53.5571 379.485 53.5571 374.632V247.814C53.5571 244.125 51.8179 241.963 49.3981 242.114L41.8361 246.529C38.2064 248.6 35.3026 254.164 35.3026 258.957Z" fill="#8C50FF"/>
<path d="M-169.823 212.33V368.252C-169.823 372.394 -168.311 375.146 -165.906 375.977L-39.1071 448.851L-36.5057 450.363L-32.8306 431.887L-20.2173 367.889L2.30225 253.756L-127.204 179.325C-128.852 178.025 -131.166 177.949 -133.722 179.416L-160.718 195.004C-163.732 196.965 -166.103 199.767 -167.539 203.062C-168.974 205.945 -169.754 209.11 -169.823 212.33Z" fill="#E9EAF4"/>
<path d="M-32.7702 268.512L-5.77407 252.939C-4.92236 252.337 -3.925 251.973 -2.88529 251.885C-1.84557 251.797 -0.801307 251.989 0.139378 252.441L2.69532 253.847L2.12061 254.512C2.98239 256.15 3.39957 257.984 3.33052 259.834V415.755C3.33052 422.453 -0.752931 430.239 -5.74382 433.142L-32.74 448.73C-37.7762 451.633 -41.8143 448.548 -41.8143 441.836V285.914C-41.8748 279.186 -37.8065 271.415 -32.7702 268.512Z" fill="white"/>
<path d="M-30.0324 450.227L-3.03625 434.639C2 431.736 6.03809 423.95 6.03809 417.252V261.315C6.03809 254.618 1.95463 251.533 -3.03625 254.436L-30.0324 270.024C-35.0536 272.927 -39.1068 280.713 -39.1068 287.411V443.347C-39.137 450.03 -35.0536 453.129 -30.0324 450.227Z" fill="#DFE0EA"/>
<path d="M48.6497 93.752C48.6497 62.1081 26.4176 23.6001 -1.01715 7.77059C-14.6287 -0.0912638 -26.9849 -0.877449 -35.9534 4.20252H-36.0592L-36.2407 4.30835C-37.6624 5.13989 -48.5213 11.5201 -48.7028 11.6108L-44.6194 12.4575C-49.5347 18.505 -50.6689 25.0364 -50.6689 36.3756C-50.6689 68.0347 -28.4368 106.528 -1.01715 122.357C7.63372 127.346 15.7704 129.493 22.8484 129.085L19.9446 134.074L33.7073 126.046L34.4333 125.638L34.7962 125.426C43.3564 120.119 48.6497 109.188 48.6497 93.752Z" fill="#DD990E"/>
<path d="M22.2244 134.312C41.7068 123.119 41.7777 86.6967 22.3827 52.9605C2.98776 19.2243 -28.5286 0.949565 -48.011 12.1427C-67.4935 23.3358 -67.5644 59.7582 -48.1694 93.4944C-28.7744 127.231 2.74196 145.505 22.2244 134.312Z" fill="#F9CB07"/>
<path d="M21.1093 93.4497C21.1093 116.128 5.19891 125.29 -14.4471 113.966C-15.657 113.256 -16.882 112.454 -18.0768 111.653C-18.1258 111.636 -18.1682 111.605 -18.1978 111.562C-36.0743 99.089 -49.958 73.6136 -49.958 52.4169C-49.958 29.7384 -34.0325 20.5612 -14.4017 31.8853C-12.2905 33.1227 -10.269 34.507 -8.35212 36.0279C8.39005 49 21.1093 73.1903 21.1093 93.4497Z" fill="#CC8B09"/>
<path d="M21.1091 93.4497C21.1091 116.128 5.19876 125.29 -14.4472 113.966C-15.6571 113.255 -16.8821 112.454 -18.0769 111.653C-18.1259 111.636 -18.1683 111.605 -18.1979 111.562C-35.0006 98.6052 -47.7803 74.3696 -47.7803 54.1102C-47.7803 31.4318 -31.8699 22.2545 -12.2391 33.5938C-10.9233 34.3497 -9.62267 35.1812 -8.35226 36.0884C8.3899 49 21.1091 73.1903 21.1091 93.4497Z" fill="#E8A30A"/>
<path d="M2.29512 81.8081C1.13418 79.4815 -0.498569 77.4219 -2.49918 75.7605C0.223124 75.7605 1.4179 73.6892 1.08518 69.7129C0.982914 68.267 0.645817 66.8474 0.0870419 65.5099C-0.480383 64.1459 -1.2447 62.8725 -2.18154 61.7301C-3.11404 60.5454 -4.15175 59.4473 -5.28197 58.4493C-6.49731 57.3938 -7.78056 56.4191 -9.12345 55.5314V47.5788L-13.343 45.1295L-14.8554 46.0215L-13.343 48.244V52.9007C-14.0689 52.4773 -15.1881 51.8423 -16.6854 51.0259V43.2094L-20.9201 40.7601L-22.4325 41.6522L-20.9201 43.164V48.7732L-23.5819 47.2613L-29.3895 43.8746L-30.9019 44.7515L-29.3895 46.5658V49.0604L-26.3647 50.8142C-25.7042 51.1742 -25.1381 51.685 -24.7123 52.305C-24.2866 52.925 -24.0133 53.6368 -23.9146 54.3823V63.4537L-23.476 63.7409L-23.9146 63.4839V76.2141C-24.0658 77.2119 -24.5952 77.4387 -25.5026 76.9095L-28.5274 75.1557L-30.0398 76.0326L-28.8752 77.5445L-29.3441 80.4323L-23.8541 83.5921L-22.3417 84.4841L-20.8293 85.3459V93.4346L-18.349 94.8557L-18.1524 96.7456L-16.64 95.8687V87.9161C-15.8687 88.3848 -14.7646 89.0349 -13.2976 89.8816V97.8342L-10.8929 99.21L-10.6207 101.145L-9.10831 100.268V92.1948C-7.81308 92.8796 -6.48001 93.4904 -5.11558 94.0242C-4.03988 94.4377 -2.9173 94.7169 -1.77321 94.8557C-0.873404 94.9814 0.043623 94.872 0.888607 94.5382C1.65752 94.1456 2.27836 93.5143 2.65808 92.7391C3.16962 91.6563 3.47234 90.4869 3.55038 89.292C3.81517 86.7298 3.38143 84.1438 2.29512 81.8081ZM-14.0387 58.2074C-13.6455 58.4191 -13.1161 58.7517 -12.4507 59.2053C-11.7852 59.6588 -11.2257 60.067 -10.7568 60.4299C-10.2248 60.8623 -9.71977 61.3269 -9.24442 61.8208C-8.73717 62.3117 -8.29497 62.8655 -7.92865 63.4688C-7.58024 64.0405 -7.2962 64.6489 -7.08172 65.2831C-6.85862 65.9456 -6.7462 66.6402 -6.74899 67.3393C-6.7252 67.8545 -6.80757 68.3691 -6.99098 68.8511C-7.05427 69.0258 -7.15268 69.1857 -7.28013 69.3209C-7.40759 69.4561 -7.56136 69.5638 -7.73203 69.6373C-8.05409 69.7787 -8.39577 69.8705 -8.74535 69.9095C-9.19677 69.9418 -9.64995 69.88 -10.0762 69.728C-10.6207 69.5617 -11.0896 69.4106 -11.4828 69.2594C-12.001 69.0595 -12.5061 68.8272 -12.9952 68.5639L-14.3714 67.8382C-14.6739 67.6719 -15.1125 67.43 -15.6418 67.0974L-16.5946 66.5379V56.7711L-15.5057 57.3759L-14.0387 58.2074ZM-5.07021 84.9982C-5.21609 85.341 -5.44473 85.6423 -5.73567 85.8751C-6.06066 86.0832 -6.43866 86.1934 -6.82459 86.1926C-7.2596 86.2136 -7.69563 86.1882 -8.12527 86.117C-8.6403 86.0114 -9.14605 85.8648 -9.63766 85.6785C-10.152 85.4921 -10.6568 85.2802 -11.15 85.0435C-11.6038 84.8319 -12.1331 84.5749 -12.7532 84.2422L-14.2656 83.4561L-15.5965 82.6396L-16.6098 82.05V71.376L-15.294 72.0564C-14.568 72.4495 -13.9782 72.7821 -13.5245 73.0542C-13.0556 73.3112 -12.4356 73.7043 -11.6189 74.2335C-10.8022 74.7627 -10.1065 75.2465 -9.59229 75.7454C-9.07808 76.2443 -8.44287 76.7281 -7.79254 77.3631C-7.23115 77.9396 -6.72482 78.5673 -6.28015 79.2379C-5.8707 79.8802 -5.53099 80.5645 -5.26683 81.2789C-4.99979 82.0054 -4.86161 82.7728 -4.8585 83.5468C-4.83281 84.0398 -4.90474 84.533 -5.07021 84.9982Z" fill="#CC8B09"/>
<path d="M0.737356 82.6396C-0.418655 80.3099 -2.05216 78.2494 -4.05694 76.592C-1.33464 76.592 -0.1348 74.5762 -0.457443 70.5445C-0.573761 69.0992 -0.91564 67.681 -1.47072 66.3414C-2.03051 64.9769 -2.78998 63.7031 -3.72421 62.5617C-4.63961 61.4093 -5.65153 60.3371 -6.74899 59.3564C-7.96974 58.3029 -9.25254 57.3235 -10.5905 56.4234V48.4557L-14.81 46.0215V53.7776L-18.1675 51.9028V44.0863L-22.3871 41.6522V49.635C-22.9921 49.3023 -23.8995 48.8034 -25.0489 48.1231L-30.8716 44.7364V49.9222L-27.8468 51.6911C-27.1887 52.0486 -26.6249 52.557 -26.2016 53.1747C-25.7783 53.7923 -25.5077 54.5015 -25.4119 55.2441V64.3155L-24.9733 64.6027L-25.4119 64.3608V77.0759C-25.548 78.0737 -26.0925 78.3005 -26.9999 77.7864L-30.0247 76.0175L-30.8867 81.3243L-25.3967 84.4993L-23.8843 85.3762L-22.372 86.2531V94.3266L-18.1524 96.7607V88.793C-17.3811 89.2617 -16.2619 89.9118 -14.7949 90.7585V98.7111L-10.5753 101.145V93.0717C-9.28289 93.7621 -7.94949 94.373 -6.5826 94.9011C-5.51207 95.3144 -4.39452 95.5937 -3.25537 95.7326C-2.3558 95.8746 -1.43446 95.7647 -0.593554 95.4151C0.17869 95.027 0.800854 94.3944 1.17596 93.616C1.70528 92.5397 2.00893 91.3667 2.06827 90.1689C2.33286 87.5843 1.87199 84.9771 0.737356 82.6396ZM-18.1524 57.648L-17.0786 58.2679L-15.5662 59.0843C-15.173 59.3111 -14.6436 59.6437 -13.9631 60.0822C-13.2825 60.5206 -12.7381 60.9439 -12.2843 61.3068C-11.7562 61.749 -11.2514 62.2183 -10.772 62.7129C-10.2775 63.2097 -9.83656 63.757 -9.45618 64.3457C-9.113 64.918 -8.83402 65.5265 -8.62434 66.16C-8.39769 66.822 -8.28019 67.5164 -8.27647 68.2162C-8.25916 68.731 -8.34133 69.2443 -8.51846 69.728C-8.65021 70.0811 -8.90912 70.3723 -9.24442 70.5445C-9.57406 70.6791 -9.91973 70.7706 -10.2728 70.8166C-10.7199 70.8348 -11.1664 70.7681 -11.5886 70.6201C-12.1331 70.4689 -12.6019 70.3026 -13.0103 70.1665C-13.4186 70.0304 -13.9177 69.7734 -14.5226 69.471C-15.1276 69.1686 -15.5814 68.9116 -15.8838 68.7302L-17.1694 68.0045L-18.107 67.43V57.648H-18.1524ZM-6.62797 85.8751C-6.76459 86.2232 -6.99491 86.5267 -7.29343 86.752C-7.61179 86.9758 -7.99323 87.0923 -8.38235 87.0846C-8.81789 87.1001 -9.25387 87.0697 -9.68303 86.9939C-10.1982 86.8889 -10.704 86.7422 -11.1954 86.5554C-11.7095 86.3684 -12.2143 86.1565 -12.7078 85.9204C-13.1464 85.7239 -13.6909 85.4518 -14.3109 85.1191C-14.931 84.7865 -15.415 84.5295 -15.8233 84.333L-17.1391 83.5619L-18.1524 82.9571V72.2529L-16.8517 72.9786L-15.0822 73.9613C-14.6285 74.2335 -13.9933 74.6266 -13.1917 75.1558C-12.3902 75.6849 -11.6794 76.1687 -11.1651 76.6676C-10.5369 77.1745 -9.93609 77.7145 -9.3654 78.2854C-8.79906 78.8575 -8.29232 79.4856 -7.85301 80.1601C-7.43769 80.7992 -7.09769 81.4841 -6.83973 82.2012C-6.56091 82.9248 -6.41737 83.6935 -6.41626 84.469C-6.38788 84.9473 -6.45998 85.4263 -6.62797 85.8751Z" fill="#F9CA06"/>
<path opacity="0.4" d="M302.285 616.883L372.793 576.167C380.793 571.556 379.795 563.513 370.554 558.176L334.756 537.508C325.53 532.186 311.556 531.597 303.57 536.223L233.002 576.923C225.002 581.535 226.015 589.593 235.241 594.915L271.084 615.583C280.325 620.874 294.284 621.494 302.285 616.883Z" fill="#D6D8E5"/>
<path d="M196.372 566.098V467.689L346.855 450.756V549.815C346.976 552.839 345.222 555.711 341.501 557.873L270.993 598.559C263.008 603.185 249.034 602.595 239.808 597.273L204.01 576.621C198.807 573.597 196.221 569.757 196.312 566.128L196.372 566.098Z" fill="#D6D8E5"/>
<path d="M196.402 478.439V467.659H207.987L272.324 430.572C280.31 425.961 294.269 426.535 303.51 431.857L339.263 452.51C339.898 452.888 340.503 453.281 341.108 453.719L346.855 450.695V462.428C346.855 465.451 345.191 468.324 341.486 470.456L270.978 511.156C262.993 515.692 249.018 515.193 239.793 509.856L203.995 489.339C198.641 486.316 196.07 482.249 196.433 478.575L196.402 478.439Z" fill="#EDF0F9"/>
<path d="M270.993 499.484L341.501 458.799C349.487 454.173 348.488 446.129 339.263 440.792L303.464 420.14C294.224 414.818 280.264 414.228 272.279 418.84L201.771 459.54C193.771 464.076 194.784 472.21 204.01 477.547L239.808 498.229C249.034 503.566 263.008 504.095 270.993 499.484Z" fill="#E2E5F2"/>
<path d="M234.772 462.549C234.773 463.166 234.939 463.772 235.253 464.303C235.566 464.835 236.017 465.273 236.557 465.572L269.043 484.365C269.569 484.669 270.167 484.829 270.774 484.829C271.382 484.829 271.98 484.669 272.506 484.365L317.878 458.043C318.409 457.737 318.849 457.296 319.154 456.765C319.46 456.234 319.619 455.632 319.617 455.019V454.838L234.772 462.549Z" fill="#E5E5E5"/>
<path d="M236.556 465.633L269.043 484.365C269.583 484.666 270.194 484.817 270.812 484.804V462.549H234.817C234.803 463.172 234.956 463.787 235.263 464.33C235.569 464.873 236.016 465.323 236.556 465.633Z" fill="#E5E5E5"/>
<path d="M269.481 482.551C269.857 482.773 270.285 482.89 270.721 482.89C271.158 482.89 271.586 482.773 271.962 482.551L319.209 455.307C319.375 455.251 319.513 455.134 319.595 454.979C319.676 454.824 319.695 454.643 319.647 454.475C319.618 454.371 319.562 454.275 319.485 454.199C319.408 454.122 319.313 454.066 319.209 454.037L284.424 433.928L234.802 462.549L269.481 482.551Z" fill="#F4F4F4"/>
<path d="M299.805 462.564L299.548 462.7L284.393 471.469L276.075 466.661L275.848 466.525L291.245 457.62L299.805 462.564Z" fill="#BFBFBF"/>
<path d="M299.547 462.7L284.393 471.469L276.075 466.661L291.244 457.907L299.547 462.7Z" fill="#E5E5E5"/>
<path d="M247.93 464.287L245.797 465.633C245.689 465.685 245.57 465.712 245.449 465.712C245.329 465.712 245.21 465.685 245.102 465.633L243.03 464.423C242.803 464.302 242.788 464.136 243.03 464.03L245.208 462.76C245.316 462.708 245.435 462.681 245.555 462.681C245.676 462.681 245.795 462.708 245.903 462.76L247.975 463.97C248.126 464.091 248.126 464.181 247.93 464.287Z" fill="#2B303F"/>
<path d="M251.03 462.549L248.837 463.819C248.729 463.871 248.61 463.898 248.489 463.898C248.369 463.898 248.25 463.871 248.142 463.819L246.054 462.609C245.843 462.488 245.828 462.307 246.054 462.216L248.247 460.946C248.356 460.894 248.475 460.867 248.595 460.867C248.716 460.867 248.835 460.894 248.943 460.946L251.015 462.155C251.151 462.231 251.151 462.397 251.03 462.549Z" fill="#2B303F"/>
<path d="M254.176 460.719L251.983 461.974C251.874 462.034 251.752 462.065 251.628 462.065C251.503 462.065 251.381 462.034 251.272 461.974L249.2 460.78C249.004 460.659 248.973 460.477 249.2 460.387L251.333 459.101C251.439 459.042 251.559 459.011 251.681 459.011C251.802 459.011 251.922 459.042 252.028 459.101L254.176 460.311C254.282 460.447 254.297 460.613 254.176 460.719Z" fill="#2B303F"/>
<path d="M257.201 458.935L255.023 460.19C254.914 460.25 254.792 460.281 254.668 460.281C254.543 460.281 254.421 460.25 254.312 460.19L252.225 458.996C252.028 458.875 251.998 458.693 252.225 458.587L254.418 457.333C254.524 457.273 254.644 457.242 254.766 457.242C254.888 457.242 255.007 457.273 255.114 457.333L257.186 458.527C257.367 458.648 257.382 458.829 257.201 458.935Z" fill="#2B303F"/>
<path d="M260.316 457.151L258.123 458.406C258.015 458.458 257.896 458.485 257.775 458.485C257.655 458.485 257.536 458.458 257.427 458.406L255.34 457.212C255.144 457.091 255.113 456.909 255.34 456.803L257.533 455.548C257.639 455.496 257.756 455.469 257.873 455.469C257.991 455.469 258.108 455.496 258.214 455.548L260.316 456.758C260.351 456.778 260.379 456.807 260.399 456.841C260.419 456.876 260.43 456.915 260.43 456.955C260.43 456.994 260.419 457.034 260.399 457.068C260.379 457.103 260.351 457.131 260.316 457.151Z" fill="#2B303F"/>
<path d="M263.401 455.367L261.223 456.622C261.115 456.674 260.996 456.701 260.876 456.701C260.755 456.701 260.636 456.674 260.528 456.622L258.441 455.428C258.229 455.307 258.199 455.11 258.441 455.004L260.619 453.749C260.727 453.697 260.846 453.67 260.966 453.67C261.087 453.67 261.206 453.697 261.314 453.749L263.401 454.959C263.44 454.977 263.472 455.006 263.495 455.042C263.517 455.079 263.529 455.12 263.529 455.163C263.529 455.206 263.517 455.247 263.495 455.283C263.472 455.319 263.44 455.348 263.401 455.367Z" fill="#2B303F"/>
<path d="M266.502 453.583L264.264 454.853C264.158 454.905 264.041 454.932 263.923 454.932C263.805 454.932 263.689 454.905 263.583 454.853L261.481 453.644C261.284 453.538 261.254 453.341 261.481 453.235L263.674 451.98C263.78 451.928 263.896 451.901 264.014 451.901C264.132 451.901 264.249 451.928 264.354 451.98L266.457 453.175C266.653 453.311 266.684 453.477 266.502 453.583Z" fill="#2B303F"/>
<path d="M269.603 451.784L267.41 453.039C267.301 453.091 267.182 453.118 267.062 453.118C266.941 453.118 266.822 453.091 266.714 453.039L264.627 451.829C264.43 451.708 264.4 451.527 264.627 451.421L266.805 450.166C266.913 450.114 267.032 450.087 267.152 450.087C267.273 450.087 267.392 450.114 267.5 450.166L269.603 451.361C269.754 451.542 269.784 451.678 269.603 451.784Z" fill="#2B303F"/>
<path d="M272.687 450.03L270.51 451.3C270.401 451.352 270.282 451.379 270.162 451.379C270.041 451.379 269.922 451.352 269.814 451.3L267.712 450.091C267.515 449.97 267.485 449.788 267.712 449.682L269.905 448.427C270.013 448.375 270.132 448.348 270.253 448.348C270.373 448.348 270.492 448.375 270.6 448.427L272.687 449.622C272.839 449.713 272.869 449.894 272.687 450.03Z" fill="#2B303F"/>
<path d="M275.788 448.201L273.595 449.471C273.487 449.523 273.368 449.55 273.247 449.55C273.127 449.55 273.008 449.523 272.899 449.471L270.812 448.261C270.616 448.14 270.601 447.974 270.812 447.868L273.005 446.613C273.109 446.553 273.226 446.522 273.346 446.522C273.465 446.522 273.582 446.553 273.686 446.613L275.788 447.808C275.939 447.929 275.97 448.11 275.788 448.201Z" fill="#2B303F"/>
<path d="M278.873 446.417L276.696 447.687C276.587 447.739 276.468 447.766 276.348 447.766C276.227 447.766 276.108 447.739 276 447.687L273.913 446.477C273.701 446.356 273.686 446.19 273.913 446.084L276.091 444.814C276.199 444.762 276.318 444.735 276.438 444.735C276.559 444.735 276.678 444.762 276.786 444.814L278.873 446.024C279.04 446.144 279.07 446.326 278.873 446.417Z" fill="#2B303F"/>
<path d="M281.974 444.633L279.781 445.903C279.675 445.955 279.559 445.982 279.441 445.982C279.323 445.982 279.206 445.955 279.1 445.903L277.013 444.693C276.801 444.572 276.786 444.406 277.013 444.3L279.206 443.03C279.317 442.978 279.439 442.95 279.562 442.95C279.685 442.95 279.806 442.978 279.917 443.03L281.989 444.24C282.125 444.361 282.155 444.527 281.974 444.633Z" fill="#2B303F"/>
<path d="M285.074 442.849L282.881 444.119C282.773 444.171 282.654 444.198 282.533 444.198C282.413 444.198 282.294 444.171 282.186 444.119L280.114 442.909C279.902 442.788 279.887 442.622 280.114 442.516L282.291 441.246C282.403 441.193 282.524 441.166 282.647 441.166C282.77 441.166 282.891 441.193 283.002 441.246L285.089 442.455C285.123 442.477 285.151 442.506 285.169 442.542C285.188 442.577 285.197 442.616 285.196 442.656C285.194 442.696 285.182 442.735 285.161 442.769C285.139 442.802 285.11 442.83 285.074 442.849Z" fill="#2B303F"/>
<path d="M289.656 440.203L285.936 442.335C285.827 442.387 285.709 442.414 285.588 442.414C285.468 442.414 285.349 442.387 285.24 442.335L283.153 441.125C282.941 441.004 282.926 440.823 283.153 440.732L286.843 438.6C286.949 438.548 287.066 438.521 287.184 438.521C287.302 438.521 287.418 438.548 287.524 438.6L289.626 439.81C289.808 439.931 289.838 440.097 289.656 440.203Z" fill="#2B303F"/>
<path d="M255.522 463.365L253.344 464.635C253.233 464.687 253.112 464.715 252.989 464.715C252.866 464.715 252.744 464.687 252.633 464.635L250.546 463.41C250.35 463.304 250.319 463.123 250.546 463.017L252.664 461.747C252.772 461.695 252.891 461.668 253.011 461.668C253.132 461.668 253.251 461.695 253.359 461.747L255.431 462.957C255.688 463.093 255.688 463.274 255.522 463.365Z" fill="#2B303F"/>
<path d="M258.622 461.581L256.429 462.836C256.323 462.895 256.203 462.927 256.081 462.927C255.96 462.927 255.84 462.895 255.734 462.836L253.646 461.641C253.45 461.52 253.42 461.354 253.646 461.248L255.839 459.978C255.945 459.926 256.062 459.899 256.18 459.899C256.298 459.899 256.414 459.926 256.52 459.978L258.622 461.173C258.713 461.309 258.804 461.475 258.622 461.581Z" fill="#2B303F"/>
<path d="M261.738 459.797L259.545 461.052C259.439 461.111 259.319 461.143 259.197 461.143C259.075 461.143 258.955 461.111 258.849 461.052L256.777 459.857C256.55 459.736 256.535 459.555 256.777 459.449L258.97 458.194C259.076 458.135 259.196 458.103 259.318 458.103C259.44 458.103 259.56 458.135 259.666 458.194L261.738 459.389C261.776 459.407 261.808 459.436 261.831 459.472C261.854 459.508 261.866 459.55 261.866 459.593C261.866 459.635 261.854 459.677 261.831 459.713C261.808 459.749 261.776 459.778 261.738 459.797Z" fill="#2B303F"/>
<path d="M264.763 458.013L262.57 459.268C262.464 459.32 262.348 459.347 262.23 459.347C262.112 459.347 261.995 459.32 261.889 459.268L259.787 458.058C259.59 457.952 259.56 457.771 259.787 457.65L261.935 456.395C262.043 456.343 262.162 456.316 262.282 456.316C262.403 456.316 262.522 456.343 262.63 456.395L264.763 457.59C264.975 457.71 265.005 457.937 264.763 458.013Z" fill="#2B303F"/>
<path d="M267.908 456.229L265.715 457.484C265.606 457.543 265.484 457.574 265.36 457.574C265.236 457.574 265.114 457.543 265.005 457.484L262.933 456.289C262.736 456.168 262.706 455.987 262.933 455.881L265.11 454.566C265.217 454.506 265.337 454.475 265.458 454.475C265.58 454.475 265.7 454.506 265.806 454.566L267.893 455.76C268.06 455.942 268.075 456.078 267.908 456.229Z" fill="#2B303F"/>
<path d="M270.994 454.445L268.816 455.7C268.71 455.759 268.59 455.791 268.468 455.791C268.346 455.791 268.226 455.759 268.12 455.7L266.018 454.505C265.821 454.384 265.806 454.188 266.018 454.097L268.211 452.842C268.317 452.783 268.437 452.751 268.559 452.751C268.68 452.751 268.8 452.783 268.907 452.842L270.994 454.037C271.145 454.158 271.175 454.339 270.994 454.445Z" fill="#2B303F"/>
<path d="M274.109 452.661L271.916 453.916C271.805 453.968 271.684 453.995 271.561 453.995C271.438 453.995 271.317 453.968 271.205 453.916L269.133 452.721C268.922 452.6 268.907 452.404 269.133 452.298L271.326 451.043C271.432 450.991 271.549 450.964 271.667 450.964C271.785 450.964 271.901 450.991 272.007 451.043L274.094 452.253C274.133 452.27 274.167 452.297 274.191 452.333C274.215 452.368 274.228 452.409 274.23 452.452C274.231 452.495 274.221 452.537 274.2 452.574C274.178 452.611 274.147 452.641 274.109 452.661Z" fill="#2B303F"/>
<path d="M277.195 450.846L275.017 452.116C274.911 452.176 274.791 452.207 274.669 452.207C274.547 452.207 274.427 452.176 274.321 452.116L272.234 450.922C272.022 450.801 271.992 450.62 272.234 450.514L274.412 449.259C274.518 449.199 274.638 449.168 274.76 449.168C274.882 449.168 275.001 449.199 275.108 449.259L277.195 450.453C277.361 450.574 277.391 450.756 277.195 450.846Z" fill="#2B303F"/>
<path d="M280.295 449.062L278.102 450.332C277.996 450.384 277.88 450.412 277.762 450.412C277.644 450.412 277.527 450.384 277.421 450.332L275.334 449.123C275.123 449.002 275.107 448.836 275.334 448.73L277.527 447.475C277.636 447.415 277.758 447.384 277.883 447.384C278.007 447.384 278.129 447.415 278.238 447.475L280.31 448.669C280.461 448.79 280.476 448.957 280.295 449.062Z" fill="#2B303F"/>
<path d="M283.411 447.278L281.218 448.548C281.109 448.601 280.99 448.628 280.87 448.628C280.749 448.628 280.63 448.601 280.522 448.548L278.435 447.339C278.238 447.218 278.208 447.037 278.435 446.946L280.567 445.615C280.676 445.563 280.795 445.536 280.915 445.536C281.036 445.536 281.154 445.563 281.263 445.615L283.365 446.84C283.562 447.006 283.577 447.157 283.411 447.278Z" fill="#2B303F"/>
<path d="M286.496 445.494L284.318 446.764C284.209 446.817 284.09 446.844 283.97 446.844C283.849 446.844 283.731 446.817 283.622 446.764L281.52 445.54C281.323 445.434 281.308 445.252 281.52 445.147L283.713 443.877C283.821 443.824 283.94 443.797 284.061 443.797C284.181 443.797 284.3 443.824 284.408 443.877L286.496 445.086C286.647 445.207 286.677 445.389 286.496 445.494Z" fill="#2B303F"/>
<path d="M289.611 443.695L287.418 444.965C287.307 445.018 287.186 445.045 287.063 445.045C286.94 445.045 286.818 445.018 286.707 444.965L284.635 443.756C284.424 443.635 284.408 443.468 284.635 443.363L286.828 442.093C286.934 442.041 287.051 442.013 287.169 442.013C287.287 442.013 287.403 442.041 287.509 442.093L289.596 443.302C289.762 443.423 289.777 443.604 289.611 443.695Z" fill="#2B303F"/>
<path d="M252.421 465.149L248.731 467.281C248.508 467.372 248.258 467.372 248.035 467.281L245.963 466.071C245.752 465.95 245.737 465.769 245.963 465.663L249.639 463.546C249.862 463.456 250.111 463.456 250.334 463.546L252.437 464.771C252.467 464.793 252.491 464.822 252.508 464.856C252.524 464.889 252.532 464.927 252.531 464.964C252.529 465.002 252.518 465.038 252.499 465.07C252.48 465.103 252.453 465.13 252.421 465.149Z" fill="#2B303F"/>
<path d="M289.853 440.293L287.675 441.563C287.494 441.654 287.494 441.821 287.675 441.926L289.883 443.211C289.986 443.256 290.097 443.279 290.208 443.279C290.32 443.279 290.431 443.256 290.534 443.211L290.7 443.09C290.795 443.046 290.898 443.023 291.002 443.023C291.107 443.023 291.21 443.046 291.305 443.09L293.619 444.451C293.719 444.503 293.831 444.53 293.944 444.53C294.057 444.53 294.169 444.503 294.269 444.451L295.676 443.65C295.701 443.637 295.723 443.619 295.741 443.598C295.759 443.577 295.773 443.552 295.781 443.525C295.79 443.498 295.793 443.47 295.79 443.442C295.788 443.415 295.78 443.387 295.767 443.363C295.76 443.341 295.748 443.322 295.733 443.306C295.717 443.29 295.697 443.278 295.676 443.272L293.498 442.017L293.059 441.76L292.727 441.563L292.394 441.367L290.519 440.293C290.416 440.239 290.302 440.211 290.186 440.211C290.07 440.211 289.956 440.239 289.853 440.293Z" fill="#2B303F"/>
<path d="M259.938 471.197L257.76 472.467C257.652 472.519 257.533 472.546 257.412 472.546C257.292 472.546 257.173 472.519 257.065 472.467L254.977 471.257C254.766 471.136 254.735 470.955 254.977 470.849L257.201 469.594C257.424 469.503 257.673 469.503 257.896 469.594L259.983 470.819C260.017 470.84 260.044 470.871 260.06 470.907C260.077 470.942 260.084 470.982 260.079 471.022C260.074 471.061 260.059 471.099 260.034 471.129C260.009 471.16 259.976 471.184 259.938 471.197Z" fill="#2B303F"/>
<path d="M263.024 469.428L260.831 470.698C260.725 470.75 260.608 470.777 260.49 470.777C260.372 470.777 260.256 470.75 260.15 470.698L258.063 469.488C257.851 469.367 257.836 469.186 258.063 469.095L260.226 467.825C260.337 467.773 260.458 467.745 260.581 467.745C260.704 467.745 260.825 467.773 260.936 467.825L263.008 469.035C263.25 469.156 263.25 469.322 263.024 469.428Z" fill="#2B303F"/>
<path d="M266.124 467.644L263.931 468.899C263.825 468.958 263.705 468.989 263.583 468.989C263.461 468.989 263.342 468.958 263.235 468.899L261.148 467.704C260.937 467.583 260.906 467.417 261.148 467.311L263.251 466.041C263.359 465.989 263.478 465.962 263.598 465.962C263.719 465.962 263.838 465.989 263.946 466.041L266.048 467.251C266.275 467.372 266.275 467.553 266.124 467.644Z" fill="#2B303F"/>
<path d="M292.394 452.464L290.216 453.734C290.108 453.786 289.989 453.814 289.869 453.814C289.748 453.814 289.629 453.786 289.521 453.734L287.434 452.51C287.222 452.404 287.207 452.222 287.434 452.116L289.627 450.846C289.738 450.794 289.859 450.767 289.982 450.767C290.105 450.767 290.226 450.794 290.337 450.846L292.409 452.056C292.546 452.192 292.576 452.373 292.394 452.464Z" fill="#2B303F"/>
<path d="M295.494 450.695L293.301 451.965C293.193 452.018 293.074 452.045 292.953 452.045C292.833 452.045 292.714 452.018 292.606 451.965L290.518 450.756C290.322 450.635 290.292 450.453 290.518 450.348L292.696 449.078C292.919 448.987 293.169 448.987 293.392 449.078L295.494 450.302C295.529 450.322 295.557 450.351 295.577 450.385C295.597 450.42 295.608 450.459 295.608 450.499C295.608 450.539 295.597 450.578 295.577 450.612C295.557 450.647 295.529 450.675 295.494 450.695Z" fill="#2B303F"/>
<path d="M298.565 448.911L296.387 450.181C296.278 450.233 296.159 450.261 296.039 450.261C295.919 450.261 295.8 450.233 295.691 450.181L293.604 448.972C293.392 448.851 293.377 448.669 293.604 448.579L295.797 447.309C295.908 447.256 296.029 447.229 296.152 447.229C296.275 447.229 296.397 447.256 296.508 447.309L298.58 448.518C298.716 448.7 298.746 448.805 298.565 448.911Z" fill="#2B303F"/>
<path d="M301.665 447.157L299.472 448.427C299.364 448.48 299.245 448.507 299.124 448.507C299.004 448.507 298.885 448.48 298.776 448.427L296.689 447.218C296.493 447.097 296.462 446.931 296.689 446.825L298.882 445.494C298.988 445.442 299.105 445.415 299.223 445.415C299.34 445.415 299.457 445.442 299.563 445.494L301.665 446.704C301.816 446.855 301.831 447.006 301.665 447.157Z" fill="#2B303F"/>
<path d="M269.996 465.406L266.971 467.16C266.865 467.219 266.745 467.251 266.623 467.251C266.501 467.251 266.381 467.219 266.275 467.16L264.188 465.95C263.976 465.844 263.961 465.663 264.188 465.557L267.213 463.834C267.321 463.781 267.44 463.754 267.561 463.754C267.681 463.754 267.8 463.781 267.909 463.834L269.996 465.043C270.032 465.058 270.062 465.083 270.084 465.116C270.105 465.148 270.117 465.186 270.117 465.225C270.117 465.263 270.105 465.301 270.084 465.334C270.062 465.366 270.032 465.391 269.996 465.406Z" fill="#2B303F"/>
<path d="M289.309 454.248L286.284 455.972C286.178 456.031 286.058 456.063 285.936 456.063C285.814 456.063 285.695 456.031 285.588 455.972L283.501 454.777C283.305 454.656 283.29 454.475 283.501 454.384L286.526 452.661C286.632 452.601 286.752 452.57 286.874 452.57C286.996 452.57 287.116 452.601 287.222 452.661L289.309 453.855C289.475 453.976 289.49 454.142 289.309 454.248Z" fill="#2B303F"/>
<path d="M285.437 456.501L270.812 464.892C270.704 464.944 270.585 464.971 270.464 464.971C270.344 464.971 270.225 464.944 270.117 464.892L268.045 463.682C267.833 463.562 267.818 463.38 268.045 463.289L282.533 454.853C282.639 454.801 282.756 454.774 282.874 454.774C282.992 454.774 283.108 454.801 283.214 454.853L285.301 456.078C285.588 456.214 285.603 456.395 285.437 456.501Z" fill="#2B303F"/>
<path d="M259.363 464.605L257.17 465.875C257.064 465.934 256.944 465.966 256.822 465.966C256.701 465.966 256.581 465.934 256.475 465.875L254.387 464.68C254.191 464.559 254.176 464.378 254.387 464.272L256.565 462.987C256.672 462.927 256.791 462.896 256.913 462.896C257.035 462.896 257.155 462.927 257.261 462.987L259.363 464.181C259.514 464.333 259.545 464.514 259.363 464.605Z" fill="#2B303F"/>
<path d="M262.449 462.821L260.271 464.091C260.162 464.143 260.044 464.17 259.923 464.17C259.803 464.17 259.684 464.143 259.575 464.091L257.473 462.866C257.276 462.76 257.246 462.579 257.473 462.473L259.651 461.203C259.757 461.143 259.877 461.112 259.999 461.112C260.121 461.112 260.24 461.143 260.347 461.203L262.434 462.397C262.6 462.549 262.63 462.73 262.449 462.821Z" fill="#2B303F"/>
<path d="M265.549 461.006L263.356 462.276C263.25 462.328 263.134 462.355 263.016 462.355C262.898 462.355 262.781 462.328 262.675 462.276L260.573 461.006C260.377 460.901 260.346 460.719 260.573 460.613L262.736 459.479C262.839 459.42 262.957 459.388 263.076 459.388C263.196 459.388 263.313 459.42 263.416 459.479L265.519 460.613C265.7 460.765 265.73 461.006 265.549 461.006Z" fill="#2B303F"/>
<path d="M268.634 459.253L266.456 460.523C266.348 460.575 266.229 460.602 266.108 460.602C265.988 460.602 265.869 460.575 265.761 460.523L263.673 459.298C263.462 459.192 263.432 459.011 263.673 458.905L265.806 457.59C265.914 457.537 266.033 457.51 266.154 457.51C266.274 457.51 266.393 457.537 266.502 457.59L268.589 458.799C268.8 458.98 268.816 459.101 268.634 459.253Z" fill="#2B303F"/>
<path d="M271.735 457.484L269.557 458.754C269.328 458.844 269.074 458.844 268.846 458.754L266.759 457.529C266.547 457.423 266.532 457.242 266.759 457.136L268.891 455.836C269 455.783 269.119 455.756 269.239 455.756C269.36 455.756 269.479 455.783 269.587 455.836L271.659 457.045C271.886 457.196 271.961 457.378 271.735 457.484Z" fill="#2B303F"/>
<path d="M274.82 455.7L272.627 456.97C272.404 457.06 272.154 457.06 271.931 456.97L269.86 455.745C269.648 455.639 269.633 455.458 269.86 455.352L271.962 454.052C272.19 453.962 272.444 453.962 272.673 454.052L274.76 455.261C275.047 455.412 275.047 455.594 274.82 455.7Z" fill="#2B303F"/>
<path d="M277.905 453.916L275.727 455.186C275.504 455.276 275.255 455.276 275.032 455.186L272.945 453.976C272.733 453.855 272.718 453.674 272.945 453.568L275.047 452.268C275.275 452.178 275.529 452.178 275.758 452.268L277.83 453.492C278.117 453.628 278.117 453.81 277.905 453.916Z" fill="#2B303F"/>
<path d="M281.006 452.132L278.813 453.386C278.707 453.446 278.587 453.477 278.465 453.477C278.343 453.477 278.223 453.446 278.117 453.386L276.03 452.192C275.833 452.071 275.818 451.89 276.03 451.784L278.117 450.484C278.34 450.393 278.59 450.393 278.813 450.484L280.915 451.693C281.202 451.784 281.202 452.026 281.006 452.132Z" fill="#2B303F"/>
<path d="M284.091 450.348L281.913 451.602C281.805 451.655 281.686 451.682 281.566 451.682C281.445 451.682 281.326 451.655 281.218 451.602L279.131 450.408C278.919 450.287 278.889 450.106 279.131 449.985L281.203 448.7C281.311 448.647 281.43 448.62 281.55 448.62C281.671 448.62 281.79 448.647 281.898 448.7L283.985 449.909C284.288 450.03 284.288 450.242 284.091 450.348Z" fill="#2B303F"/>
<path d="M287.191 448.518L284.999 449.773C284.893 449.825 284.776 449.852 284.658 449.852C284.54 449.852 284.424 449.825 284.318 449.773L282.216 448.579C282.019 448.458 281.989 448.276 282.216 448.17L284.288 447.006C284.394 446.954 284.51 446.927 284.628 446.927C284.746 446.927 284.862 446.954 284.968 447.006L287.07 448.216C287.358 448.261 287.358 448.518 287.191 448.518Z" fill="#2B303F"/>
<path d="M290.292 446.779L288.099 448.034C287.988 448.087 287.867 448.114 287.744 448.114C287.621 448.114 287.499 448.087 287.388 448.034L285.316 446.84C285.12 446.719 285.089 446.522 285.316 446.432L287.449 445.177C287.557 445.125 287.676 445.097 287.797 445.097C287.917 445.097 288.036 445.125 288.144 445.177L290.232 446.386C290.27 446.4 290.304 446.424 290.329 446.456C290.355 446.487 290.372 446.525 290.378 446.565C290.384 446.605 290.38 446.646 290.365 446.684C290.349 446.722 290.324 446.755 290.292 446.779Z" fill="#2B303F"/>
<path d="M293.377 444.995L291.199 446.25C291.09 446.31 290.968 446.341 290.844 446.341C290.719 446.341 290.597 446.31 290.488 446.25L288.401 445.056C288.189 444.935 288.174 444.738 288.401 444.648L290.594 443.393C290.703 443.341 290.822 443.313 290.942 443.313C291.062 443.313 291.181 443.341 291.29 443.393L293.362 444.602C293.397 444.621 293.427 444.648 293.448 444.682C293.47 444.716 293.482 444.755 293.483 444.795C293.485 444.834 293.476 444.874 293.457 444.909C293.438 444.945 293.411 444.974 293.377 444.995Z" fill="#2B303F"/>
<path d="M256.263 466.404L251.726 469.019C251.615 469.072 251.493 469.099 251.37 469.099C251.248 469.099 251.126 469.072 251.015 469.019L248.943 467.81C248.731 467.689 248.701 467.508 248.943 467.417L253.48 464.771C253.589 464.711 253.711 464.68 253.836 464.68C253.96 464.68 254.082 464.711 254.191 464.771L256.263 465.965C256.429 466.117 256.445 466.298 256.263 466.404Z" fill="#2B303F"/>
<path d="M260.815 467.16L258.637 468.43C258.529 468.482 258.41 468.509 258.29 468.509C258.169 468.509 258.05 468.482 257.942 468.43L255.87 467.22C255.643 467.099 255.628 466.918 255.87 466.812L257.987 465.633C258.098 465.58 258.22 465.553 258.342 465.553C258.465 465.553 258.587 465.58 258.698 465.633L260.77 466.827C260.997 466.948 261.012 467.16 260.815 467.16Z" fill="#2B303F"/>
<path d="M263.916 465.451L261.738 466.661C261.63 466.706 261.515 466.73 261.398 466.73C261.281 466.73 261.165 466.706 261.057 466.661L258.955 465.451C258.759 465.33 258.743 465.149 258.955 465.043L261.148 463.788C261.254 463.729 261.374 463.697 261.496 463.697C261.618 463.697 261.738 463.729 261.844 463.788L263.931 464.983C264.067 465.149 264.097 465.346 263.916 465.451Z" fill="#2B303F"/>
<path d="M267.016 463.637L264.823 464.907C264.6 464.998 264.35 464.998 264.127 464.907L262.04 463.682C261.844 463.577 261.798 463.395 262.04 463.289L264.218 462.125C264.324 462.066 264.444 462.034 264.566 462.034C264.688 462.034 264.808 462.066 264.914 462.125L267.016 463.32C267.167 463.38 267.198 463.637 267.016 463.637Z" fill="#2B303F"/>
<path d="M270.101 461.883L267.923 463.153C267.7 463.244 267.451 463.244 267.228 463.153L265.125 461.944C264.929 461.823 264.899 461.641 265.125 461.536L267.318 460.266C267.541 460.175 267.791 460.175 268.014 460.266L270.101 461.49C270.136 461.51 270.164 461.539 270.184 461.573C270.204 461.608 270.215 461.647 270.215 461.687C270.215 461.727 270.204 461.766 270.184 461.8C270.164 461.835 270.136 461.863 270.101 461.883Z" fill="#2B303F"/>
<path d="M273.202 460.099L271.009 461.369C270.898 461.422 270.776 461.449 270.653 461.449C270.53 461.449 270.409 461.422 270.298 461.369L268.226 460.16C268.029 460.039 267.999 459.857 268.226 459.752L270.434 458.451C270.542 458.406 270.657 458.383 270.774 458.383C270.891 458.383 271.007 458.406 271.115 458.451L273.202 459.676C273.353 459.812 273.368 459.993 273.202 460.099Z" fill="#2B303F"/>
<path d="M276.287 458.315L274.094 459.585C273.986 459.638 273.867 459.665 273.746 459.665C273.626 459.665 273.507 459.638 273.399 459.585L271.327 458.376C271.1 458.255 271.085 458.073 271.327 457.983L273.504 456.682C273.613 456.63 273.732 456.603 273.852 456.603C273.973 456.603 274.092 456.63 274.2 456.682L276.272 457.907C276.454 458.028 276.469 458.209 276.287 458.315Z" fill="#2B303F"/>
<path d="M279.373 456.531L277.18 457.801C277.074 457.853 276.957 457.88 276.839 457.88C276.721 457.88 276.605 457.853 276.499 457.801L274.412 456.592C274.2 456.471 274.185 456.289 274.412 456.199L276.59 454.853C276.701 454.8 276.822 454.773 276.945 454.773C277.068 454.773 277.189 454.8 277.301 454.853L279.373 456.078C279.524 456.244 279.554 456.395 279.373 456.531Z" fill="#2B303F"/>
<path d="M282.473 454.747L280.28 456.002C280.174 456.062 280.054 456.093 279.932 456.093C279.81 456.093 279.69 456.062 279.584 456.002L277.497 454.808C277.3 454.687 277.27 454.505 277.497 454.415L279.66 453.054C279.768 453.002 279.887 452.974 280.008 452.974C280.128 452.974 280.247 453.002 280.355 453.054L282.443 454.263C282.624 454.475 282.654 454.641 282.473 454.747Z" fill="#2B303F"/>
<path d="M285.558 452.963L283.38 454.218C283.274 454.278 283.154 454.309 283.033 454.309C282.911 454.309 282.791 454.278 282.685 454.218L280.582 453.024C280.386 452.903 280.356 452.721 280.582 452.63L282.745 451.33C282.851 451.271 282.971 451.239 283.093 451.239C283.215 451.239 283.335 451.271 283.441 451.33L285.528 452.525C285.709 452.691 285.74 452.857 285.558 452.963Z" fill="#2B303F"/>
<path d="M288.659 451.179L286.466 452.434C286.359 452.494 286.24 452.525 286.118 452.525C285.996 452.525 285.876 452.494 285.77 452.434L283.683 451.24C283.486 451.119 283.456 450.937 283.683 450.831L285.815 449.546C285.921 449.487 286.041 449.455 286.163 449.455C286.285 449.455 286.405 449.487 286.511 449.546L288.598 450.741C288.81 450.907 288.825 451.073 288.659 451.179Z" fill="#2B303F"/>
<path d="M291.744 449.395L289.566 450.65C289.457 450.709 289.334 450.741 289.21 450.741C289.086 450.741 288.964 450.709 288.855 450.65L286.783 449.456C286.556 449.335 286.541 449.168 286.783 449.047L288.961 447.762C289.067 447.703 289.187 447.671 289.309 447.671C289.43 447.671 289.55 447.703 289.656 447.762L291.728 448.957C291.895 449.108 291.986 449.289 291.744 449.395Z" fill="#2B303F"/>
<path d="M298.655 445.404L292.606 448.866C292.502 448.926 292.385 448.957 292.265 448.957C292.146 448.957 292.029 448.926 291.925 448.866L289.838 447.672C289.626 447.551 289.611 447.369 289.838 447.263L295.888 443.786C296.111 443.695 296.36 443.695 296.583 443.786L298.67 445.011C298.709 445.028 298.742 445.056 298.764 445.092C298.787 445.128 298.798 445.17 298.796 445.212C298.795 445.255 298.78 445.296 298.755 445.33C298.73 445.364 298.695 445.39 298.655 445.404Z" fill="#2B303F"/>
<path d="M257.745 469.019L254.72 470.743C254.612 470.795 254.493 470.822 254.372 470.822C254.252 470.822 254.133 470.795 254.024 470.743L251.937 469.534C251.741 469.413 251.711 469.246 251.937 469.14L254.962 467.417C255.066 467.357 255.183 467.326 255.302 467.326C255.422 467.326 255.539 467.357 255.643 467.417L257.73 468.611C257.769 468.628 257.802 468.656 257.826 468.691C257.85 468.727 257.864 468.768 257.866 468.811C257.867 468.853 257.857 468.895 257.835 468.932C257.814 468.969 257.783 469 257.745 469.019Z" fill="#2B303F"/>
<path d="M234.772 462.549L284.424 433.928V394.906L284.031 394.045L283.637 393.833C283.114 393.536 282.523 393.38 281.921 393.38C281.319 393.38 280.728 393.536 280.204 393.833L234.833 420.004C234.303 420.309 233.866 420.751 233.565 421.282C233.264 421.814 233.112 422.417 233.124 423.028V459.631C233.366 461.505 233.713 461.944 234.772 462.549Z" fill="#E5E5E5"/>
<path d="M239.324 424.766L284.424 396.222V394.906L284.031 394.045L283.637 393.833C283.114 393.536 282.523 393.38 281.921 393.38C281.319 393.38 280.728 393.536 280.204 393.833L234.833 420.004C234.284 420.325 233.834 420.791 233.532 421.349L239.324 424.766Z" fill="#E5E5E5"/>
<path d="M283.244 394.091L235.528 421.592C235.267 421.746 235.052 421.968 234.905 422.234C234.759 422.5 234.687 422.801 234.696 423.104V462.67L284.424 433.929V394.62C284.42 394.422 284.342 394.232 284.205 394.089C284.067 393.946 283.881 393.86 283.683 393.849C283.518 393.89 283.367 393.973 283.244 394.091Z" fill="#DCEEFF"/>
<path d="M283.244 394.091L235.528 421.592C235.267 421.746 235.052 421.968 234.905 422.234C234.759 422.5 234.687 422.801 234.696 423.104V462.67L284.424 433.929V394.62C284.42 394.422 284.342 394.232 284.205 394.089C284.067 393.946 283.881 393.86 283.683 393.849C283.518 393.89 283.367 393.973 283.244 394.091Z" fill="#F4F4F4"/>
<path d="M234.772 462.564V461.158L284.394 432.507V433.928L234.772 462.564Z" fill="#DBDBDB"/>
<path d="M282.503 396.433V431.555L236.375 458.104V423.058L282.503 396.433Z" fill="#1E212D"/>
<path d="M364.853 428.138C365.276 431.827 369.677 447.792 368.724 453.145C367.771 458.497 352.769 467.689 352.769 467.689L350.697 458.451L359.015 450.242L356.761 434.911L364.853 428.138Z" fill="#FFCEA9"/>
<path d="M353.237 412.49C354.693 411.824 356.342 411.713 357.874 412.178C359.406 412.643 360.715 413.652 361.555 415.015C363.763 418.673 366.092 431.222 366.259 433.309C366.259 433.309 363.234 437.587 358.561 436.877L353.237 412.49Z" fill="#EDEDED"/>
<path d="M336.102 589.608C332.834 590.503 329.346 590.074 326.393 588.414C324.048 588.414 311.269 583.062 309.605 587.628C308.093 591.619 313.598 595.323 316.532 596.034C322.959 597.546 327.693 600.796 330.279 601.341C332.2 601.734 334.68 601.991 336.208 600.494C338.053 598.68 337.887 591.997 336.102 589.608Z" fill="#38226D"/>
<path d="M330.279 600.222C327.693 599.693 322.959 596.487 316.532 594.93C314.066 594.325 309.832 591.634 309.408 588.414C308.833 592.118 313.794 595.384 316.532 595.973C322.959 597.485 327.693 600.736 330.279 601.265C332.2 601.673 334.68 601.93 336.208 600.433C336.609 600.006 336.9 599.487 337.055 598.922C336.104 599.649 334.996 600.145 333.82 600.371C332.644 600.597 331.432 600.546 330.279 600.222Z" fill="#9C73FF"/>
<path d="M356.64 580.355C353.369 581.248 349.879 580.824 346.916 579.176C344.587 579.252 331.882 573.809 330.158 578.375C328.646 582.366 334.151 586.07 337.085 586.796C343.483 588.308 348.247 591.543 350.818 592.088C352.738 592.481 355.219 592.753 356.761 591.241C358.652 589.442 358.531 582.744 356.64 580.355Z" fill="#38226D"/>
<path d="M350.878 590.969C348.307 590.44 343.558 587.235 337.146 585.677C334.681 585.088 330.431 582.381 330.007 579.176C329.433 582.865 334.393 586.131 337.146 586.872C343.558 588.384 348.307 591.619 350.878 592.163C352.799 592.556 355.279 592.829 356.822 591.317C357.214 590.885 357.498 590.367 357.654 589.805C356.692 590.51 355.579 590.983 354.403 591.185C353.227 591.387 352.021 591.313 350.878 590.969Z" fill="#9C73FF"/>
<path d="M356.942 545.854C356.393 541.156 355.405 536.52 353.993 532.005C353.993 532.005 354.87 520.001 355.294 508.616C355.808 495.704 360.285 484.335 356.806 474.024L316.955 482.899C316.955 482.899 319.344 534.379 319.889 540.608C320.189 545.462 320.785 550.294 321.674 555.077C323.488 565.055 326.453 588.837 326.453 588.837C330.672 591.286 336.208 589.926 336.208 589.926C336.208 589.926 335.905 559.854 335.618 552.658C335.3 543.873 335.028 544.539 335.028 544.539L336.313 522.601L337.176 511.7C337.176 511.7 338.28 519.713 338.99 526.819C339.626 533.048 341.138 538.688 342.817 550.269C344.254 560.338 346.628 580.507 346.628 580.507C350.848 582.956 356.579 580.93 356.579 580.93C356.579 580.93 358.077 554.578 356.942 545.854Z" fill="#8C50FF"/>
<path d="M351.12 412.701C348.095 412.853 345.826 413.639 345.463 412.701C345.126 411.141 344.894 409.56 344.768 407.969C345.101 407.092 345.418 406.14 345.418 406.14C349.229 403.796 350.439 399.684 350.923 394.876C351.785 386.682 347.354 379.485 339.142 378.654C331.444 377.852 325.772 383.265 324.26 390.749C323.443 394.423 321.825 401.332 324.018 407.38C325.243 410.766 326.816 413.427 328.404 413.971C329.948 413.926 331.488 413.79 333.017 413.563L333.712 417.298C333.984 418.809 333.879 419.535 330.975 421.319C328.071 423.103 335.376 426.792 340.215 426.444C345.055 426.097 350.364 423.194 351.831 420.11C353.358 416.663 353.222 412.611 351.12 412.701Z" fill="#FFCEA9"/>
<path d="M346.734 413.155C347.581 415.256 345.449 417.766 339.732 419.611C334.015 421.455 333.576 419.097 333.576 419.097C329.779 420.791 326.078 422.694 322.491 424.797C319.073 427.2 317.545 434.034 317.091 445.797C316.562 459.313 316.517 479.376 316.97 482.838C316.97 482.838 323.353 489.203 331.55 488.523C339.747 487.843 353.495 480.616 356.837 475.037C356.746 463.184 355.325 461.188 357.26 454.415C361.677 438.782 363.975 432.386 361.888 422C360.134 413.427 357.669 412.369 354.326 412.46C351.784 412.546 349.25 412.778 346.734 413.155Z" fill="#F4F4F4"/>
<path d="M304.191 456.985C310.906 458.678 312.463 454.43 313.431 450.937C315.549 442.44 316.698 434.775 318.301 429.952C320.161 424.283 322.143 423.375 324.91 422.257C328.147 420.971 330.96 423.768 329.856 430.935C328.534 439.305 326.49 447.546 323.746 455.564C322.899 458.209 321.024 462.911 318.226 465.179C314.762 467.976 309.544 467.855 301.589 465.89C298.232 465.058 294.542 463.048 288.159 460.069C286.45 459.268 285.134 458.754 281.837 457.227C278.54 455.746 275.65 453.489 273.413 450.65C271.704 448.155 271.478 446.991 271.901 446.417C272.325 445.842 273.126 445.872 274.034 446.916C275.358 448.703 276.992 450.24 278.858 451.451C278.858 451.451 276.756 449.259 275.591 447.838C274.57 446.569 273.721 445.171 273.066 443.68C272.461 442.168 273.701 440.263 274.578 441.291C275.455 442.319 276 443.393 277.603 445.464C278.486 446.59 279.502 447.605 280.628 448.488C279.55 447.023 278.589 445.476 277.754 443.862C277.009 442.601 276.647 441.151 276.71 439.689C276.71 438.948 277.83 438.026 278.843 439.477C279.824 441.454 281.038 443.306 282.458 444.996C283.97 446.507 285.286 447.49 285.331 447.052C285.376 446.613 284.393 445.721 283.819 443.877C283.244 442.032 283.819 440.067 284.832 439.87C285.845 439.674 285.664 439.689 286.496 441.382C287.609 443.172 288.619 445.025 289.52 446.931C290.092 448.677 291.078 450.259 292.394 451.542C294.148 453.417 297.793 455.367 304.191 456.985Z" fill="#FFCEA9"/>
<path d="M327.39 421.108C322.853 420.442 319.692 422.453 317.756 429.242C315.821 436.03 314.399 441.563 314.399 441.563C316.181 444.137 318.891 445.92 321.961 446.538C327.33 447.853 329.266 445.283 329.266 445.283C329.266 445.283 330.778 438.177 331.686 433.324C332.593 428.471 332.82 421.924 327.39 421.108Z" fill="#EDEDED"/>
<path d="M324.517 389.645C324.517 389.645 317.439 378.88 332.79 376.673C343.861 375.161 350.939 382.222 351.801 389.932C352.587 397.295 348.05 404.961 344.768 407.999C343.256 408.559 339.717 408.907 335.195 406.835C335.01 404.825 334.939 402.806 334.983 400.788C334.983 400.788 340.382 389.448 324.517 389.645Z" fill="#3A2C6D"/>
</g>
<defs>
<linearGradient id="paint0_linear" x1="56.1887" y1="189.727" x2="-18.9703" y2="319.938" gradientUnits="userSpaceOnUse">
<stop stop-color="#E9EAF4"/>
<stop offset="0.04" stop-color="#DEDFE9"/>
<stop offset="0.1" stop-color="#D7D8E2"/>
<stop offset="0.27" stop-color="#D5D6E0"/>
</linearGradient>
<linearGradient id="paint1_linear" x1="-38613.5" y1="36511.2" x2="-52692.5" y2="51712" gradientUnits="userSpaceOnUse">
<stop stop-color="#E9EAF4"/>
<stop offset="0.04" stop-color="#DEDFE9"/>
<stop offset="0.1" stop-color="#D7D8E2"/>
<stop offset="0.27" stop-color="#D5D6E0"/>
</linearGradient>
<clipPath id="clip0">
<rect width="756.195" height="619" fill="white" transform="matrix(-1 0 0 1 378.192 0.997314)"/>
</clipPath>
</defs>
</svg>
