<svg width="411" height="620" viewBox="0 0 411 620" fill="none" xmlns="http://www.w3.org/2000/svg">
<g clip-path="url(#clip0)">
<path opacity="0.3" d="M446.844 543.03L260.559 432.464L287.609 416.853L473.894 527.431L446.844 543.03Z" fill="#D6D8E5"/>
<path d="M446.497 515.645L310.666 437.329C299.162 430.694 289.828 412.904 289.828 397.577V19.2196C289.84 3.90557 299.162 -3.13865 310.666 3.47227L446.497 81.8129C458.001 88.4362 467.323 106.239 467.323 121.553V499.91C467.323 515.237 458.001 522.281 446.497 515.645Z" fill="#B1B4C4"/>
<path d="M287.72 7.27294L297.625 2.08572L295.629 16.657L287.72 7.27294Z" fill="#B1B4C4"/>
<path d="M437.832 519.966L302.001 441.724C290.497 435.089 281.175 417.286 281.175 401.972V23.5402C281.175 8.22611 290.497 1.18189 302.001 7.81757L437.832 86.1334C449.336 92.7691 458.658 110.559 458.658 125.886V504.243C458.658 519.57 449.336 526.601 437.832 519.966Z" fill="#D8DAE5"/>
<path d="M457.196 126.851V505.196C457.196 520.535 447.873 527.555 436.369 520.931L383.064 490.229L366.514 480.672L300.514 442.628C289.01 435.98 279.688 418.19 279.688 402.863V24.5182C279.688 9.17935 289.01 2.14752 300.514 8.77081L436.394 87.0867C447.898 93.7347 457.196 111.512 457.196 126.851Z" fill="#E4E6EF"/>
<path d="M447.414 123.014V491.504C447.414 500.789 440.906 504.565 432.848 499.91L390.377 475.423L386.658 473.269L385.418 472.538L376.245 467.252L349.679 451.95L338.67 445.599L334.232 443.037L304.096 425.63C296.051 420.988 289.518 409.697 289.518 400.412V31.9463C289.518 22.6613 296.051 18.9101 304.096 23.5403L357.117 54.1189V54.2303C357.117 61.4478 362.212 70.2376 368.472 73.8526C374.732 77.4675 379.827 74.5459 379.827 67.3159C379.827 67.3159 379.827 67.1921 379.827 67.1426L432.861 97.7336C440.906 102.413 447.414 113.716 447.414 123.014Z" fill="#FAFBFF"/>
<path d="M338.903 244.26C338.817 244.116 338.666 243.882 338.44 243.57C338.181 243.221 337.904 242.887 337.61 242.569C337.287 242.213 336.942 241.856 336.533 241.511C336.174 241.191 335.788 240.904 335.38 240.654C334.931 240.308 334.376 240.142 333.817 240.187C333.483 240.287 333.311 240.61 333.311 241.166C333.31 241.482 333.376 241.793 333.505 242.079C333.654 242.397 333.838 242.696 334.054 242.969C334.346 243.317 334.655 243.647 334.981 243.96L336.274 245.14C336.91 245.718 337.481 246.252 337.998 246.82C338.487 247.331 338.93 247.886 339.324 248.478C339.673 249.025 339.952 249.616 340.153 250.237C340.353 250.873 340.451 251.538 340.444 252.207C340.484 252.863 340.346 253.518 340.046 254.098C339.931 254.303 339.776 254.481 339.59 254.619C339.404 254.757 339.192 254.853 338.968 254.9C338.452 254.988 337.924 254.946 337.427 254.777C336.794 254.573 336.187 254.293 335.617 253.943C334.576 253.311 333.604 252.565 332.718 251.717C331.774 250.8 330.919 249.79 330.165 248.701L331.242 246.776C331.422 247.077 331.62 247.367 331.835 247.644C332.126 248.022 332.46 248.434 332.858 248.879C333.265 249.341 333.697 249.78 334.151 250.192C334.604 250.611 335.095 250.984 335.617 251.305C337.007 252.129 337.697 252.017 337.697 250.949C337.696 250.604 337.615 250.264 337.459 249.958C337.281 249.592 337.056 249.252 336.791 248.946C336.452 248.555 336.092 248.184 335.714 247.833L334.421 246.486C333.854 245.975 333.314 245.433 332.805 244.861C332.374 244.391 331.991 243.876 331.662 243.325C331.369 242.842 331.138 242.322 330.973 241.779C330.818 241.237 330.741 240.674 330.746 240.109C330.717 239.461 330.843 238.815 331.113 238.228C331.324 237.8 331.687 237.473 332.126 237.316C332.619 237.169 333.141 237.169 333.634 237.316C334.286 237.486 334.91 237.752 335.488 238.106C336.409 238.662 337.256 239.339 338.009 240.12C338.735 240.872 339.405 241.679 340.013 242.535L338.903 244.26Z" fill="#2B303F"/>
<path d="M345.578 259.768C344.529 259.204 343.683 258.357 343.149 257.337C342.571 256.162 342.289 254.877 342.324 253.582V246.542L344.962 247.976V254.392C344.876 255.073 344.991 255.764 345.294 256.388C345.598 257.012 346.078 257.545 346.682 257.928C347.124 258.192 347.65 258.3 348.169 258.235C348.424 258.183 348.663 258.074 348.865 257.918C349.067 257.762 349.227 257.563 349.331 257.337V250.363L351.98 251.797V259.746C351.971 259.993 352.018 260.24 352.12 260.468C352.239 260.661 352.406 260.823 352.608 260.939V263.348C352.383 263.274 352.162 263.19 351.945 263.096L351.469 262.855C351.012 262.607 350.616 262.271 350.307 261.87C350.027 261.496 349.847 261.064 349.784 260.611V259.669C349.575 259.923 349.305 260.126 348.995 260.261C348.686 260.396 348.347 260.46 348.006 260.446C347.149 260.419 346.313 260.185 345.578 259.768Z" fill="#2B303F"/>
<path d="M353.545 258.535C353.527 257.847 353.658 257.163 353.932 256.523C354.142 256.013 354.526 255.58 355.026 255.289C355.552 255.009 356.162 254.895 356.765 254.965C357.58 255.053 358.363 255.308 359.057 255.711C360.187 256.309 361.181 257.103 361.984 258.048C362.758 258.957 363.365 259.977 363.782 261.066L361.173 260.525C360.958 260.013 360.656 259.534 360.28 259.108C359.935 258.711 359.512 258.377 359.034 258.124C358.712 257.933 358.345 257.818 357.964 257.788C357.656 257.772 357.351 257.848 357.094 258.005C356.823 258.195 356.619 258.455 356.507 258.751C356.364 259.152 356.296 259.573 356.307 259.995C356.307 260.492 356.378 260.987 356.518 261.466C356.661 261.942 356.858 262.403 357.106 262.84C357.342 263.255 357.635 263.64 357.976 263.987C358.281 264.306 358.638 264.58 359.034 264.798C359.432 265.026 359.894 265.139 360.362 265.123C360.537 265.117 360.707 265.069 360.856 264.984C361.004 264.898 361.126 264.778 361.208 264.636L363.829 266.875C363.666 267.19 363.416 267.46 363.105 267.659C362.794 267.859 362.432 267.98 362.055 268.011C360.998 268.055 359.954 267.781 359.081 267.232C358.207 266.79 357.414 266.224 356.73 265.556C356.064 264.899 355.484 264.173 355.002 263.392C354.533 262.621 354.158 261.805 353.885 260.958C353.651 260.169 353.536 259.353 353.545 258.535Z" fill="#2B303F"/>
<path d="M364.766 265.064C364.752 264.381 364.868 263.702 365.106 263.064C365.3 262.557 365.646 262.125 366.095 261.831C366.572 261.553 367.123 261.435 367.67 261.496C368.407 261.591 369.115 261.849 369.744 262.253C370.771 262.845 371.671 263.639 372.393 264.588C373.096 265.497 373.65 266.516 374.031 267.605L371.659 267.065C371.466 266.548 371.193 266.066 370.85 265.637C370.553 265.25 370.193 264.918 369.787 264.653C369.491 264.465 369.155 264.354 368.808 264.329C368.529 264.309 368.252 264.385 368.021 264.545C367.778 264.736 367.597 264.996 367.5 265.291C367.361 265.69 367.296 266.112 367.308 266.535C367.307 267.032 367.375 267.527 367.51 268.005C367.636 268.482 367.815 268.942 368.042 269.378C368.255 269.794 368.519 270.179 368.829 270.525C369.104 270.845 369.427 271.119 369.787 271.336C370.142 271.565 370.557 271.679 370.978 271.66C371.137 271.653 371.293 271.604 371.428 271.519C371.564 271.434 371.677 271.315 371.754 271.173L374.116 273.412C373.966 273.725 373.74 273.994 373.459 274.193C373.178 274.391 372.851 274.513 372.51 274.547C371.554 274.589 370.609 274.316 369.818 273.768C369.05 273.312 368.351 272.744 367.744 272.082C367.136 271.428 366.607 270.701 366.17 269.919C365.742 269.155 365.407 268.342 365.17 267.497C364.924 266.709 364.788 265.89 364.766 265.064Z" fill="#2B303F"/>
<path d="M380.247 280.296C379.459 279.813 378.743 279.209 378.121 278.505C377.493 277.805 376.952 277.023 376.51 276.179C376.047 275.365 375.68 274.494 375.414 273.585C375.181 272.751 375.059 271.886 375.053 271.015C375.036 270.269 375.155 269.527 375.403 268.829C375.589 268.26 375.954 267.777 376.438 267.463C376.922 267.149 377.494 267.023 378.055 267.108C378.835 267.206 379.584 267.488 380.247 267.933C381.045 268.41 381.766 269.019 382.384 269.736C383.002 270.441 383.539 271.222 383.984 272.062C384.414 272.872 384.748 273.735 384.981 274.632C385.204 275.457 385.322 276.309 385.332 277.167C385.332 277.365 385.332 277.551 385.332 277.737C385.34 277.88 385.34 278.024 385.332 278.167L377.792 273.516C377.831 273.999 377.927 274.476 378.077 274.934C378.222 275.386 378.413 275.818 378.647 276.225C378.875 276.617 379.143 276.979 379.447 277.307C379.725 277.607 380.038 277.869 380.378 278.086C380.797 278.369 381.286 278.511 381.781 278.493C381.973 278.497 382.162 278.44 382.324 278.331C382.485 278.221 382.613 278.063 382.691 277.877L384.827 279.912C384.651 280.239 384.402 280.516 384.103 280.719C383.803 280.921 383.461 281.044 383.107 281.075C382.099 281.149 381.096 280.875 380.247 280.296ZM382.778 274.644C382.71 273.704 382.432 272.795 381.967 271.992C381.545 271.222 380.945 270.578 380.225 270.12C379.938 269.931 379.617 269.808 379.283 269.759C379.021 269.722 378.754 269.766 378.516 269.887C378.281 270.028 378.091 270.238 377.968 270.492C377.811 270.816 377.725 271.174 377.716 271.539L382.778 274.644Z" fill="#2B303F"/>
<path d="M390.748 285.917C389.86 285.414 389.041 284.805 388.31 284.103C387.534 283.383 386.85 282.574 386.273 281.696L387.219 280.444C387.752 281.179 388.34 281.876 388.978 282.527C389.49 283.038 390.066 283.484 390.693 283.855C391.039 284.096 391.458 284.218 391.884 284.2C392.173 284.146 392.318 283.931 392.318 283.531C392.302 283.098 392.119 282.686 391.806 282.376C391.282 281.826 390.728 281.304 390.147 280.811C389.501 280.26 388.956 279.731 388.499 279.321C388.088 278.946 387.716 278.534 387.386 278.09C387.13 277.737 386.925 277.352 386.774 276.946C386.648 276.558 386.584 276.154 386.585 275.748C386.564 275.277 386.667 274.809 386.885 274.388C387.056 274.061 387.352 273.813 387.709 273.697C388.114 273.591 388.54 273.591 388.945 273.697C389.487 273.823 390.005 274.031 390.481 274.312C391.238 274.738 391.94 275.249 392.574 275.834C393.255 276.482 393.853 277.206 394.355 277.993L393.331 279.137C392.901 278.512 392.413 277.927 391.873 277.389C391.452 276.97 390.977 276.607 390.459 276.309C390.135 276.087 389.741 275.98 389.346 276.007C389.045 276.007 388.911 276.277 388.911 276.709C388.909 276.896 388.943 277.083 389.012 277.259C389.095 277.447 389.208 277.622 389.346 277.777C389.528 277.998 389.725 278.207 389.936 278.403C390.18 278.63 390.492 278.9 390.848 279.202C391.528 279.774 392.118 280.282 392.596 280.768C393.036 281.18 393.435 281.632 393.787 282.117C394.076 282.5 394.305 282.922 394.466 283.369C394.615 283.793 394.69 284.238 394.689 284.686C394.689 285.766 394.333 286.435 393.576 286.662C392.569 286.778 391.555 286.511 390.748 285.917Z" fill="#2B303F"/>
<path d="M400.589 291.523C399.606 291.02 398.7 290.41 397.891 289.709C397.025 288.991 396.263 288.183 395.624 287.301L396.671 286.049C397.268 286.783 397.923 287.479 398.63 288.133C399.196 288.644 399.834 289.09 400.528 289.461C400.911 289.702 401.375 289.823 401.846 289.806C402.166 289.806 402.326 289.536 402.326 289.137C402.304 288.707 402.103 288.3 401.76 287.992C401.175 287.443 400.558 286.921 399.912 286.427C399.209 285.866 398.606 285.347 398.1 284.926C397.646 284.551 397.234 284.139 396.868 283.696C396.582 283.346 396.357 282.96 396.203 282.551C396.064 282.164 395.993 281.759 395.994 281.353C395.973 280.883 396.083 280.417 396.314 279.993C396.506 279.668 396.832 279.421 397.226 279.302C397.673 279.192 398.146 279.192 398.593 279.302C399.199 279.417 399.778 279.621 400.306 279.906C401.139 280.333 401.912 280.844 402.61 281.428C403.368 282.076 404.034 282.801 404.593 283.588L403.46 284.732C402.984 284.104 402.44 283.518 401.834 282.983C401.375 282.562 400.853 282.199 400.281 281.903C399.921 281.684 399.487 281.577 399.049 281.601C398.729 281.601 398.569 281.871 398.569 282.303C398.564 282.492 398.606 282.68 398.692 282.854C398.784 283.039 398.904 283.214 399.049 283.372C399.222 283.555 399.443 283.76 399.714 283.998C399.986 284.235 400.318 284.494 400.725 284.797C401.476 285.369 402.117 285.876 402.659 286.362C403.143 286.778 403.584 287.229 403.977 287.712C404.297 288.095 404.55 288.517 404.729 288.964C404.893 289.388 404.977 289.833 404.975 290.281C404.975 291.361 404.569 292.03 403.743 292.257C403.188 292.323 402.624 292.291 402.083 292.165C401.541 292.04 401.034 291.821 400.589 291.523Z" fill="#2B303F"/>
<path d="M312.654 259.232V263.348L311.462 262.647V252.144L314.836 254.089C315.792 254.629 316.594 255.407 317.164 256.35C317.704 257.189 317.996 258.165 318.008 259.165C318.008 260.182 317.738 260.815 317.187 261.041C316.778 261.134 316.353 261.134 315.944 261.04C315.536 260.946 315.153 260.761 314.825 260.499L312.654 259.232ZM312.654 258.102L314.791 259.346C314.997 259.508 315.236 259.621 315.491 259.678C315.746 259.735 316.01 259.733 316.265 259.673C316.602 259.515 316.771 259.108 316.771 258.452C316.767 257.818 316.592 257.197 316.265 256.655C315.922 256.079 315.443 255.597 314.87 255.253L312.62 253.975L312.654 258.102Z" fill="#798093"/>
<path d="M323.365 269.22C323.276 268.942 323.218 268.656 323.194 268.367C322.889 268.517 322.545 268.583 322.201 268.559C321.857 268.535 321.527 268.421 321.251 268.23C320.575 267.869 320.006 267.359 319.594 266.746C319.186 266.184 318.96 265.527 318.943 264.851C318.943 264.103 319.217 263.651 319.754 263.524C320.569 263.454 321.383 263.664 322.04 264.114L323.182 264.714V264.146C323.182 263.712 323.056 263.287 322.817 262.914C322.538 262.502 322.143 262.167 321.674 261.945C321.523 261.846 321.353 261.775 321.172 261.737C320.992 261.699 320.805 261.695 320.623 261.724C320.488 261.761 320.372 261.84 320.294 261.948C320.217 262.056 320.183 262.185 320.2 262.314L319.057 261.693C319.047 261.534 319.073 261.375 319.134 261.226C319.195 261.077 319.29 260.942 319.411 260.829C319.548 260.723 319.706 260.644 319.877 260.597C320.048 260.549 320.228 260.536 320.406 260.556C320.889 260.6 321.355 260.748 321.765 260.987C322.517 261.376 323.153 261.929 323.617 262.598C324.053 263.228 324.294 263.956 324.314 264.704V268.051C324.301 268.635 324.382 269.216 324.554 269.778V269.883L323.365 269.22ZM321.423 267.241C321.735 267.417 322.097 267.505 322.462 267.493C322.61 267.486 322.754 267.445 322.88 267.373C323.005 267.301 323.11 267.201 323.182 267.083V265.598L322.268 265.104C320.828 264.346 320.12 264.409 320.12 265.304C320.118 265.698 320.245 266.083 320.486 266.409C320.717 266.754 321.04 267.04 321.423 267.241Z" fill="#798093"/>
<path d="M328.355 270.184L329.898 265.131L331.1 265.86L328.454 273.48C328.047 274.555 327.352 274.821 326.492 274.278L326.283 274.127L325.864 273.78V272.624L326.173 272.844C326.426 273.042 326.741 273.133 327.055 273.098C327.275 273.04 327.451 272.809 327.584 272.393L327.837 271.734L325.489 262.414L326.713 263.166L328.355 270.184Z" fill="#798093"/>
<path d="M333.09 267.748V268.613C333.584 268.236 334.212 268.281 335.087 268.758C335.998 269.264 336.679 270.092 336.995 271.077C337.225 270.84 337.539 270.701 337.87 270.688C338.321 270.69 338.761 270.821 339.138 271.066C339.847 271.455 340.432 272.032 340.828 272.732C341.224 273.431 341.416 274.226 341.383 275.027V280.153L340.261 279.498V274.45C340.274 273.956 340.158 273.466 339.924 273.03C339.657 272.584 339.268 272.223 338.802 271.987C338.654 271.874 338.48 271.8 338.296 271.771C338.111 271.742 337.923 271.759 337.747 271.82C337.591 271.913 337.463 272.045 337.376 272.203C337.29 272.361 337.247 272.539 337.253 272.719V277.801L336.131 277.135V272.12C336.154 271.615 336.033 271.114 335.781 270.674C335.528 270.234 335.156 269.874 334.706 269.634C333.954 269.201 333.438 269.268 333.157 269.845V275.393L332.035 274.738V267.082L333.09 267.748Z" fill="#798093"/>
<path d="M346.312 282.504C345.379 281.988 344.614 281.238 344.1 280.335C343.552 279.399 343.262 278.344 343.26 277.272V277.04C343.234 276.447 343.364 275.858 343.636 275.324C343.738 275.129 343.886 274.959 344.068 274.828C344.25 274.696 344.462 274.607 344.686 274.566C345.202 274.507 345.722 274.623 346.157 274.893C347.017 275.37 347.713 276.076 348.158 276.924C348.648 277.877 348.891 278.927 348.866 279.988V280.514L344.388 278.051C344.406 278.769 344.603 279.472 344.963 280.104C345.279 280.692 345.762 281.184 346.356 281.525C346.651 281.719 347.003 281.819 347.362 281.809C347.635 281.79 347.893 281.682 348.092 281.504L348.789 282.472C348.258 283.104 347.417 283.114 346.312 282.504ZM346.179 275.914C346.022 275.801 345.835 275.732 345.639 275.718C345.443 275.703 345.247 275.741 345.073 275.83C344.889 275.98 344.742 276.168 344.642 276.379C344.543 276.59 344.494 276.819 344.498 277.051L347.815 278.872V278.777C347.797 278.176 347.638 277.586 347.351 277.051C347.082 276.573 346.675 276.179 346.179 275.914Z" fill="#798093"/>
<path d="M350.957 277.993V278.932C351.497 278.505 352.159 278.526 353.108 278.932C353.853 279.316 354.463 279.877 354.869 280.553C355.274 281.228 355.46 281.99 355.404 282.754V287.622L354.202 286.992V282.114C354.206 281.639 354.083 281.17 353.841 280.747C353.585 280.354 353.21 280.033 352.76 279.818C352.608 279.722 352.436 279.654 352.255 279.617C352.073 279.581 351.885 279.576 351.702 279.605C351.552 279.637 351.413 279.697 351.292 279.782C351.172 279.867 351.074 279.974 351.005 280.096V285.348L349.803 284.718V277.352L350.957 277.993Z" fill="#798093"/>
<path d="M358.761 279.892V281.795L360.054 282.536V283.573L358.761 282.844V287.722C358.751 288.001 358.811 288.279 358.936 288.531C359.067 288.774 359.27 288.973 359.518 289.101C359.701 289.197 359.892 289.277 360.089 289.34V290.423C359.77 290.34 359.464 290.214 359.18 290.047C358.681 289.758 358.276 289.334 358.015 288.827C357.74 288.274 357.604 287.665 357.619 287.049V282.171L356.349 281.453V280.416L357.619 281.123V279.219L358.761 279.892Z" fill="#798093"/>
<path d="M367.694 293.7C367.845 293.803 368.018 293.873 368.201 293.904C368.384 293.935 368.572 293.927 368.751 293.88C368.907 293.823 369.04 293.72 369.132 293.587C369.224 293.454 369.269 293.296 369.263 293.137L370.375 293.731C370.375 294.095 370.237 294.446 369.986 294.719C369.861 294.842 369.71 294.939 369.544 295.003C369.377 295.067 369.198 295.097 369.018 295.09C368.564 295.08 368.122 294.952 367.739 294.719C366.814 294.2 366.061 293.442 365.569 292.532C365.029 291.55 364.754 290.456 364.768 289.347V289.135C364.743 288.546 364.865 287.96 365.124 287.425C365.219 287.233 365.362 287.066 365.541 286.938C365.719 286.81 365.927 286.726 366.148 286.693C366.708 286.661 367.263 286.807 367.727 287.107C368.492 287.536 369.131 288.142 369.585 288.869C370.063 289.574 370.335 290.388 370.375 291.226L369.263 290.631C369.224 290.12 369.056 289.624 368.773 289.188C368.506 288.747 368.123 288.381 367.661 288.126C367.082 287.807 366.637 287.786 366.314 288.073C365.935 288.573 365.768 289.191 365.847 289.803V290.037C365.829 290.797 365.989 291.551 366.314 292.245C366.603 292.856 367.085 293.365 367.694 293.7Z" fill="#798093"/>
<path d="M371.314 292.901C371.289 292.3 371.411 291.702 371.67 291.165C371.766 290.962 371.909 290.789 372.087 290.66C372.265 290.531 372.472 290.453 372.687 290.431C373.194 290.388 373.7 290.527 374.121 290.825C374.993 291.356 375.7 292.14 376.155 293.081C376.657 294.064 376.919 295.161 376.918 296.275V296.36C376.942 296.955 376.827 297.547 376.583 298.085C376.486 298.287 376.342 298.461 376.164 298.589C375.986 298.717 375.78 298.797 375.565 298.819C375.054 298.858 374.545 298.716 374.121 298.415C373.249 297.888 372.543 297.108 372.087 296.169C371.577 295.189 371.311 294.091 371.314 292.975V292.901ZM372.331 293.678C372.32 294.454 372.48 295.223 372.799 295.924C373.063 296.547 373.503 297.071 374.06 297.425C374.579 297.744 375.006 297.744 375.311 297.425C375.688 296.905 375.856 296.252 375.779 295.605C375.787 294.828 375.627 294.06 375.311 293.358C375.044 292.734 374.605 292.208 374.05 291.847C373.531 291.538 373.114 291.527 372.799 291.847C372.43 292.374 372.273 293.031 372.361 293.678H372.331Z" fill="#798093"/>
<path d="M379.868 293.932V294.794C380.35 294.418 380.989 294.463 381.851 294.938C382.769 295.44 383.456 296.272 383.768 297.26C383.877 297.14 384.01 297.042 384.158 296.974C384.306 296.905 384.467 296.867 384.631 296.862C385.083 296.862 385.524 296.997 385.897 297.249C386.607 297.632 387.194 298.204 387.59 298.9C387.987 299.596 388.177 300.388 388.139 301.186V306.295L387.018 305.642V300.567C387.03 300.076 386.918 299.589 386.693 299.151C386.425 298.711 386.037 298.354 385.572 298.123C385.421 298.012 385.246 297.939 385.061 297.908C384.876 297.877 384.687 297.89 384.508 297.946C384.352 298.038 384.224 298.17 384.138 298.328C384.051 298.485 384.008 298.662 384.014 298.842V303.906L382.894 303.243V298.244C382.916 297.74 382.793 297.24 382.539 296.802C382.285 296.363 381.911 296.005 381.459 295.767C380.708 295.336 380.193 295.414 379.913 295.977V301.507L378.792 300.854V293.224L379.868 293.932Z" fill="#798093"/>
<path d="M395.6 306.846C395.693 307.708 395.441 308.572 394.9 309.252C394.445 309.694 393.79 309.694 393.023 309.252C392.215 308.79 391.556 308.109 391.124 307.287V310.963L390.013 310.312V299.759L391.046 300.355L391.102 301.227C391.568 300.841 392.212 300.874 393.023 301.349C393.856 301.85 394.518 302.588 394.922 303.468C395.408 304.504 395.648 305.637 395.622 306.78L395.6 306.846ZM394.489 306.051C394.505 305.256 394.342 304.468 394.012 303.744C393.747 303.118 393.288 302.592 392.701 302.243C392.012 301.846 391.502 301.901 391.157 302.398V306.04C391.427 306.85 391.978 307.539 392.712 307.983C393.26 308.292 393.693 308.292 394.012 307.983C394.393 307.415 394.551 306.727 394.456 306.051H394.489Z" fill="#798093"/>
<path d="M398.43 312.83L397.495 312.14V300.693L398.43 301.384V312.83Z" fill="#798093"/>
<path d="M402.93 315.179C401.84 314.665 400.946 313.915 400.35 313.01C399.71 312.074 399.373 311.02 399.37 309.947V309.726C399.334 309.13 399.485 308.536 399.809 308C399.926 307.804 400.098 307.634 400.31 307.502C400.523 307.37 400.771 307.281 401.034 307.242C401.63 307.186 402.233 307.302 402.736 307.569C403.746 308.043 404.563 308.749 405.083 309.6C405.655 310.556 405.938 311.61 405.909 312.674V313.21L400.686 310.747C400.706 311.465 400.936 312.169 401.356 312.8C401.722 313.39 402.285 313.883 402.981 314.221C403.327 314.413 403.736 314.515 404.155 314.515C404.472 314.486 404.77 314.375 405.006 314.2L405.818 315.168C405.199 315.778 404.219 315.789 402.93 315.179ZM402.762 308.59C402.579 308.478 402.36 308.41 402.132 308.395C401.904 308.381 401.675 308.419 401.472 308.505C401.258 308.657 401.088 308.845 400.972 309.056C400.856 309.266 400.798 309.495 400.802 309.726L404.671 311.547V311.453C404.647 310.852 404.462 310.263 404.129 309.726C403.818 309.248 403.343 308.853 402.762 308.59Z" fill="#798093"/>
<path d="M408.319 308.824V310.729L409.616 311.471V312.509L408.319 311.767V316.662C408.311 316.942 408.371 317.219 408.493 317.472C408.628 317.715 408.834 317.914 409.084 318.042C409.264 318.141 409.454 318.221 409.651 318.282V319.366C409.33 319.282 409.022 319.155 408.736 318.989C408.237 318.704 407.834 318.279 407.578 317.768C407.303 317.215 407.164 316.605 407.173 315.989V311.106L405.911 310.398V309.349L407.173 310.067V308.162L408.319 308.824Z" fill="#798093"/>
<path d="M413.646 321.683C412.712 321.108 411.948 320.268 411.439 319.257C410.88 318.223 410.587 317.051 410.589 315.859V315.601C410.565 314.937 410.694 314.278 410.965 313.679C411.068 313.465 411.216 313.278 411.398 313.134C411.58 312.99 411.79 312.892 412.013 312.847C412.527 312.781 413.047 312.91 413.481 313.21C414.34 313.742 415.034 314.528 415.479 315.472C415.971 316.531 416.217 317.701 416.196 318.882V319.456L411.715 316.726C411.734 317.521 411.931 318.3 412.289 318.999C412.604 319.657 413.086 320.209 413.68 320.593C413.978 320.81 414.334 320.92 414.695 320.909C414.964 320.888 415.218 320.768 415.412 320.569L416.108 321.647C415.589 322.304 414.761 322.362 413.646 321.683ZM413.514 314.347C413.358 314.221 413.171 314.145 412.975 314.128C412.78 314.112 412.584 314.155 412.41 314.253C412.228 314.42 412.082 314.626 411.982 314.859C411.883 315.092 411.833 315.345 411.836 315.601L415.147 317.628V317.523C415.128 316.857 414.969 316.205 414.684 315.613C414.422 315.076 414.014 314.635 413.514 314.347Z" fill="#798093"/>
<path d="M367.576 160.863C351.557 151.641 338.581 159.119 338.581 177.563C338.581 196.006 351.613 218.431 367.576 227.652C383.539 236.874 396.559 229.407 396.559 210.963C396.559 192.52 383.584 170.084 367.576 160.863ZM362.255 208.354L349.482 186.29L353.744 183.849L362.255 198.548L381.419 187.516L385.681 194.87L362.255 208.354Z" fill="#6AC259"/>
<path d="M371.523 70.1008C373.207 69.1299 373.209 65.986 371.529 63.0786C369.848 60.1713 367.12 58.6015 365.436 59.5724C363.752 60.5433 363.75 63.6872 365.431 66.5945C367.111 69.5019 369.839 71.0717 371.523 70.1008Z" fill="#2B303F"/>
<path opacity="0.1" d="M368.472 66.9074C367.953 66.5619 367.523 66.0997 367.215 65.5579C366.907 65.0161 366.731 64.4098 366.7 63.7876C366.7 62.6363 367.518 62.1782 368.51 62.7477C369.034 63.0906 369.471 63.5513 369.785 64.0931C370.1 64.6348 370.283 65.2425 370.319 65.8675C370.282 67.0188 369.464 67.4893 368.472 66.9074Z" fill="white"/>
<path opacity="0.3" d="M183.204 389.196C216.635 389.196 243.737 373.571 243.737 354.297C243.737 335.022 216.635 319.398 183.204 319.398C149.772 319.398 122.671 335.022 122.671 354.297C122.671 373.571 149.772 389.196 183.204 389.196Z" fill="#D6D8E5"/>
<path d="M189.253 380.097C222.685 380.097 249.786 364.472 249.786 345.197C249.786 325.923 222.685 310.298 189.253 310.298C155.822 310.298 128.72 325.923 128.72 345.197C128.72 364.472 155.822 380.097 189.253 380.097Z" fill="#DD990E"/>
<path d="M128.732 345.73V329.834L140.695 340.468L128.732 345.73Z" fill="#DD990E"/>
<path d="M249.786 330.242V345.197L243.675 351.685L240.675 334.563L249.786 330.242Z" fill="#DD990E"/>
<path d="M189.253 365.142C222.685 365.142 249.786 349.517 249.786 330.242C249.786 310.968 222.685 295.343 189.253 295.343C155.822 295.343 128.72 310.968 128.72 330.242C128.72 349.517 155.822 365.142 189.253 365.142Z" fill="#F9CB07"/>
<path d="M232.518 331.332C231.898 337.2 227.708 342.994 219.898 347.5C202.976 357.256 175.53 357.256 158.608 347.5C150.811 342.994 146.608 337.2 146.013 331.332C145.282 324.449 149.485 317.417 158.608 312.168C175.53 302.4 202.976 302.4 219.898 312.168C229.022 317.417 233.237 324.449 232.518 331.332Z" fill="#CC8B09"/>
<path d="M232.518 331.332C231.898 337.2 227.708 342.994 219.898 347.5C202.976 357.256 175.53 357.256 158.609 347.5C150.811 342.994 146.609 337.2 146.014 331.332C146.609 325.451 150.811 319.657 158.609 315.151C175.53 305.383 202.976 305.383 219.898 315.151C227.708 319.657 231.898 325.451 232.518 331.332Z" fill="#E8A30A"/>
<path d="M188.621 323.149C188.09 323.147 187.559 323.189 187.034 323.272C186.315 323.384 185.522 323.52 184.642 323.706C183.761 323.891 182.832 324.127 181.877 324.411C180.946 324.687 180.039 325.035 179.162 325.451L186.129 329.462L187.369 329.017C189.142 328.435 190.815 327.927 192.328 327.519C193.804 327.126 195.315 326.877 196.84 326.776C198.227 326.688 199.619 326.784 200.98 327.061C202.377 327.357 203.716 327.875 204.947 328.596C206.155 329.206 207.188 330.114 207.947 331.233C208.199 331.632 208.367 332.078 208.441 332.544C208.516 333.01 208.495 333.486 208.381 333.944C208.088 334.967 207.528 335.895 206.757 336.63C205.797 337.579 204.728 338.41 203.571 339.106L207.997 341.657L205.592 343.056L201.129 340.481C198.998 341.515 196.773 342.345 194.485 342.957C192.086 343.622 189.635 344.081 187.158 344.331L184.877 340.208C185.528 340.193 186.178 340.143 186.823 340.06C187.806 339.945 188.783 339.779 189.749 339.565C190.815 339.329 191.956 339.045 193.146 338.698C194.308 338.371 195.443 337.957 196.542 337.46L189.625 333.461L188.72 333.783L187.778 334.068C186.03 334.637 184.431 335.083 182.98 335.417C181.641 335.728 180.276 335.91 178.902 335.962C177.694 336.006 176.486 335.893 175.307 335.628C174.133 335.339 173.006 334.885 171.96 334.278C170.819 333.681 169.828 332.834 169.059 331.802C168.505 331.024 168.23 330.082 168.278 329.128C168.38 328.133 168.782 327.192 169.431 326.429C170.228 325.433 171.178 324.568 172.245 323.867L168.142 321.502L170.559 320.116L174.613 322.455C176.521 321.515 178.524 320.781 180.588 320.264C182.552 319.766 184.549 319.406 186.563 319.187L188.621 323.149ZM176.794 330.44C177.708 330.96 178.76 331.185 179.807 331.084C181.215 330.918 182.603 330.607 183.947 330.156L177.439 326.442C175.047 327.964 174.836 329.301 176.794 330.44ZM199.642 332.335C198.646 331.796 197.502 331.592 196.381 331.753C194.863 331.967 193.366 332.311 191.906 332.78L198.377 336.494C201.08 334.798 201.526 333.424 199.642 332.335Z" fill="#CC8B09"/>
<path d="M184.877 340.208C184.877 340.047 184.877 337.868 184.877 337.868L187.53 339.577L186.377 341.347L184.877 340.208Z" fill="#CC8B09"/>
<path d="M208.059 341.682V339.342L202.294 339.775L205.604 342.028L208.059 341.682Z" fill="#CC8B09"/>
<path d="M208.543 333.077V330.713L204.229 332.273L208.543 333.077Z" fill="#CC8B09"/>
<path d="M190.667 332.954L192.092 331.579L197.15 335.071L196.84 336.098C196.84 336.098 193.059 334.513 192.935 334.427C192.811 334.34 190.667 332.954 190.667 332.954Z" fill="#CC8B09"/>
<path d="M177.452 325.575L184.171 329.363L185.534 328.373C185.534 328.373 184.691 327.407 184.629 327.321C184.033 326.631 183.33 326.042 182.547 325.575C182.038 325.476 178.828 324.052 178.828 324.052L177.452 325.575Z" fill="#CC8B09"/>
<path d="M188.621 323.149V320.809L185.534 319.806L184.877 321.638L185.039 322.48L188.621 323.149Z" fill="#CC8B09"/>
<path d="M168.142 321.453V319.113L171.712 319.497L170.559 321.775L168.142 321.453Z" fill="#CC8B09"/>
<path d="M168.266 329.413V326.937H172.357L171.352 329.116L169.592 331.109L168.266 329.413Z" fill="#CC8B09"/>
<path d="M188.621 320.809C188.09 320.808 187.559 320.849 187.034 320.933C186.315 321.032 185.522 321.18 184.642 321.366C183.761 321.552 182.832 321.787 181.877 322.072C180.949 322.349 180.041 322.692 179.162 323.099L186.129 327.11L187.369 326.677C189.142 326.083 190.815 325.588 192.328 325.179C193.804 324.786 195.315 324.537 196.84 324.436C198.226 324.35 199.618 324.442 200.98 324.709C202.377 325.009 203.716 325.532 204.947 326.256C206.155 326.866 207.188 327.774 207.947 328.893C208.199 329.292 208.367 329.738 208.441 330.204C208.516 330.67 208.495 331.146 208.381 331.604C208.088 332.624 207.527 333.547 206.757 334.278C205.8 335.23 204.73 336.061 203.571 336.754L208.022 339.342L205.617 340.728L201.154 338.153C199.026 339.193 196.8 340.023 194.509 340.629C192.11 341.29 189.659 341.746 187.183 341.991L184.852 337.819C185.503 337.803 186.153 337.754 186.799 337.67C187.679 337.571 188.646 337.398 189.724 337.175C190.803 336.952 191.931 336.643 193.121 336.296C194.283 335.969 195.418 335.556 196.518 335.058L189.6 331.072L188.695 331.381L187.753 331.678C186.009 332.248 184.41 332.694 182.956 333.016C181.618 333.332 180.251 333.515 178.877 333.56C177.669 333.604 176.461 333.492 175.282 333.226C174.104 332.948 172.976 332.493 171.935 331.877C170.794 331.279 169.803 330.433 169.034 329.401C168.48 328.622 168.205 327.68 168.253 326.726C168.358 325.728 168.759 324.784 169.406 324.015C170.207 323.026 171.156 322.166 172.22 321.465L168.142 319.162L170.559 317.763L174.613 320.116C176.521 319.176 178.524 318.441 180.588 317.924C182.552 317.426 184.549 317.066 186.563 316.847L188.621 320.809ZM176.794 328.088C177.703 328.621 178.758 328.851 179.807 328.744C181.215 328.578 182.603 328.267 183.947 327.816L177.439 324.102C175.051 325.629 174.836 326.958 176.794 328.088ZM199.642 329.995C198.648 329.45 197.503 329.245 196.381 329.413C194.842 329.61 193.323 329.946 191.844 330.416L198.315 334.13C201.084 332.454 201.526 331.076 199.642 329.995Z" fill="#F9CA06"/>
<path d="M189.253 360.524C222.685 360.524 249.786 344.899 249.786 325.625C249.786 306.35 222.685 290.725 189.253 290.725C155.822 290.725 128.72 306.35 128.72 325.625C128.72 344.899 155.822 360.524 189.253 360.524Z" fill="#DD990E"/>
<path d="M128.732 326.145V310.249L140.695 320.883L128.732 326.145Z" fill="#DD990E"/>
<path d="M249.786 310.67V325.625L243.675 332.099L240.675 314.978L249.786 310.67Z" fill="#DD990E"/>
<path d="M189.253 345.569C222.685 345.569 249.786 329.944 249.786 310.67C249.786 291.395 222.685 275.77 189.253 275.77C155.822 275.77 128.72 291.395 128.72 310.67C128.72 329.944 155.822 345.569 189.253 345.569Z" fill="#F9CB07"/>
<path d="M232.518 311.734C231.898 317.615 227.708 323.396 219.898 327.903C202.976 337.658 175.53 337.658 158.608 327.903C150.811 323.396 146.608 317.615 146.013 311.734C145.282 304.851 149.485 297.819 158.608 292.57C175.53 282.802 202.976 282.802 219.898 292.57C229.022 297.832 233.237 304.863 232.518 311.734Z" fill="#CC8B09"/>
<path d="M232.518 311.734C231.898 317.615 227.708 323.396 219.898 327.903C202.976 337.658 175.53 337.658 158.609 327.903C150.811 323.396 146.609 317.615 146.014 311.734C146.609 305.854 150.811 300.072 158.609 295.566C175.53 285.798 202.976 285.798 219.898 295.566C227.708 300.085 231.898 305.866 232.518 311.734Z" fill="#E8A30A"/>
<path d="M188.621 303.563C188.089 303.568 187.559 303.613 187.034 303.7C186.315 303.799 185.522 303.935 184.642 304.121C183.761 304.306 182.832 304.554 181.877 304.839C180.947 305.11 180.039 305.453 179.162 305.866L186.129 309.877L187.369 309.444C189.142 308.85 190.815 308.355 192.328 307.946C193.804 307.553 195.315 307.304 196.84 307.203C198.226 307.111 199.618 307.203 200.98 307.476C202.377 307.776 203.716 308.299 204.947 309.023C206.154 309.629 207.187 310.533 207.947 311.648C208.198 312.05 208.366 312.498 208.441 312.965C208.515 313.433 208.495 313.911 208.381 314.371C208.088 315.391 207.527 316.314 206.757 317.045C205.797 317.993 204.728 318.825 203.571 319.521L207.997 322.072L205.592 323.458L201.129 320.883C198.998 321.918 196.773 322.747 194.485 323.359C192.084 324.014 189.634 324.47 187.158 324.721L184.828 320.549C185.478 320.533 186.128 320.483 186.774 320.4C187.654 320.289 188.621 320.128 189.699 319.893C190.778 319.657 191.906 319.373 193.096 319.026C194.258 318.699 195.393 318.285 196.493 317.788L189.575 313.802L188.671 314.111L187.728 314.396C186.153 314.927 184.552 315.378 182.931 315.745C181.592 316.056 180.226 316.238 178.852 316.29C177.645 316.334 176.436 316.222 175.257 315.956C174.081 315.673 172.954 315.218 171.91 314.606C170.769 314.009 169.778 313.163 169.009 312.13C168.457 311.347 168.182 310.401 168.228 309.444C168.331 308.449 168.733 307.508 169.381 306.745C170.179 305.753 171.129 304.892 172.195 304.195L168.142 301.83L170.559 300.431L174.613 302.771C176.521 301.831 178.524 301.097 180.588 300.58C182.553 300.088 184.549 299.728 186.563 299.503L188.621 303.563ZM176.794 310.855C177.705 311.384 178.76 311.609 179.807 311.499C181.217 311.345 182.606 311.034 183.947 310.571L177.439 306.857C175.051 308.392 174.836 309.725 176.794 310.855ZM199.642 312.762C198.65 312.212 197.503 312.007 196.381 312.18C194.843 312.378 193.325 312.709 191.844 313.17L198.315 316.884C201.084 315.217 201.526 313.843 199.642 312.762Z" fill="#CC8B09"/>
<path d="M184.877 320.623C184.877 320.45 184.877 318.271 184.877 318.271L187.53 319.979L186.377 321.762L184.877 320.623Z" fill="#CC8B09"/>
<path d="M208.059 322.109V319.757L202.294 320.202L205.604 322.455L208.059 322.109Z" fill="#CC8B09"/>
<path d="M208.543 313.505V311.128L204.229 312.688L208.543 313.505Z" fill="#CC8B09"/>
<path d="M190.667 313.381L192.092 312.007L197.15 315.498L196.84 316.525C196.84 316.525 193.059 314.928 192.935 314.842C192.811 314.755 190.667 313.381 190.667 313.381Z" fill="#CC8B09"/>
<path d="M177.452 305.99L184.171 309.791L185.534 308.8C185.534 308.8 184.691 307.835 184.629 307.736C184.03 307.05 183.327 306.461 182.547 305.99C182.038 305.891 178.828 304.467 178.828 304.467L177.452 305.99Z" fill="#CC8B09"/>
<path d="M188.621 303.576V301.224L185.534 300.221L184.877 302.065L185.039 302.907L188.621 303.576Z" fill="#CC8B09"/>
<path d="M168.142 301.88V299.528L171.712 299.911L170.559 302.189L168.142 301.88Z" fill="#CC8B09"/>
<path d="M168.266 309.828V307.352H172.357L171.352 309.531L169.592 311.524L168.266 309.828Z" fill="#CC8B09"/>
<path d="M188.621 301.224C188.089 301.222 187.559 301.264 187.034 301.347C186.315 301.459 185.522 301.595 184.641 301.781C183.761 301.966 182.832 302.202 181.877 302.486C180.946 302.762 180.039 303.11 179.162 303.526L186.129 307.537L187.369 307.092C189.141 306.51 190.815 306.002 192.327 305.594C193.804 305.201 195.315 304.952 196.84 304.851C198.227 304.763 199.619 304.859 200.98 305.136C202.376 305.432 203.716 305.95 204.947 306.671C206.177 307.257 207.235 308.148 208.022 309.258C208.273 309.658 208.441 310.104 208.516 310.57C208.59 311.036 208.57 311.512 208.456 311.97C208.156 313.016 207.578 313.962 206.782 314.705C205.825 315.657 204.755 316.489 203.596 317.181L208.022 319.732L205.617 321.131L201.154 318.556C199.023 319.591 196.798 320.42 194.509 321.032C192.111 321.697 189.66 322.156 187.183 322.406L184.852 318.221C185.503 318.206 186.153 318.156 186.799 318.073C187.782 317.958 188.758 317.793 189.724 317.578C190.79 317.342 191.931 317.058 193.121 316.711C194.283 316.384 195.418 315.97 196.518 315.473L189.6 311.474L188.695 311.796L187.753 312.081C186.005 312.65 184.406 313.096 182.956 313.43C181.616 313.741 180.251 313.923 178.877 313.975C177.669 314.019 176.461 313.907 175.282 313.641C174.108 313.352 172.981 312.898 171.935 312.291C170.794 311.694 169.803 310.847 169.034 309.815C168.48 309.037 168.205 308.095 168.253 307.141C168.356 306.146 168.757 305.205 169.406 304.442C170.203 303.446 171.153 302.581 172.22 301.88L168.117 299.515L170.534 298.129L174.588 300.468C176.496 299.529 178.499 298.794 180.563 298.277C182.527 297.779 184.524 297.419 186.538 297.2L188.621 301.224ZM176.794 308.515C177.708 309.035 178.76 309.26 179.807 309.159C181.216 308.999 182.605 308.688 183.947 308.231L177.439 304.517C175.046 306.039 174.836 307.377 176.794 308.515ZM199.642 310.41C198.646 309.871 197.502 309.667 196.381 309.828C194.843 310.031 193.325 310.366 191.844 310.831L198.315 314.545C201.08 312.873 201.526 311.499 199.642 310.41Z" fill="#F9CA06"/>
<path d="M193.171 338.327C226.602 338.327 253.704 322.702 253.704 303.427C253.704 284.153 226.602 268.528 193.171 268.528C159.739 268.528 132.638 284.153 132.638 303.427C132.638 322.702 159.739 338.327 193.171 338.327Z" fill="#DD990E"/>
<path d="M132.663 303.96V288.051L144.613 298.698L132.663 303.96Z" fill="#DD990E"/>
<path d="M253.704 288.472V303.427L247.592 309.914L244.592 292.793L253.704 288.472Z" fill="#DD990E"/>
<path d="M193.171 323.371C226.602 323.371 253.704 307.747 253.704 288.472C253.704 269.198 226.602 253.573 193.171 253.573C159.739 253.573 132.638 269.198 132.638 288.472C132.638 307.747 159.739 323.371 193.171 323.371Z" fill="#F9CB07"/>
<path d="M236.435 289.549C235.816 295.43 231.625 301.224 223.828 305.73C206.894 315.473 179.46 315.473 162.526 305.73C154.729 301.224 150.539 295.43 149.931 289.549C149.2 282.678 153.415 275.647 162.526 270.398C179.46 260.63 206.894 260.63 223.828 270.398C232.94 275.647 237.154 282.678 236.435 289.549Z" fill="#CC8B09"/>
<path d="M236.435 289.549C235.815 295.43 231.625 301.224 223.828 305.73C206.894 315.473 179.46 315.473 162.526 305.73C154.729 301.224 150.539 295.43 149.931 289.549C150.539 283.681 154.729 277.887 162.526 273.381C179.46 263.613 206.894 263.613 223.828 273.381C231.576 277.887 235.815 283.681 236.435 289.549Z" fill="#E8A30A"/>
<path d="M192.539 281.379C192.007 281.377 191.477 281.419 190.952 281.502C190.245 281.601 189.44 281.75 188.559 281.936C187.679 282.121 186.749 282.357 185.807 282.641C184.875 282.92 183.964 283.264 183.08 283.669L190.047 287.692L191.287 287.247C193.047 286.665 194.721 286.157 196.245 285.749C197.717 285.355 199.225 285.106 200.745 285.006C202.136 284.918 203.532 285.014 204.898 285.291C206.29 285.587 207.626 286.105 208.853 286.826C210.061 287.436 211.093 288.344 211.853 289.463C212.103 289.863 212.271 290.308 212.348 290.774C212.425 291.239 212.408 291.715 212.299 292.174C211.994 293.195 211.431 294.121 210.663 294.86C209.705 295.806 208.64 296.637 207.489 297.336L211.915 299.887L209.497 301.286L205.035 298.711C202.904 299.745 200.679 300.575 198.39 301.187C195.996 301.853 193.549 302.312 191.076 302.561L188.733 298.376C189.388 298.36 190.042 298.311 190.692 298.228C191.67 298.112 192.643 297.946 193.605 297.733C194.683 297.497 195.811 297.213 197.002 296.866C198.166 296.534 199.305 296.12 200.411 295.628L193.481 291.642L192.576 291.951L191.634 292.248C189.886 292.818 188.299 293.263 186.849 293.585C185.506 293.899 184.136 294.085 182.758 294.142C181.549 294.187 180.34 294.07 179.163 293.796C177.987 293.517 176.859 293.066 175.816 292.459C174.679 291.86 173.692 291.014 172.927 289.983C172.362 289.21 172.086 288.264 172.146 287.309C172.248 286.312 172.645 285.368 173.287 284.597C174.105 283.594 175.075 282.725 176.163 282.022L172.072 279.683L174.489 278.296L178.555 280.636C180.462 279.692 182.465 278.957 184.53 278.445C186.494 277.944 188.491 277.584 190.506 277.367L192.539 281.379ZM180.749 288.658C181.66 289.186 182.714 289.416 183.762 289.314C185.174 289.148 186.566 288.837 187.915 288.386L181.394 284.672C178.981 286.207 178.766 287.536 180.749 288.658ZM203.609 290.565C202.612 290.028 201.47 289.824 200.349 289.983C198.805 290.18 197.282 290.515 195.799 290.985L202.27 294.699C205.014 293.024 205.448 291.646 203.572 290.565H203.609Z" fill="#CC8B09"/>
<path d="M188.795 298.426C188.869 298.252 188.795 296.086 188.795 296.086L191.46 297.794L190.307 299.565L188.795 298.426Z" fill="#CC8B09"/>
<path d="M211.976 299.911V297.572L206.212 298.005L209.522 300.258L211.976 299.911Z" fill="#CC8B09"/>
<path d="M212.46 291.307V288.943L208.146 290.503L212.46 291.307Z" fill="#CC8B09"/>
<path d="M194.609 291.184L196.047 289.809L201.105 293.3L200.782 294.328C200.782 294.328 197.063 292.743 196.89 292.644L194.609 291.184Z" fill="#CC8B09"/>
<path d="M181.381 283.793L188.088 287.593L189.464 286.603C189.464 286.603 188.621 285.637 188.559 285.538C187.951 284.856 187.245 284.267 186.464 283.793C185.968 283.706 182.745 282.282 182.745 282.282L181.381 283.793Z" fill="#CC8B09"/>
<path d="M192.539 281.379V279.039L189.464 278.036L188.795 279.868L188.956 280.71L192.539 281.379Z" fill="#CC8B09"/>
<path d="M172.059 279.682V277.343L175.642 277.726L174.476 279.992L172.059 279.682Z" fill="#CC8B09"/>
<path d="M172.195 287.643V285.167H176.286L175.294 287.346L173.509 289.302L172.195 287.643Z" fill="#CC8B09"/>
<path d="M192.539 279.039C192.007 279.031 191.476 279.072 190.952 279.163C190.245 279.262 189.44 279.41 188.559 279.596C187.679 279.782 186.749 280.017 185.807 280.301C184.875 280.581 183.964 280.924 183.08 281.329L190.047 285.34L191.287 284.907C193.047 284.313 194.721 283.817 196.245 283.409C197.717 283.015 199.225 282.766 200.745 282.666C202.136 282.574 203.532 282.666 204.898 282.938C206.291 283.239 207.626 283.762 208.853 284.486C210.061 285.096 211.093 286.004 211.853 287.123C212.103 287.523 212.271 287.968 212.348 288.434C212.425 288.899 212.408 289.375 212.299 289.834C211.995 290.852 211.431 291.774 210.663 292.508C209.707 293.457 208.642 294.288 207.489 294.984L211.915 297.534L209.497 298.921L205.035 296.346C202.904 297.381 200.679 298.21 198.39 298.822C195.994 299.478 193.548 299.934 191.076 300.184L188.733 296.012C189.388 295.996 190.042 295.946 190.692 295.863C191.559 295.764 192.526 295.591 193.605 295.356C194.683 295.12 195.811 294.836 197.002 294.489C198.167 294.162 199.307 293.748 200.411 293.251L193.481 289.265L192.576 289.574L191.634 289.859C190.063 290.39 188.466 290.841 186.849 291.208C185.505 291.518 184.135 291.701 182.758 291.753C181.55 291.796 180.342 291.683 179.163 291.419C177.985 291.141 176.856 290.686 175.816 290.069C174.676 289.476 173.687 288.629 172.927 287.593C172.36 286.817 172.084 285.866 172.146 284.907C172.245 283.913 172.643 282.972 173.287 282.208C174.088 281.219 175.037 280.358 176.101 279.658L172.072 277.343L174.489 275.944L178.555 278.296C180.457 277.341 182.462 276.606 184.53 276.105C186.495 275.606 188.491 275.242 190.506 275.015L192.539 279.039ZM180.749 286.318C181.66 286.847 182.715 287.072 183.762 286.962C185.177 286.808 186.569 286.497 187.915 286.033L181.394 282.319C178.981 283.855 178.766 285.187 180.749 286.318ZM203.572 288.212C202.577 287.67 201.433 287.466 200.311 287.63C198.769 287.828 197.247 288.16 195.762 288.621L202.233 292.335C205.002 290.676 205.448 289.302 203.572 288.212Z" fill="#F9CA06"/>
<path d="M191.869 316.142C158.437 316.142 131.336 300.517 131.336 281.242C131.336 261.968 158.437 246.343 191.869 246.343C225.3 246.343 252.402 261.968 252.402 281.242C252.402 300.517 225.3 316.142 191.869 316.142Z" fill="#DD990E"/>
<path d="M252.39 281.762V265.866L240.427 276.501L252.39 281.762Z" fill="#DD990E"/>
<path d="M131.336 266.287V281.242L137.447 287.717L140.447 270.595L131.336 266.287Z" fill="#DD990E"/>
<path d="M191.869 301.186C158.437 301.186 131.336 285.562 131.336 266.287C131.336 247.013 158.437 231.388 191.869 231.388C225.3 231.388 252.402 247.013 252.402 266.287C252.402 285.562 225.3 301.186 191.869 301.186Z" fill="#F9CB07"/>
<path d="M148.605 267.364C149.224 273.245 153.414 279.026 161.224 283.533C178.146 293.288 205.592 293.288 222.514 283.533C230.323 279.026 234.514 273.245 235.109 267.364C235.84 260.481 231.638 253.449 222.514 248.2C205.592 238.432 178.146 238.432 161.224 248.2C152.1 253.449 147.886 260.481 148.605 267.364Z" fill="#CC8B09"/>
<path d="M148.604 267.364C149.224 273.245 153.414 279.026 161.224 283.533C178.146 293.288 205.592 293.288 222.513 283.533C230.323 279.026 234.513 273.245 235.108 267.364C234.513 261.484 230.323 255.69 222.513 251.196C205.592 241.428 178.146 241.428 161.224 251.196C153.402 255.69 149.224 261.484 148.604 267.364Z" fill="#E8A30A"/>
<path d="M193.19 259.181C192.659 259.185 192.128 259.231 191.603 259.317C190.884 259.416 190.091 259.552 189.199 259.738C188.306 259.924 187.401 260.159 186.446 260.444C185.518 260.725 184.61 261.072 183.732 261.484L190.686 265.495L191.926 265.062C193.699 264.467 195.372 263.972 196.884 263.564C198.361 263.17 199.872 262.922 201.397 262.821C202.783 262.729 204.175 262.821 205.537 263.093C206.934 263.394 208.273 263.916 209.504 264.641C210.711 265.247 211.744 266.15 212.504 267.265C212.755 267.667 212.923 268.115 212.998 268.583C213.072 269.051 213.052 269.529 212.938 269.989C212.645 271.009 212.084 271.932 211.314 272.663C210.355 273.612 209.285 274.443 208.128 275.139L212.554 277.702L210.149 279.088L205.674 276.513C203.55 277.555 201.329 278.385 199.041 278.989C196.643 279.654 194.192 280.114 191.715 280.363L189.384 276.191C190.035 276.175 190.685 276.126 191.331 276.043C192.211 275.931 193.178 275.77 194.256 275.535C195.335 275.3 196.463 275.015 197.653 274.668C198.815 274.342 199.95 273.928 201.05 273.43L194.132 269.444L193.227 269.754L192.285 270.038C190.537 270.608 188.938 271.066 187.488 271.388C186.149 271.698 184.783 271.88 183.409 271.932C182.197 271.976 180.985 271.863 179.802 271.598C178.63 271.315 177.506 270.86 176.467 270.249C175.326 269.651 174.335 268.805 173.566 267.773C173.014 266.989 172.739 266.044 172.785 265.086C172.884 264.092 173.282 263.152 173.926 262.387C174.731 261.397 175.684 260.537 176.752 259.837L172.649 257.473L175.054 256.074L179.12 258.414C181.028 257.474 183.031 256.739 185.095 256.222C187.061 255.73 189.057 255.37 191.07 255.145L193.19 259.181ZM181.351 266.473C182.268 266.998 183.325 267.223 184.376 267.117C185.787 266.963 187.176 266.651 188.517 266.188L181.996 262.474C179.616 263.997 179.393 265.346 181.351 266.473ZM204.211 268.404C203.216 267.864 202.07 267.663 200.951 267.835C199.408 268.033 197.886 268.364 196.401 268.825L202.884 272.539C205.653 270.847 206.095 269.469 204.211 268.404Z" fill="#CC8B09"/>
<path d="M196.245 276.241C196.183 276.067 196.245 273.889 196.245 273.889L193.592 275.597L194.745 277.38L196.245 276.241Z" fill="#CC8B09"/>
<path d="M212.616 277.726V275.374L206.864 275.82L210.174 278.073L212.616 277.726Z" fill="#CC8B09"/>
<path d="M193.191 259.181V256.841L190.104 255.838L189.447 257.683L189.608 258.525L193.191 259.181Z" fill="#CC8B09"/>
<path d="M172.711 257.497V255.145L176.281 255.529L175.128 257.807L172.711 257.497Z" fill="#CC8B09"/>
<path d="M193.19 256.841C192.659 256.84 192.128 256.881 191.603 256.965C190.884 257.077 190.091 257.213 189.199 257.398C188.306 257.584 187.401 257.819 186.446 258.104C185.516 258.38 184.608 258.727 183.732 259.144L190.686 263.155L191.926 262.709C193.699 262.128 195.372 261.62 196.884 261.211C198.361 260.818 199.872 260.569 201.397 260.469C202.784 260.381 204.176 260.477 205.537 260.753C206.933 261.05 208.273 261.568 209.504 262.288C210.71 262.902 211.742 263.809 212.504 264.925C212.756 265.325 212.924 265.771 212.998 266.237C213.073 266.703 213.052 267.179 212.938 267.637C212.645 268.66 212.084 269.587 211.314 270.323C210.351 271.268 209.282 272.099 208.128 272.799L212.554 275.349L210.149 276.748L205.674 274.173C203.548 275.21 201.327 276.04 199.041 276.649C196.643 277.314 194.192 277.774 191.715 278.023L189.384 273.839C190.035 273.823 190.685 273.774 191.331 273.69C192.314 273.576 193.29 273.41 194.256 273.195C195.323 272.96 196.463 272.675 197.653 272.329C198.815 272.002 199.95 271.588 201.05 271.091L194.194 267.166L193.289 267.488L192.347 267.773C190.599 268.342 189 268.788 187.55 269.122C186.211 269.432 184.845 269.614 183.471 269.667C182.259 269.71 181.047 269.598 179.864 269.333C178.694 269.044 177.571 268.589 176.529 267.983C175.389 267.386 174.397 266.539 173.628 265.507C173.074 264.729 172.799 263.787 172.847 262.833C172.946 261.839 173.344 260.899 173.988 260.134C174.793 259.14 175.746 258.276 176.814 257.572L172.711 255.207L175.116 253.821L179.182 256.16C181.09 255.221 183.093 254.486 185.157 253.969C187.121 253.471 189.118 253.111 191.132 252.892L193.19 256.841ZM181.351 264.133C182.27 264.652 183.326 264.876 184.376 264.777C185.785 264.611 187.172 264.3 188.517 263.848L181.996 260.134C179.616 261.657 179.393 262.994 181.351 264.133ZM204.211 266.027C203.215 265.488 202.072 265.284 200.951 265.445C199.408 265.648 197.886 265.984 196.401 266.448L202.884 270.162C205.649 268.491 206.095 267.166 204.211 266.027Z" fill="#F9CA06"/>
<path opacity="0.3" d="M452.286 606.861C485.718 606.861 512.82 591.236 512.82 571.962C512.82 552.688 485.718 537.063 452.286 537.063C418.855 537.063 391.753 552.688 391.753 571.962C391.753 591.236 418.855 606.861 452.286 606.861Z" fill="#D6D8E5"/>
<path d="M459.451 599.978C492.883 599.978 519.984 584.353 519.984 565.078C519.984 545.804 492.883 530.179 459.451 530.179C426.02 530.179 398.918 545.804 398.918 565.078C398.918 584.353 426.02 599.978 459.451 599.978Z" fill="#DD990E"/>
<path d="M398.943 565.611V549.702L410.894 560.349L398.943 565.611Z" fill="#DD990E"/>
<path d="M459.452 585.023C492.883 585.023 519.985 569.398 519.985 550.123C519.985 530.849 492.883 515.224 459.452 515.224C426.02 515.224 398.918 530.849 398.918 550.123C398.918 569.398 426.02 585.023 459.452 585.023Z" fill="#F9CB07"/>
<path d="M459.451 580.405C492.883 580.405 519.984 564.78 519.984 545.506C519.984 526.231 492.883 510.606 459.451 510.606C426.02 510.606 398.918 526.231 398.918 545.506C398.918 564.78 426.02 580.405 459.451 580.405Z" fill="#DD990E"/>
<path d="M398.943 546.026V530.13L410.894 540.764L398.943 546.026Z" fill="#DD990E"/>
<path d="M459.452 565.438C492.883 565.438 519.985 549.813 519.985 530.538C519.985 511.264 492.883 495.639 459.452 495.639C426.02 495.639 398.918 511.264 398.918 530.538C398.918 549.813 426.02 565.438 459.452 565.438Z" fill="#F9CB07"/>
<path opacity="0.3" d="M228.03 618.758L3.1046 489.09C-0.0193657 487.295 0.377328 484.138 3.97237 482.095L129.662 409.623C133.257 407.543 138.7 407.32 141.811 409.115L366.7 538.808C369.811 540.603 369.427 543.76 365.832 545.815L240.179 618.275C236.534 620.355 231.142 620.578 228.03 618.758Z" fill="#D6D8E5"/>
<path d="M374.051 533.968L371.696 534.822L147.018 405.278C143.906 403.482 138.464 403.705 134.869 405.773L9.17912 478.245C8.66374 478.539 8.18162 478.888 7.7411 479.285L6.21631 478.047V482.157C6.25277 482.809 6.46729 483.439 6.8366 483.978C7.20591 484.517 7.71592 484.945 8.31135 485.215L233.237 614.945C236.349 616.74 241.791 616.505 245.386 614.438L371.076 542.002C373.109 540.764 374.113 539.316 374.051 537.904V533.968Z" fill="#DADCE5"/>
<path d="M233.237 610.984L8.31114 481.34C5.18718 479.545 5.58387 476.388 9.17891 474.346L134.881 401.824C138.476 399.744 143.919 399.521 147.03 401.316L371.943 531.009C375.067 532.804 374.671 535.961 371.076 538.016L245.386 610.476C241.79 612.568 236.348 612.779 233.237 610.984Z" fill="#F8F9FF"/>
<path d="M83.1873 502.473L40.022 477.601L50.0137 471.845L93.1666 496.716L83.1873 502.473Z" fill="#DADCE5"/>
<path d="M169.22 451.851L126.067 426.967L136.047 421.211L179.2 446.094L169.22 451.851Z" fill="#DADCE5"/>
<path d="M135.464 532.631L92.3237 507.747L102.303 501.99L145.456 526.874L135.464 532.631Z" fill="#DADCE5"/>
<path d="M187.766 562.776L144.601 537.892L154.592 532.135L197.745 557.019L187.766 562.776Z" fill="#DADCE5"/>
<path d="M240.055 592.921L196.902 568.037L206.882 562.281L250.035 587.164L240.055 592.921Z" fill="#DADCE5"/>
<path opacity="0.5" d="M319.766 542.621C329.823 542.621 337.977 537.921 337.977 532.123C337.977 526.325 329.823 521.625 319.766 521.625C309.708 521.625 301.555 526.325 301.555 532.123C301.555 537.921 309.708 542.621 319.766 542.621Z" fill="#DADCE5"/>
<path opacity="0.5" d="M305.658 534.475C315.716 534.475 323.869 529.775 323.869 523.977C323.869 518.179 315.716 513.479 305.658 513.479C295.601 513.479 287.448 518.179 287.448 523.977C287.448 529.775 295.601 534.475 305.658 534.475Z" fill="#DADCE5"/>
</g>
<defs>
<clipPath id="clip0">
<rect width="519" height="619" fill="white" transform="translate(0.99707 0.996277)"/>
</clipPath>
</defs>
</svg>
