<svg width="14" height="32" viewBox="0 0 14 32" fill="none" xmlns="http://www.w3.org/2000/svg">
<path d="M12.6251 7.125C12.3034 7.125 11.982 7.00169 11.7375 6.75525L7.88421 2.87013C7.6474 2.63144 7.33346 2.5 7.00002 2.5C6.66658 2.5 6.35265 2.63144 6.1159 2.87013L2.26252 6.75525C1.7764 7.24538 0.985026 7.24869 0.494776 6.7625C0.00458871 6.27637 0.00133888 5.48488 0.487526 4.99475L4.34084 1.10962C5.05059 0.394062 5.99496 0 7.00002 0C8.00508 0 8.94946 0.394062 9.65921 1.10962L13.5125 4.99475C13.9986 5.48488 13.9955 6.27637 13.5053 6.7625C13.2616 7.00425 12.9432 7.125 12.6251 7.125ZM9.65921 30.8904L13.5125 27.0053C13.9986 26.5151 13.9955 25.7236 13.5053 25.2375C13.015 24.7514 12.2236 24.7546 11.7375 25.2447L7.88421 29.1299C7.6474 29.3686 7.33346 29.5 7.00002 29.5C6.66658 29.5 6.35265 29.3686 6.1159 29.1299L2.26252 25.2447C1.7764 24.7547 0.985026 24.7513 0.494776 25.2375C0.00458871 25.7236 0.00133888 26.5151 0.487526 27.0053L4.34084 30.8904C5.05059 31.6059 5.99496 32 7.00002 32C8.00508 32 8.94946 31.6059 9.65921 30.8904ZM11.3125 15.9375C11.3125 13.5251 9.3499 11.5625 6.93752 11.5625C4.52515 11.5625 2.56252 13.5251 2.56252 15.9375C2.56252 18.3499 4.52515 20.3125 6.93752 20.3125C9.3499 20.3125 11.3125 18.3499 11.3125 15.9375ZM8.81252 15.9375C8.81252 16.9714 7.9714 17.8125 6.93752 17.8125C5.90365 17.8125 5.06252 16.9714 5.06252 15.9375C5.06252 14.9036 5.90365 14.0625 6.93752 14.0625C7.9714 14.0625 8.81252 14.9036 8.81252 15.9375Z" fill="#20232D"/>
</svg>
