<svg width="32" height="32" viewBox="0 0 32 32" fill="none" xmlns="http://www.w3.org/2000/svg">
<path d="M12.1588 0.467095L12.5179 1.92174C11.1026 2.27155 9.74788 2.83242 8.49947 3.58549L7.73123 2.29904C9.10538 1.46687 10.5984 0.849118 12.1588 0.467095ZM19.8412 0.467095L19.4821 1.92174C20.8974 2.27155 22.2521 2.83242 23.5005 3.58549L24.2779 2.29904C22.9001 1.4676 21.4042 0.849927 19.8412 0.467095ZM2.29903 7.72669C1.46763 9.10286 0.849942 10.5973 0.467076 12.1588L1.92173 12.5179C2.27153 11.1026 2.8324 9.74789 3.58548 8.49947L2.29903 7.72669ZM1.49897 16C1.49886 15.2726 1.55356 14.5463 1.66262 13.8271L0.180692 13.5998C-0.0602307 15.1894 -0.0602307 16.8061 0.180692 18.3956L1.66262 18.1729C1.55373 17.4537 1.49903 16.7274 1.49897 16ZM24.2688 29.6964L23.5005 28.4145C22.2541 29.1683 20.9008 29.7292 19.4866 30.0783L19.8457 31.5329C21.4042 31.1472 22.8954 30.528 24.2688 29.6964ZM30.501 16C30.501 16.7274 30.4463 17.4537 30.3374 18.1729L31.8193 18.3956C32.0602 16.8061 32.0602 15.1894 31.8193 13.5998L30.3374 13.8271C30.4464 14.5463 30.5011 15.2726 30.501 16ZM31.5329 19.8366L30.0783 19.4775C29.7293 20.8946 29.1684 22.2509 28.4145 23.5005L29.701 24.2733C30.5332 22.8959 31.1509 21.3999 31.5329 19.8366ZM18.1729 30.3374C16.7325 30.5556 15.2675 30.5556 13.8271 30.3374L13.6044 31.8193C15.1924 32.0602 16.8076 32.0602 18.3956 31.8193L18.1729 30.3374ZM27.6736 24.6006C26.8095 25.7723 25.7735 26.8067 24.6006 27.669L25.4916 28.8782C26.7835 27.9271 27.9265 26.7888 28.8827 25.5007L27.6736 24.6006ZM24.6006 4.32646C25.7737 5.19038 26.8096 6.22636 27.6736 7.3994L28.8827 6.49934C27.9298 5.21007 26.7899 4.07017 25.5007 3.11728L24.6006 4.32646ZM4.32644 7.3994C5.19037 6.22636 6.22635 5.19038 7.39939 4.32646L6.49932 3.11728C5.21006 4.07017 4.07016 5.21007 3.11726 6.49934L4.32644 7.3994ZM29.701 7.72669L28.4145 8.49947C29.1683 9.74592 29.7292 11.0992 30.0783 12.5134L31.5329 12.1543C31.15 10.5942 30.5323 9.10126 29.701 7.72669ZM13.8271 1.66263C15.2675 1.44441 16.7325 1.44441 18.1729 1.66263L18.3956 0.180711C16.8076 -0.0602371 15.1924 -0.0602371 13.6044 0.180711L13.8271 1.66263ZM5.09468 29.2782L1.999 29.9964L2.72178 26.9008L1.26259 26.5598L0.539808 29.6555C0.494585 29.8474 0.487645 30.0464 0.519385 30.241C0.551125 30.4356 0.620923 30.6221 0.724784 30.7897C0.828646 30.9573 0.964536 31.1028 1.12468 31.2178C1.28482 31.3329 1.46607 31.4152 1.65807 31.4602C1.88261 31.5102 2.1154 31.5102 2.33994 31.4602L5.43561 30.7465L5.09468 29.2782ZM1.5717 25.2234L3.03544 25.5598L3.53548 23.4142C2.80526 22.1893 2.26138 20.8625 1.92173 19.4775L0.467076 19.8366C0.794273 21.1624 1.28921 22.4409 1.93991 23.6414L1.5717 25.2234ZM8.5722 28.4691L6.42659 28.9691L6.76752 30.4328L8.34491 30.0646C9.5445 30.7173 10.8233 31.2123 12.1497 31.5374L12.5088 30.0828C11.1282 29.7387 9.80612 29.1918 8.58584 28.46L8.5722 28.4691ZM16 2.99909C8.81767 3.00364 3.00362 8.82677 3.00362 16.0045C3.00758 18.4493 3.69911 20.8437 4.99922 22.9141L3.74913 28.2509L9.08132 27.0008C15.159 30.8238 23.1869 29.0009 27.0099 22.9278C30.8329 16.8546 29.0146 8.82677 22.9414 4.99923C20.8623 3.69178 18.456 2.99843 16 2.99909Z" fill="white"/>
</svg>
