<svg width="24" height="25" viewBox="0 0 24 25" fill="none" xmlns="http://www.w3.org/2000/svg">
<g clip-path="url(#clip0)">
<path d="M21.534 7.1266C22.51 6.43228 23.331 5.56565 24 4.56776V4.56676C23.107 4.9585 22.157 5.21899 21.165 5.34523C22.185 4.73508 22.964 3.77627 23.33 2.62109C22.379 3.18916 21.329 3.58992 20.21 3.81434C19.307 2.85052 18.02 2.25439 16.616 2.25439C13.892 2.25439 11.699 4.46958 11.699 7.18471C11.699 7.57544 11.732 7.95115 11.813 8.30883C7.723 8.10845 4.103 6.14474 1.671 3.15209C1.247 3.89048 0.997 4.73508 0.997 5.6438C0.997 7.35102 1.874 8.86388 3.183 9.74053C2.392 9.7255 1.617 9.49507 0.96 9.13339V9.18749C0.96 11.583 2.665 13.5728 4.902 14.0316C4.501 14.1418 4.065 14.1939 3.612 14.1939C3.297 14.1939 2.979 14.1759 2.681 14.1098C3.318 16.0615 5.128 17.4972 7.278 17.5443C5.604 18.8557 3.478 19.6462 1.177 19.6462C0.774 19.6462 0.387 19.6282 0 19.5791C2.18 20.9868 4.762 21.7913 7.548 21.7913C16.231 21.7913 21.89 14.5336 21.534 7.1266Z" fill="#20232D"/>
</g>
<defs>
<clipPath id="clip0">
<rect width="24" height="24.0454" fill="white"/>
</clipPath>
</defs>
</svg>
