<svg width="24" height="24" viewBox="0 0 24 24" fill="none" xmlns="http://www.w3.org/2000/svg">
<g clip-path="url(#clip0)">
<path d="M12.0018 0C8.57322 0 5.77051 2.80271 5.77051 6.2313C5.77051 9.6599 8.57322 12.4626 12.0018 12.4626C15.4304 12.4626 18.2331 9.6599 18.2331 6.2313C18.2331 2.80271 15.4304 0 12.0018 0Z" fill="white"/>
<path d="M22.6953 17.4422C22.532 17.034 22.3144 16.6531 22.0695 16.2994C20.8177 14.449 18.8858 13.2245 16.7089 12.9252C16.4369 12.898 16.1375 12.9524 15.9198 13.1157C14.777 13.9592 13.4164 14.3946 12.0014 14.3946C10.5864 14.3946 9.22592 13.9592 8.08305 13.1157C7.86535 12.9524 7.56602 12.8708 7.29394 12.9252C5.11706 13.2245 3.1579 14.449 1.93342 16.2994C1.68852 16.6531 1.47082 17.0613 1.30759 17.4422C1.22597 17.6055 1.25316 17.796 1.33477 17.9592C1.55248 18.3402 1.82456 18.7212 2.06946 19.0477C2.4504 19.5647 2.85858 20.0273 3.32118 20.4626C3.70212 20.8436 4.13748 21.1973 4.5729 21.5511C6.72253 23.1565 9.30759 24 11.9743 24C14.6409 24 17.226 23.1565 19.3756 21.5511C19.811 21.2246 20.2463 20.8436 20.6273 20.4626C21.0627 20.0273 21.4981 19.5647 21.879 19.0477C22.1511 18.6939 22.3961 18.3402 22.6137 17.9592C22.7497 17.796 22.7769 17.6054 22.6953 17.4422Z" fill="white"/>
</g>
<defs>
<clipPath id="clip0">
<rect width="24" height="24" fill="white"/>
</clipPath>
</defs>
</svg>
