<svg width="32" height="32" viewBox="0 0 32 32" fill="none" xmlns="http://www.w3.org/2000/svg">
<path d="M16.004 0H15.996C7.174 0 0 7.176 0 16C0 19.5 1.128 22.744 3.046 25.378L1.052 31.322L7.202 29.356C9.732 31.032 12.75 32 16.004 32C24.826 32 32 24.822 32 16C32 7.178 24.826 0 16.004 0Z" fill="white"/>
<path d="M25.3141 22.5944C24.9281 23.6844 23.3961 24.5884 22.1741 24.8524C21.3381 25.0304 20.2461 25.1724 16.5701 23.6484C11.8681 21.7004 8.8401 16.9224 8.6041 16.6124C8.3781 16.3024 6.7041 14.0824 6.7041 11.7864C6.7041 9.49036 7.8701 8.37236 8.3401 7.89236C8.7261 7.49836 9.3641 7.31836 9.9761 7.31836C10.1741 7.31836 10.3521 7.32836 10.5121 7.33636C10.9821 7.35636 11.2181 7.38436 11.5281 8.12636C11.9141 9.05636 12.8541 11.3524 12.9661 11.5884C13.0801 11.8244 13.1941 12.1444 13.0341 12.4544C12.8841 12.7744 12.7521 12.9164 12.5161 13.1884C12.2801 13.4604 12.0561 13.6684 11.8201 13.9604C11.6041 14.2144 11.3601 14.4864 11.6321 14.9564C11.9041 15.4164 12.8441 16.9504 14.2281 18.1824C16.0141 19.7724 17.4621 20.2804 17.9801 20.4964C18.3661 20.6564 18.8261 20.6184 19.1081 20.3184C19.4661 19.9324 19.9081 19.2924 20.3581 18.6624C20.6781 18.2104 21.0821 18.1544 21.5061 18.3144C21.9381 18.4644 24.2241 19.5944 24.6941 19.8284C25.1641 20.0644 25.4741 20.1764 25.5881 20.3744C25.7001 20.5724 25.7001 21.5024 25.3141 22.5944Z" fill="#2B303F"/>
</svg>
