<svg width="56" height="56" viewBox="0 0 56 56" fill="none" xmlns="http://www.w3.org/2000/svg">
<circle cx="28" cy="28" r="28" fill="#2B303F" fill-opacity="0.85"/>
<g clip-path="url(#clip0)">
<path d="M23.5377 30.1712C20.7474 26.231 21.6806 20.7749 25.6208 17.9853C29.561 15.1956 35.0171 16.1281 37.8067 20.069C40.5964 24.0092 39.6638 29.4646 35.723 32.2543C32.9106 34.2454 29.1924 34.3987 26.2261 32.6469L19.7808 39.0535C19.0849 39.7861 17.927 39.8154 17.1944 39.1195C16.4619 38.4242 16.4325 37.2664 17.1278 36.5338C17.1498 36.5105 17.1711 36.4891 17.1944 36.4671L23.5377 30.1712ZM30.6776 30.7685C33.7912 30.7691 36.3156 28.2467 36.3176 25.1331C36.3182 22.0195 33.7959 19.4951 30.6816 19.4938C27.5719 19.4924 25.0489 22.0108 25.0429 25.1204C25.0375 28.2347 27.5586 30.7631 30.6736 30.7685C30.6749 30.7685 30.6756 30.7685 30.6776 30.7685Z" fill="white"/>
</g>
<defs>
<clipPath id="clip0">
<rect width="23.2453" height="23.2453" fill="white" transform="matrix(-1 0 0 1 39.6226 16.3774)"/>
</clipPath>
</defs>
</svg>
